<svg xmlns="http://www.w3.org/2000/svg" xmlns:xlink="http://www.w3.org/1999/xlink" width="350" zoomAndPan="magnify" viewBox="0 0 300 56.249996" height="65.625" preserveAspectRatio="xMidYMid meet" version="1.0"><defs><g/><clipPath id="10bc2e0981"><path d="M 14 3.703125 L 71 3.703125 L 71 39 L 14 39 Z M 14 3.703125 " clip-rule="nonzero"/></clipPath><clipPath id="13f61dc59a"><path d="M 7.523438 39 L 77.097656 39 L 77.097656 51.808594 L 7.523438 51.808594 Z M 7.523438 39 " clip-rule="nonzero"/></clipPath><clipPath id="b8a098213c"><path d="M 30.859375 9.441406 L 53.804688 9.441406 L 53.804688 32.386719 L 30.859375 32.386719 Z M 30.859375 9.441406 " clip-rule="nonzero"/></clipPath></defs><g clip-path="url(#10bc2e0981)"><path fill="#efdad0" d="M 15.167969 37.203125 C 15.949219 37.890625 16.984375 38.003906 17.597656 38.003906 C 17.789062 38.003906 17.9375 37.996094 18.027344 37.984375 L 65.707031 37.984375 C 68.488281 37.984375 69.503906 36.097656 69.652344 35.097656 L 69.664062 35.03125 L 69.664062 34.964844 C 69.664062 34.710938 70.074219 9.664062 70.109375 7.152344 C 70.125 5.824219 69.605469 5.039062 69.15625 4.617188 C 68.222656 3.726562 66.972656 3.722656 66.699219 3.734375 C 65.457031 3.734375 21.316406 3.746094 18.515625 3.734375 L 18.492188 3.734375 C 17.289062 3.734375 16.304688 4.105469 15.574219 4.835938 C 14.414062 5.992188 14.382812 7.59375 14.382812 7.765625 L 14.230469 34.945312 C 14.230469 36.128906 14.738281 36.824219 15.167969 37.203125 Z M 16.425781 7.777344 C 16.445312 7.390625 16.546875 7.023438 16.726562 6.675781 C 17.066406 6.0625 17.628906 5.773438 18.503906 5.773438 L 18.519531 5.773438 C 21.34375 5.785156 66.277344 5.773438 66.730469 5.773438 L 66.792969 5.773438 C 66.792969 5.773438 67.410156 5.761719 67.761719 6.097656 C 67.980469 6.308594 68.089844 6.65625 68.082031 7.128906 C 68.050781 9.558594 67.667969 33.101562 67.640625 34.835938 C 67.566406 35.113281 67.222656 35.949219 65.714844 35.949219 L 17.847656 35.949219 C 17.613281 35.976562 16.867188 35.984375 16.507812 35.660156 C 16.402344 35.570312 16.261719 35.394531 16.261719 34.949219 Z M 16.425781 7.777344 " fill-opacity="1" fill-rule="nonzero"/></g><g clip-path="url(#13f61dc59a)"><path fill="#efdad0" d="M 77.054688 49.398438 L 77.03125 49.117188 L 70.480469 39.734375 C 70.3125 39.519531 70.097656 39.394531 69.828125 39.355469 C 69.5625 39.3125 69.316406 39.371094 69.097656 39.527344 C 68.875 39.683594 68.738281 39.894531 68.683594 40.160156 C 68.628906 40.425781 68.675781 40.675781 68.820312 40.90625 L 74.910156 49.628906 C 74.667969 49.714844 74.414062 49.757812 74.15625 49.753906 L 74.128906 49.753906 C 73.5 49.753906 11.90625 49.472656 10.128906 49.472656 C 10.019531 49.476562 9.910156 49.464844 9.800781 49.433594 C 9.796875 49.402344 9.796875 49.367188 9.800781 49.332031 L 15.300781 41.292969 C 15.375 41.179688 15.429688 41.058594 15.457031 40.925781 C 15.484375 40.792969 15.484375 40.660156 15.460938 40.527344 C 15.4375 40.394531 15.386719 40.273438 15.316406 40.15625 C 15.242188 40.042969 15.148438 39.949219 15.039062 39.875 C 14.925781 39.796875 14.804688 39.746094 14.671875 39.714844 C 14.542969 39.6875 14.410156 39.6875 14.277344 39.710938 C 14.144531 39.734375 14.023438 39.785156 13.910156 39.859375 C 13.796875 39.933594 13.703125 40.027344 13.625 40.136719 L 7.9375 48.457031 L 7.890625 48.59375 C 7.851562 48.714844 7.527344 49.777344 8.140625 50.640625 C 8.429688 51.035156 9.003906 51.511719 10.125 51.511719 C 11.886719 51.511719 72.9375 51.785156 74.101562 51.792969 L 74.183594 51.792969 C 74.59375 51.792969 75.773438 51.722656 76.5 50.964844 C 76.921875 50.527344 77.105469 50.003906 77.054688 49.398438 Z M 77.054688 49.398438 " fill-opacity="1" fill-rule="nonzero"/></g><path fill="#efdad0" d="M 45.976562 44.671875 L 39.558594 44.671875 C 38.867188 44.710938 38.378906 44.949219 38.113281 45.386719 C 37.734375 45.996094 38.007812 46.6875 38.042969 46.765625 L 38.109375 46.917969 L 40.027344 48.308594 L 45.296875 48.253906 L 47.273438 46.832031 L 47.308594 46.582031 C 47.332031 46.429688 47.425781 45.636719 46.96875 45.101562 C 46.703125 44.800781 46.375 44.65625 45.976562 44.671875 Z M 44.894531 47.039062 L 40.414062 47.082031 L 39.128906 46.15625 C 39.121094 46.113281 39.125 46.070312 39.140625 46.03125 C 39.164062 45.992188 39.292969 45.914062 39.605469 45.894531 L 45.96875 45.894531 C 45.992188 45.894531 46.015625 45.898438 46.035156 45.902344 C 46.082031 45.984375 46.105469 46.074219 46.101562 46.167969 Z M 44.894531 47.039062 " fill-opacity="1" fill-rule="nonzero"/><g clip-path="url(#b8a098213c)"><path fill="#efdad0" d="M 43.796875 16.460938 C 43.574219 16.375 43.328125 16.484375 43.242188 16.707031 L 40.132812 24.816406 C 40.046875 25.035156 40.15625 25.285156 40.378906 25.367188 C 40.429688 25.390625 40.480469 25.398438 40.53125 25.398438 C 40.703125 25.398438 40.867188 25.292969 40.933594 25.121094 L 44.042969 17.015625 C 44.128906 16.792969 44.019531 16.542969 43.796875 16.460938 Z M 49.730469 20.621094 L 45.855469 16.511719 C 45.691406 16.339844 45.417969 16.332031 45.246094 16.492188 C 45.074219 16.65625 45.066406 16.929688 45.230469 17.101562 L 48.828125 20.914062 L 45.230469 24.726562 C 45.066406 24.898438 45.074219 25.171875 45.246094 25.335938 C 45.328125 25.414062 45.4375 25.453125 45.539062 25.453125 C 45.65625 25.453125 45.769531 25.40625 45.855469 25.316406 L 49.734375 21.210938 C 49.886719 21.042969 49.886719 20.785156 49.730469 20.621094 Z M 38.925781 16.492188 C 38.757812 16.332031 38.484375 16.339844 38.320312 16.511719 L 34.441406 20.617188 C 34.285156 20.785156 34.285156 21.042969 34.441406 21.210938 L 38.320312 25.316406 C 38.402344 25.40625 38.519531 25.453125 38.632812 25.453125 C 38.738281 25.453125 38.84375 25.414062 38.925781 25.335938 C 39.101562 25.171875 39.109375 24.898438 38.945312 24.726562 L 35.347656 20.914062 L 38.945312 17.101562 C 39.109375 16.929688 39.101562 16.65625 38.925781 16.492188 Z M 42.332031 31.527344 C 36.480469 31.527344 31.71875 26.765625 31.71875 20.914062 C 31.71875 20.472656 31.746094 20.027344 31.800781 19.597656 C 32.457031 14.296875 36.984375 10.300781 42.332031 10.300781 C 43.703125 10.300781 45.035156 10.558594 46.292969 11.066406 C 50.332031 12.691406 52.945312 16.558594 52.945312 20.914062 C 52.945312 26.765625 48.183594 31.527344 42.332031 31.527344 Z M 46.613281 10.265625 C 45.253906 9.71875 43.8125 9.441406 42.332031 9.441406 C 36.550781 9.441406 31.65625 13.761719 30.949219 19.488281 C 30.890625 19.957031 30.859375 20.4375 30.859375 20.914062 C 30.859375 27.242188 36.007812 32.386719 42.332031 32.386719 C 48.65625 32.386719 53.804688 27.242188 53.804688 20.914062 C 53.804688 16.203125 50.984375 12.023438 46.613281 10.265625 " fill-opacity="1" fill-rule="nonzero"/></g><g fill="#d291af" fill-opacity="0.149"><g transform="translate(78.176299, 41.723518)"><g><path d="M 6.472656 -6.625 L 17.101562 -6.625 L 19.609375 0 L 23.652344 0 L 13.136719 -26.53125 L 10.367188 -26.53125 L -0.148438 0 L 3.929688 0 Z M 15.71875 -10.179688 L 7.859375 -10.179688 L 11.789062 -20.507812 Z M 15.71875 -10.179688 "/></g></g></g><g fill="#d291af" fill-opacity="0.149"><g transform="translate(109.982161, 41.723518)"><g><path d="M 3.21875 -26.195312 L 3.21875 0 L 7 0 L 7 -18.300781 L 19.648438 0 L 22.640625 0 L 22.640625 -26.195312 L 18.898438 -26.195312 L 18.898438 -7.746094 L 6.136719 -26.195312 Z M 3.21875 -26.195312 "/></g></g></g><g fill="#d291af" fill-opacity="0.149"><g transform="translate(143.920753, 41.723518)"><g><path d="M 23.316406 -16.988281 L 27.429688 -16.988281 C 26.007812 -24.101562 19.835938 -26.609375 14.707031 -26.609375 C 7.335938 -26.609375 1.570312 -20.957031 1.570312 -13.0625 C 1.570312 -5.203125 7.222656 0.449219 14.707031 0.449219 C 19.570312 0.449219 25.035156 -3.105469 26.871094 -8.195312 L 26.871094 -8.160156 C 27.242188 -9.054688 27.429688 -10.554688 27.617188 -12.796875 L 13.210938 -12.796875 L 13.210938 -8.945312 L 23.089844 -8.945312 C 21.519531 -5.050781 18 -3.253906 14.707031 -3.253906 C 9.46875 -3.253906 5.425781 -7.410156 5.425781 -13.0625 C 5.425781 -18.675781 9.46875 -22.753906 14.707031 -22.753906 C 18.113281 -22.753906 22.230469 -21.292969 23.316406 -16.988281 Z M 23.316406 -16.988281 "/></g></g></g><g fill="#d291af" fill-opacity="0.149"><g transform="translate(181.600981, 41.723518)"><g><path d="M 19.199219 -3.78125 L 7.035156 -3.78125 L 7.035156 -11.488281 L 18.898438 -11.488281 L 18.898438 -15.304688 L 7.035156 -15.304688 L 7.035156 -22.679688 L 19.160156 -22.679688 L 19.160156 -26.457031 L 3.21875 -26.457031 L 3.21875 0 L 19.199219 0 Z M 19.199219 -3.78125 "/></g></g></g><g fill="#d291af" fill-opacity="0.149"><g transform="translate(210.563199, 41.723518)"><g><path d="M 19.308594 -3.78125 L 7 -3.78125 L 7 -26.195312 L 3.21875 -26.195312 L 3.21875 0 L 19.308594 0 Z M 19.308594 -3.78125 "/></g></g></g><g fill="#d291af" fill-opacity="0.149"><g transform="translate(238.141023, 41.723518)"><g><path d="M 6.472656 -6.625 L 17.101562 -6.625 L 19.609375 0 L 23.652344 0 L 13.136719 -26.53125 L 10.367188 -26.53125 L -0.148438 0 L 3.929688 0 Z M 15.71875 -10.179688 L 7.859375 -10.179688 L 11.789062 -20.507812 Z M 15.71875 -10.179688 "/></g></g></g><g fill="#d291af" fill-opacity="0.149"><g transform="translate(269.946885, 41.723518)"><g><path d="M 14.109375 -26.457031 L 3.21875 -26.457031 L 3.21875 0 L 15.042969 0 C 20.058594 0 22.640625 -3.96875 22.640625 -7.894531 C 22.640625 -10.367188 21.554688 -13.136719 18.5625 -14.40625 C 20.359375 -15.753906 21.179688 -17.664062 21.179688 -19.570312 C 21.179688 -23.050781 18.449219 -26.457031 14.109375 -26.457031 Z M 14.035156 -15.753906 L 6.960938 -15.753906 L 6.960938 -22.867188 L 14.109375 -22.867188 C 16.242188 -22.867188 17.253906 -21.179688 17.253906 -19.421875 C 17.253906 -17.625 16.128906 -15.753906 14.035156 -15.753906 Z M 15.042969 -3.667969 L 6.960938 -3.667969 L 6.960938 -12.011719 L 15.042969 -12.011719 C 17.589844 -12.011719 18.859375 -9.917969 18.859375 -7.859375 C 18.859375 -5.800781 17.589844 -3.667969 15.042969 -3.667969 Z M 15.042969 -3.667969 "/></g></g></g><g fill="#efdad0" fill-opacity="1"><g transform="translate(77.011178, 40.710694)"><g><path d="M 6.472656 -6.625 L 17.101562 -6.625 L 19.609375 0 L 23.652344 0 L 13.136719 -26.53125 L 10.367188 -26.53125 L -0.148438 0 L 3.929688 0 Z M 15.71875 -10.179688 L 7.859375 -10.179688 L 11.789062 -20.507812 Z M 15.71875 -10.179688 "/></g></g></g><g fill="#efdad0" fill-opacity="1"><g transform="translate(108.81704, 40.710694)"><g><path d="M 3.21875 -26.195312 L 3.21875 0 L 7 0 L 7 -18.300781 L 19.648438 0 L 22.640625 0 L 22.640625 -26.195312 L 18.898438 -26.195312 L 18.898438 -7.746094 L 6.136719 -26.195312 Z M 3.21875 -26.195312 "/></g></g></g><g fill="#efdad0" fill-opacity="1"><g transform="translate(142.755632, 40.710694)"><g><path d="M 23.316406 -16.988281 L 27.429688 -16.988281 C 26.007812 -24.101562 19.835938 -26.609375 14.707031 -26.609375 C 7.335938 -26.609375 1.570312 -20.957031 1.570312 -13.0625 C 1.570312 -5.203125 7.222656 0.449219 14.707031 0.449219 C 19.570312 0.449219 25.035156 -3.105469 26.871094 -8.195312 L 26.871094 -8.160156 C 27.242188 -9.054688 27.429688 -10.554688 27.617188 -12.796875 L 13.210938 -12.796875 L 13.210938 -8.945312 L 23.089844 -8.945312 C 21.519531 -5.050781 18 -3.253906 14.707031 -3.253906 C 9.46875 -3.253906 5.425781 -7.410156 5.425781 -13.0625 C 5.425781 -18.675781 9.46875 -22.753906 14.707031 -22.753906 C 18.113281 -22.753906 22.230469 -21.292969 23.316406 -16.988281 Z M 23.316406 -16.988281 "/></g></g></g><g fill="#efdad0" fill-opacity="1"><g transform="translate(180.43586, 40.710694)"><g><path d="M 19.199219 -3.78125 L 7.035156 -3.78125 L 7.035156 -11.488281 L 18.898438 -11.488281 L 18.898438 -15.304688 L 7.035156 -15.304688 L 7.035156 -22.679688 L 19.160156 -22.679688 L 19.160156 -26.457031 L 3.21875 -26.457031 L 3.21875 0 L 19.199219 0 Z M 19.199219 -3.78125 "/></g></g></g><g fill="#efdad0" fill-opacity="1"><g transform="translate(209.398079, 40.710694)"><g><path d="M 19.308594 -3.78125 L 7 -3.78125 L 7 -26.195312 L 3.21875 -26.195312 L 3.21875 0 L 19.308594 0 Z M 19.308594 -3.78125 "/></g></g></g><g fill="#efdad0" fill-opacity="1"><g transform="translate(236.975902, 40.710694)"><g><path d="M 6.472656 -6.625 L 17.101562 -6.625 L 19.609375 0 L 23.652344 0 L 13.136719 -26.53125 L 10.367188 -26.53125 L -0.148438 0 L 3.929688 0 Z M 15.71875 -10.179688 L 7.859375 -10.179688 L 11.789062 -20.507812 Z M 15.71875 -10.179688 "/></g></g></g><g fill="#efdad0" fill-opacity="1"><g transform="translate(268.781764, 40.710694)"><g><path d="M 14.109375 -26.457031 L 3.21875 -26.457031 L 3.21875 0 L 15.042969 0 C 20.058594 0 22.640625 -3.96875 22.640625 -7.894531 C 22.640625 -10.367188 21.554688 -13.136719 18.5625 -14.40625 C 20.359375 -15.753906 21.179688 -17.664062 21.179688 -19.570312 C 21.179688 -23.050781 18.449219 -26.457031 14.109375 -26.457031 Z M 14.035156 -15.753906 L 6.960938 -15.753906 L 6.960938 -22.867188 L 14.109375 -22.867188 C 16.242188 -22.867188 17.253906 -21.179688 17.253906 -19.421875 C 17.253906 -17.625 16.128906 -15.753906 14.035156 -15.753906 Z M 15.042969 -3.667969 L 6.960938 -3.667969 L 6.960938 -12.011719 L 15.042969 -12.011719 C 17.589844 -12.011719 18.859375 -9.917969 18.859375 -7.859375 C 18.859375 -5.800781 17.589844 -3.667969 15.042969 -3.667969 Z M 15.042969 -3.667969 "/></g></g></g></svg>