<svg xmlns="http://www.w3.org/2000/svg" xmlns:xlink="http://www.w3.org/1999/xlink" width="100" zoomAndPan="magnify" viewBox="0 0 375 374.999991" height="100" preserveAspectRatio="xMidYMid meet" version="1.0"><defs><filter x="0%" y="0%" width="100%" height="100%" id="26ab7cb7be"><feColorMatrix values="0 0 0 0 1 0 0 0 0 1 0 0 0 0 1 0 0 0 1 0" color-interpolation-filters="sRGB"/></filter><g/><clipPath id="594b1d0e9e"><path d="M 14 26.015625 L 18 26.015625 L 18 29 L 14 29 Z M 14 26.015625 " clip-rule="nonzero"/></clipPath><mask id="7dd6830feb"><g filter="url(#26ab7cb7be)"><rect x="-37.5" width="450" fill="#000000" y="-37.499999" height="449.999989" fill-opacity="0.5686"/></g></mask><clipPath id="aa71b6c200"><path d="M 1 0.015625 L 3 0.015625 L 3 2 L 1 2 Z M 1 0.015625 " clip-rule="nonzero"/></clipPath><clipPath id="2d97fbb67f"><rect x="0" width="4" y="0" height="3"/></clipPath><mask id="0c4fdd8089"><g filter="url(#26ab7cb7be)"><rect x="-37.5" width="450" fill="#000000" y="-37.499999" height="449.999989" fill-opacity="0.302"/></g></mask><clipPath id="c20dbcbd35"><rect x="0" width="70" y="0" height="29"/></clipPath><clipPath id="c99f24b123"><path d="M 6 209 L 58 209 L 58 349.265625 L 6 349.265625 Z M 6 209 " clip-rule="nonzero"/></clipPath><mask id="1935b59af0"><g filter="url(#26ab7cb7be)"><rect x="-37.5" width="450" fill="#000000" y="-37.499999" height="449.999989" fill-opacity="0.1098"/></g></mask><clipPath id="9e73c34a4b"><path d="M 0.0390625 2 L 301 2 L 301 174 L 0.0390625 174 Z M 0.0390625 2 " clip-rule="nonzero"/></clipPath><clipPath id="91aebecc2f"><rect x="0" width="302" y="0" height="175"/></clipPath></defs><g clip-path="url(#594b1d0e9e)"><g mask="url(#7dd6830feb)"><g transform="matrix(1, 0, 0, 1, 14, 26)"><g clip-path="url(#2d97fbb67f)"><g clip-path="url(#aa71b6c200)"><path fill="#cfbbba" d="M 1.859375 0.0585938 C 2.796875 0.0429688 2.796875 1.515625 1.859375 1.5 C 0.921875 1.515625 0.921875 0.0429688 1.859375 0.0585938 Z M 1.859375 0.0585938 " fill-opacity="1" fill-rule="nonzero"/></g></g></g></g></g><path fill="#e4aa85" d="M 14.132812 286.273438 C 29.71875 306.617188 50.632812 323.355469 74.949219 331.402344 C 99.28125 339.445312 127.097656 338.191406 149.339844 325.476562 C 183.453125 305.996094 199.152344 264.503906 230.730469 241.144531 C 253.636719 224.203125 282.878906 218.277344 308.144531 205.289062 C 312.695312 202.9375 317.121094 200.371094 321.355469 197.460938 C 358.261719 172.082031 374.828125 120.683594 359.6875 78.496094 C 320.449219 85.996094 282.546875 93.175781 244.660156 100.355469 C 243.636719 100.554688 242.601562 100.742188 241.578125 100.945312 C 239.316406 97.226562 237.054688 93.449219 234.722656 89.699219 C 229.160156 80.644531 223.238281 71.691406 216.238281 63.558594 C 206.328125 52.054688 194.039062 42.191406 179.621094 37.433594 C 160.417969 31.089844 139.199219 34.363281 120.242188 41.429688 C 107.609375 46.128906 95.40625 52.585938 85.855469 62.105469 C 75.410156 72.527344 68.714844 86.226562 65.847656 100.757812 C 64.347656 108.3125 63.902344 116.097656 64.492188 123.753906 C 66.222656 146.132812 76.277344 167.355469 90.480469 184.714844 C 90.019531 184.972656 89.558594 185.246094 89.097656 185.519531 C 86.617188 186.949219 84.15625 188.40625 81.707031 189.875 C 59.925781 202.921875 39.253906 217.152344 19.808594 232.882812 C 12.921875 238.449219 5.832031 244.75 3.5 253.3125 C 0.359375 264.863281 6.855469 276.773438 14.132812 286.273438 Z M 14.132812 286.273438 " fill-opacity="1" fill-rule="nonzero"/><path fill="#d291af" d="M 81.707031 189.875 C 93.230469 192.140625 105.1875 191.9375 116.855469 189.902344 C 122.648438 188.894531 128.351562 187.4375 133.910156 185.609375 C 148.476562 180.804688 162.074219 173.539062 175.011719 165.25 C 179.765625 162.207031 184.429688 159.019531 189.027344 155.761719 C 210.417969 140.59375 231.335938 122.574219 244.660156 100.355469 C 243.636719 100.554688 242.601562 100.742188 241.578125 100.945312 C 239.316406 97.226562 237.054688 93.449219 234.722656 89.699219 C 222.820312 107.867188 206.429688 122.761719 188.59375 135.171875 C 170.644531 147.675781 151.167969 157.808594 131.75 167.917969 C 129.847656 168.910156 127.933594 169.890625 126.019531 170.871094 C 120.5 173.699219 114.882812 176.453125 109.179688 178.875 C 102.625 181.671875 95.925781 184.007812 89.097656 185.519531 Z M 81.707031 189.875 " fill-opacity="1" fill-rule="nonzero"/><g mask="url(#0c4fdd8089)"><g transform="matrix(1, 0, 0, 1, 108, 162)"><g clip-path="url(#c20dbcbd35)"><path fill="#ec3aab" d="M 1.179688 16.875 C 3.382812 19.773438 5.226562 23.015625 7.371094 25.988281 C 7.832031 26.636719 8.335938 27.285156 8.855469 27.902344 C 14.648438 26.894531 20.351562 25.4375 25.910156 23.609375 C 40.476562 18.804688 54.074219 11.539062 67.011719 3.25 C 67.574219 2.644531 68.105469 2.039062 68.652344 1.433594 C 53.742188 10.703125 34.957031 13.429688 18.019531 8.871094 C 12.5 11.699219 6.882812 14.453125 1.179688 16.875 Z M 1.179688 16.875 " fill-opacity="1" fill-rule="nonzero"/></g></g></g><path fill="#d291af" d="M 84.414062 191.476562 C 90.277344 180.921875 101.875 175.15625 112.792969 170.007812 C 114.378906 169.257812 116.0625 168.492188 117.792969 168.738281 C 120.125 169.070312 121.796875 171.089844 123.207031 172.992188 C 125.699219 176.351562 128.148438 179.882812 129.15625 183.949219 C 130.167969 188.015625 129.460938 192.757812 126.363281 195.570312 C 123.554688 198.121094 119.476562 198.597656 115.6875 198.640625 C 105.027344 198.742188 94.355469 196.25 84.414062 191.476562 Z M 84.414062 191.476562 " fill-opacity="1" fill-rule="nonzero"/><path fill="#d291af" d="M 85.105469 190.972656 C 80.308594 189.53125 75.382812 188.042969 71.378906 185.015625 C 67.375 181.988281 64.421875 177.074219 65.140625 172.113281 C 65.574219 169.140625 67.515625 166.257812 70.398438 165.4375 C 73.882812 164.441406 77.515625 166.632812 79.933594 169.328125 C 85.078125 175.082031 86.863281 182.996094 88.464844 190.554688 C 85.25 191.375 81.664062 190.609375 85.105469 190.972656 Z M 85.105469 190.972656 " fill-opacity="1" fill-rule="nonzero"/><g clip-path="url(#c99f24b123)"><path fill="#d291af" d="M 57.203125 209.441406 C 48.214844 223.253906 43.546875 239.429688 40.390625 255.605469 C 37.238281 271.785156 35.480469 288.234375 31.648438 304.253906 C 27.816406 320.285156 21.75 336.144531 11.839844 349.308594 C 7.75 338.566406 5.976562 326.945312 6.710938 315.46875 C 11.550781 313.164062 14.230469 307.957031 16.40625 303.054688 C 21.722656 291.132812 26.230469 278.835938 29.875 266.304688 C 32.929688 255.792969 35.394531 245.097656 39.382812 234.902344 C 43.375 224.695312 49.050781 214.90625 57.203125 209.441406 Z M 57.203125 209.441406 " fill-opacity="1" fill-rule="nonzero"/></g><path fill="#ec3aab" d="M 71.089844 207.796875 C 65.210938 208.792969 59.535156 210.925781 54.453125 214.039062 C 56.613281 206.585938 61.164062 199.851562 67.257812 195.066406 C 73.351562 190.277344 80.972656 187.453125 88.722656 187.121094 C 82.125 193.582031 76.074219 200.601562 71.089844 207.796875 Z M 71.089844 207.796875 " fill-opacity="1" fill-rule="nonzero"/><path fill="#d291af" d="M 87.699219 186.039062 C 90.769531 189.746094 91.976562 194.707031 91.992188 199.519531 C 92.007812 204.335938 90.910156 209.066406 89.832031 213.75 C 80.394531 254.570312 70.976562 295.386719 61.539062 336.203125 C 51.183594 339.289062 40.710938 342.042969 29.386719 342.894531 C 48.085938 301.253906 62.058594 257.480469 70.960938 212.714844 C 72.054688 207.191406 73.105469 201.582031 75.542969 196.507812 C 78.003906 191.417969 82.066406 186.847656 87.699219 186.039062 Z M 87.699219 186.039062 " fill-opacity="1" fill-rule="nonzero"/><path fill="#ec3aab" d="M 89.714844 185.421875 C 96.675781 178.714844 105.015625 173.453125 114.046875 170.078125 C 115.039062 169.703125 116.0625 169.359375 117.128906 169.402344 C 118.195312 169.445312 119.289062 169.964844 119.738281 170.914062 C 120.242188 172.011719 119.75 173.367188 118.886719 174.203125 C 118.023438 175.039062 116.855469 175.484375 115.71875 175.90625 C 106.484375 179.363281 97.234375 182.8125 89.714844 185.421875 Z M 89.714844 185.421875 " fill-opacity="1" fill-rule="nonzero"/><path fill="#ec3aab" d="M 86.589844 185.101562 C 84.542969 178.425781 81.546875 171.664062 76.015625 167.414062 C 74.476562 166.230469 72.214844 165.308594 70.730469 166.546875 C 69.503906 167.585938 69.621094 169.53125 70.183594 171.046875 C 71.550781 174.707031 74.707031 177.375 77.976562 179.507812 C 81.261719 181.644531 84.804688 183.417969 86.589844 185.101562 Z M 86.589844 185.101562 " fill-opacity="1" fill-rule="nonzero"/><path fill="#ec3aab" d="M 91.429688 194.289062 C 92.152344 191.316406 90.78125 187.972656 88.1875 186.355469 C 89.933594 188.691406 91 191.546875 91.429688 194.289062 Z M 91.429688 194.289062 " fill-opacity="1" fill-rule="nonzero"/><path fill="#ec3aab" d="M 86.417969 185.953125 C 83.808594 185.851562 81.171875 186.6875 79.097656 188.261719 C 81.058594 186.15625 84.257812 185.304688 86.417969 185.953125 Z M 86.417969 185.953125 " fill-opacity="1" fill-rule="nonzero"/><g mask="url(#1935b59af0)"><g transform="matrix(1, 0, 0, 1, 65, 32)"><g clip-path="url(#91aebecc2f)"><g clip-path="url(#9e73c34a4b)"><path fill="#ec3aab" d="M 0.847656 68.757812 C 5.65625 64.015625 8.898438 59.386719 8.726562 57.613281 C 28.519531 34.023438 64.386719 25.632812 92.578125 38.003906 C 120.769531 50.375 138.921875 82.457031 134.988281 113.019531 C 133.519531 124.542969 129.890625 138.167969 138.144531 146.328125 C 142.078125 150.203125 147.738281 151.589844 153.113281 152.828125 C 177.800781 158.523438 202.480469 164.203125 227.15625 169.898438 C 232.414062 171.109375 237.757812 172.320312 243.144531 173.289062 C 247.695312 170.9375 252.121094 168.371094 256.355469 165.460938 C 293.261719 140.082031 309.828125 88.683594 294.6875 46.496094 C 255.449219 53.996094 217.546875 61.175781 179.660156 68.355469 C 178.636719 68.554688 177.601562 68.742188 176.578125 68.945312 C 174.316406 65.226562 172.054688 61.449219 169.722656 57.699219 C 164.160156 48.644531 158.238281 39.691406 151.238281 31.558594 C 141.328125 20.054688 129.039062 10.191406 114.621094 5.433594 C 95.417969 -0.910156 74.199219 2.363281 55.242188 9.429688 C 42.609375 14.128906 30.40625 20.585938 20.855469 30.105469 C 10.410156 40.527344 3.714844 54.226562 0.847656 68.757812 Z M 0.847656 68.757812 " fill-opacity="1" fill-rule="nonzero"/></g></g></g></g><g fill="#ec3aab" fill-opacity="0.4"><g transform="translate(103.53986, 315.000573)"><g><path d="M -6.816406 -24.964844 C -8.261719 -23.328125 -9.113281 -21.425781 -9.324219 -19.480469 L -15.867188 -25.265625 L -19.636719 -21 L 1.835938 -2.019531 L 4.597656 -5.144531 L 3.71875 -6.859375 C 6.023438 -7.167969 8.164062 -8.292969 9.867188 -10.222656 C 14.101562 -15.015625 13.636719 -21.671875 8.871094 -25.878906 C 4.082031 -30.113281 -2.582031 -29.757812 -6.816406 -24.964844 Z M 5.523438 -13.433594 C 3.328125 -10.953125 -0.140625 -10.792969 -2.59375 -12.960938 C -5.050781 -15.128906 -5.320312 -18.59375 -3.125 -21.078125 C -0.929688 -23.5625 2.542969 -23.71875 4.996094 -21.550781 C 7.449219 -19.382812 7.71875 -15.917969 5.523438 -13.433594 Z M 5.523438 -13.433594 "/></g></g></g><g fill="#ec3aab" fill-opacity="0.4"><g transform="translate(120.911672, 295.36085)"><g><path d="M 8.996094 -8.441406 C 13.136719 -12.738281 13.117188 -18.226562 9.015625 -22.175781 L 0.253906 -30.613281 L -3.695312 -26.515625 L 4.617188 -18.507812 C 6.75 -16.453125 6.960938 -14.085938 5.121094 -12.175781 C 3.308594 -10.292969 0.9375 -10.359375 -1.226562 -12.441406 L -9.539062 -20.449219 L -13.488281 -16.347656 L -4.726562 -7.910156 C -0.625 -3.960938 4.886719 -4.171875 8.996094 -8.441406 Z M 8.996094 -8.441406 "/></g></g></g><g fill="#ec3aab" fill-opacity="0.4"><g transform="translate(137.806845, 277.869503)"><g><path d="M 7.765625 -6.609375 C 11.613281 -10.3125 12.195312 -14.769531 9.21875 -17.859375 C 5.652344 -21.566406 1.988281 -19.019531 -0.914062 -17.085938 C -2.757812 -15.855469 -4.292969 -14.863281 -5.269531 -15.875 C -6.105469 -16.746094 -5.886719 -18.039062 -4.625 -19.253906 C -3.191406 -20.632812 -1.78125 -20.855469 -0.589844 -19.671875 L 3.316406 -23.433594 C 0.367188 -26.4375 -4.023438 -26.164062 -7.675781 -22.648438 C -11.328125 -19.132812 -11.851562 -14.785156 -9.09375 -11.921875 C -5.660156 -8.351562 -1.945312 -10.683594 0.875 -12.585938 C 2.71875 -13.875 4.335938 -14.835938 5.335938 -13.796875 C 6.3125 -12.785156 5.785156 -11.25 4.660156 -10.167969 C 3.199219 -8.761719 1.511719 -8.4375 0.1875 -9.757812 L -3.804688 -5.917969 C -0.691406 -2.6875 3.972656 -2.957031 7.765625 -6.609375 Z M 7.765625 -6.609375 "/></g></g></g><g fill="#ec3aab" fill-opacity="0.4"><g transform="translate(152.41126, 263.892761)"><g><path d="M -14.074219 -19.464844 L -9.898438 -23.277344 L -13.445312 -27.164062 L -17.621094 -23.351562 Z M 2.015625 -1.839844 L 6.21875 -5.679688 L -7.976562 -21.230469 L -12.179688 -17.390625 Z M 2.015625 -1.839844 "/></g></g></g><g fill="#ec3aab" fill-opacity="0.4"><g transform="translate(160.360653, 256.488342)"><g><path d="M -2.871094 -25.90625 C -5.03125 -24.050781 -6.167969 -21.484375 -6.160156 -19.023438 L -8.691406 -20.292969 L -11.648438 -17.75 L 2.070312 -1.777344 L 6.390625 -5.488281 L -0.800781 -13.859375 C -3.011719 -16.433594 -3.023438 -19.199219 -0.804688 -21.105469 C 1.058594 -22.703125 2.96875 -22.339844 5.050781 -19.914062 L 12.75 -10.949219 L 17.066406 -14.660156 L 8.757812 -24.332031 C 5.277344 -28.382812 0.765625 -29.03125 -2.871094 -25.90625 Z M -2.871094 -25.90625 "/></g></g></g><g fill="#ec3aab" fill-opacity="0.4"><g transform="translate(179.018188, 240.459616)"><g><path d="M 11.632812 -22.644531 C 7.863281 -27.417969 1.28125 -28.582031 -3.796875 -24.574219 C -8.695312 -20.707031 -9.398438 -14.042969 -5.484375 -9.085938 C -1.570312 -4.125 5.128906 -3.253906 9.996094 -7.097656 C 13.851562 -10.140625 15.195312 -14.925781 13.535156 -19.476562 L 8.851562 -15.78125 C 9.121094 -14.058594 8.417969 -12.308594 6.855469 -11.074219 C 4.683594 -9.359375 2.222656 -9.457031 0.0390625 -11.40625 L 12.554688 -21.289062 C 12.277344 -21.765625 11.96875 -22.214844 11.632812 -22.644531 Z M -0.777344 -20.746094 C 1.242188 -22.339844 3.550781 -22.375 5.785156 -20.863281 L -2.230469 -14.53125 C -3.257812 -16.902344 -2.769531 -19.175781 -0.777344 -20.746094 Z M -0.777344 -20.746094 "/></g></g></g><g fill="#ec3aab" fill-opacity="0.4"><g transform="translate(197.973466, 225.535635)"><g><path d="M 8.585938 -5.496094 C 12.902344 -8.648438 14.082031 -12.984375 11.550781 -16.449219 C 8.515625 -20.605469 4.542969 -18.574219 1.40625 -17.054688 C -0.589844 -16.082031 -2.246094 -15.308594 -3.070312 -16.441406 C -3.785156 -17.417969 -3.394531 -18.667969 -1.976562 -19.703125 C -0.371094 -20.875 1.058594 -20.902344 2.078125 -19.574219 L 6.453125 -22.769531 C 3.941406 -26.148438 -0.445312 -26.46875 -4.542969 -23.480469 C -8.636719 -20.492188 -9.742188 -16.253906 -7.398438 -13.042969 C -4.476562 -9.042969 -0.484375 -10.847656 2.570312 -12.351562 C 4.570312 -13.378906 6.304688 -14.113281 7.15625 -12.949219 C 7.980469 -11.8125 7.253906 -10.367188 5.996094 -9.445312 C 4.355469 -8.25 2.640625 -8.15625 1.503906 -9.644531 L -2.96875 -6.378906 C -0.324219 -2.757812 4.335938 -2.394531 8.585938 -5.496094 Z M 8.585938 -5.496094 "/></g></g></g><g fill="#ec3aab" fill-opacity="0.4"><g transform="translate(214.237728, 213.654342)"><g><path d="M 8.769531 -5.199219 C 13.191406 -8.199219 14.515625 -12.492188 12.109375 -16.042969 C 9.21875 -20.300781 5.175781 -18.40625 1.988281 -16.996094 C -0.0390625 -16.09375 -1.71875 -15.375 -2.507812 -16.535156 C -3.1875 -17.535156 -2.753906 -18.773438 -1.300781 -19.757812 C 0.34375 -20.875 1.773438 -20.855469 2.746094 -19.488281 L 7.230469 -22.535156 C 4.832031 -25.996094 0.460938 -26.46875 -3.734375 -23.621094 C -7.929688 -20.773438 -9.179688 -16.578125 -6.945312 -13.289062 C -4.164062 -9.191406 -0.113281 -10.855469 2.992188 -12.257812 C 5.027344 -13.214844 6.785156 -13.890625 7.59375 -12.695312 C 8.382812 -11.535156 7.605469 -10.109375 6.3125 -9.234375 C 4.636719 -8.097656 2.917969 -8.058594 1.832031 -9.585938 L -2.746094 -6.476562 C -0.230469 -2.765625 4.414062 -2.242188 8.769531 -5.199219 Z M 8.769531 -5.199219 "/></g></g></g><g fill="#ec3aab" fill-opacity="0.4"><g transform="translate(231.012124, 202.347359)"><g/></g></g><g fill="#ec3aab" fill-opacity="0.4"><g transform="translate(238.5514, 197.354969)"><g><path d="M 11.210938 -6.027344 C 16.785156 -9.386719 18.484375 -16.011719 15.203125 -21.457031 C 11.925781 -26.898438 5.292969 -28.457031 -0.28125 -25.097656 C -5.859375 -21.734375 -7.578125 -15.144531 -4.296875 -9.703125 C -1.019531 -4.257812 5.632812 -2.664062 11.210938 -6.027344 Z M 8.433594 -10.636719 C 5.625 -8.945312 2.414062 -9.742188 0.644531 -12.679688 C -1.105469 -15.585938 -0.332031 -18.832031 2.472656 -20.519531 C 5.28125 -22.210938 8.511719 -21.382812 10.261719 -18.476562 C 12.035156 -15.539062 11.238281 -12.328125 8.433594 -10.636719 Z M 8.433594 -10.636719 "/></g></g></g><g fill="#ec3aab" fill-opacity="0.4"><g transform="translate(259.905163, 184.361538)"><g><path d="M 13.96875 -31.414062 L 16.289062 -18.363281 L 5.386719 -26.625 L 3.980469 -25.867188 L 5.042969 -12.363281 L -4.578125 -21.445312 L -9.660156 -18.710938 L 6.421875 -3.453125 L 10.476562 -5.632812 L 9.445312 -17.429688 L 18.785156 -10.097656 L 22.839844 -12.277344 L 18.914062 -34.074219 Z M 13.96875 -31.414062 "/></g></g></g><g fill="#ec3aab" fill-opacity="0.4"><g transform="translate(288.796029, 168.930519)"><g><path d="M 4.015625 -25.753906 C 1.445312 -24.53125 -0.324219 -22.347656 -0.960938 -19.972656 L -3.070312 -21.859375 L -6.589844 -20.183594 L 2.464844 -1.175781 L 7.605469 -3.621094 L 2.859375 -13.585938 C 1.398438 -16.648438 2.113281 -19.320312 4.753906 -20.578125 C 6.96875 -21.632812 8.714844 -20.78125 10.089844 -17.894531 L 15.171875 -7.226562 L 20.3125 -9.675781 L 14.828125 -21.1875 C 12.53125 -26.011719 8.34375 -27.816406 4.015625 -25.753906 Z M 4.015625 -25.753906 "/></g></g></g><g fill="#ec3aab" fill-opacity="0.4"><g transform="translate(311.000802, 158.348904)"><g><path d="M 17.160156 -18.808594 C 14.773438 -24.402344 8.726562 -27.25 2.769531 -24.710938 C -2.96875 -22.261719 -5.390625 -16.015625 -2.910156 -10.203125 C -0.433594 -4.394531 5.804688 -1.796875 11.507812 -4.230469 C 16.027344 -6.15625 18.574219 -10.421875 18.167969 -15.253906 L 12.679688 -12.910156 C 12.484375 -11.175781 11.347656 -9.671875 9.519531 -8.890625 C 6.972656 -7.804688 4.621094 -8.542969 3.023438 -10.996094 L 17.695312 -17.253906 C 17.550781 -17.789062 17.371094 -18.304688 17.160156 -18.808594 Z M 4.683594 -20.226562 C 7.050781 -21.234375 9.289062 -20.664062 11.050781 -18.617188 L 1.652344 -14.609375 C 1.285156 -17.164062 2.351562 -19.230469 4.683594 -20.226562 Z M 4.683594 -20.226562 "/></g></g></g><g fill="#ec3aab" fill-opacity="0.4"><g transform="translate(333.250609, 148.93084)"><g><path d="M 4.9375 -24.617188 C 2.390625 -23.628906 0.957031 -22.15625 0.214844 -19.859375 L -1.675781 -21.929688 L -5.058594 -20.621094 L 2.546875 -0.984375 L 7.855469 -3.042969 L 3.910156 -13.222656 C 2.671875 -16.421875 3.316406 -18.21875 6.296875 -19.371094 L 8.625 -20.273438 L 6.679688 -25.292969 Z M 4.9375 -24.617188 "/></g></g></g><g fill="#efdad0" fill-opacity="1"><g transform="translate(101.138636, 314.581773)"><g><path d="M -6.816406 -24.964844 C -8.261719 -23.328125 -9.113281 -21.425781 -9.324219 -19.480469 L -15.867188 -25.265625 L -19.636719 -21 L 1.835938 -2.019531 L 4.597656 -5.144531 L 3.71875 -6.859375 C 6.023438 -7.167969 8.164062 -8.292969 9.867188 -10.222656 C 14.101562 -15.015625 13.636719 -21.671875 8.871094 -25.878906 C 4.082031 -30.113281 -2.582031 -29.757812 -6.816406 -24.964844 Z M 5.523438 -13.433594 C 3.328125 -10.953125 -0.140625 -10.792969 -2.59375 -12.960938 C -5.050781 -15.128906 -5.320312 -18.59375 -3.125 -21.078125 C -0.929688 -23.5625 2.542969 -23.71875 4.996094 -21.550781 C 7.449219 -19.382812 7.71875 -15.917969 5.523438 -13.433594 Z M 5.523438 -13.433594 "/></g></g></g><g fill="#efdad0" fill-opacity="1"><g transform="translate(118.510458, 294.942052)"><g><path d="M 8.996094 -8.441406 C 13.136719 -12.738281 13.117188 -18.226562 9.015625 -22.175781 L 0.253906 -30.613281 L -3.695312 -26.515625 L 4.617188 -18.507812 C 6.75 -16.453125 6.960938 -14.085938 5.121094 -12.175781 C 3.308594 -10.292969 0.9375 -10.359375 -1.226562 -12.441406 L -9.539062 -20.449219 L -13.488281 -16.347656 L -4.726562 -7.910156 C -0.625 -3.960938 4.886719 -4.171875 8.996094 -8.441406 Z M 8.996094 -8.441406 "/></g></g></g><g fill="#efdad0" fill-opacity="1"><g transform="translate(135.405631, 277.450734)"><g><path d="M 7.765625 -6.609375 C 11.613281 -10.3125 12.195312 -14.769531 9.21875 -17.859375 C 5.652344 -21.566406 1.988281 -19.019531 -0.914062 -17.085938 C -2.757812 -15.855469 -4.292969 -14.863281 -5.269531 -15.875 C -6.105469 -16.746094 -5.886719 -18.039062 -4.625 -19.253906 C -3.191406 -20.632812 -1.78125 -20.855469 -0.589844 -19.671875 L 3.316406 -23.433594 C 0.367188 -26.4375 -4.023438 -26.164062 -7.675781 -22.648438 C -11.328125 -19.132812 -11.851562 -14.785156 -9.09375 -11.921875 C -5.660156 -8.351562 -1.945312 -10.683594 0.875 -12.585938 C 2.71875 -13.875 4.335938 -14.835938 5.335938 -13.796875 C 6.3125 -12.785156 5.785156 -11.25 4.660156 -10.167969 C 3.199219 -8.761719 1.511719 -8.4375 0.1875 -9.757812 L -3.804688 -5.917969 C -0.691406 -2.6875 3.972656 -2.957031 7.765625 -6.609375 Z M 7.765625 -6.609375 "/></g></g></g><g fill="#efdad0" fill-opacity="1"><g transform="translate(150.010046, 263.473947)"><g><path d="M -14.074219 -19.464844 L -9.898438 -23.277344 L -13.445312 -27.164062 L -17.621094 -23.351562 Z M 2.015625 -1.839844 L 6.21875 -5.679688 L -7.976562 -21.230469 L -12.179688 -17.390625 Z M 2.015625 -1.839844 "/></g></g></g><g fill="#efdad0" fill-opacity="1"><g transform="translate(157.959453, 256.06953)"><g><path d="M -2.871094 -25.90625 C -5.03125 -24.050781 -6.167969 -21.484375 -6.160156 -19.023438 L -8.691406 -20.292969 L -11.648438 -17.75 L 2.070312 -1.777344 L 6.390625 -5.488281 L -0.800781 -13.859375 C -3.011719 -16.433594 -3.023438 -19.199219 -0.804688 -21.105469 C 1.058594 -22.703125 2.96875 -22.339844 5.050781 -19.914062 L 12.75 -10.949219 L 17.066406 -14.660156 L 8.757812 -24.332031 C 5.277344 -28.382812 0.765625 -29.03125 -2.871094 -25.90625 Z M -2.871094 -25.90625 "/></g></g></g><g fill="#efdad0" fill-opacity="1"><g transform="translate(176.616974, 240.040816)"><g><path d="M 11.632812 -22.644531 C 7.863281 -27.417969 1.28125 -28.582031 -3.796875 -24.574219 C -8.695312 -20.707031 -9.398438 -14.042969 -5.484375 -9.085938 C -1.570312 -4.125 5.128906 -3.253906 9.996094 -7.097656 C 13.851562 -10.140625 15.195312 -14.925781 13.535156 -19.476562 L 8.851562 -15.78125 C 9.121094 -14.058594 8.417969 -12.308594 6.855469 -11.074219 C 4.683594 -9.359375 2.222656 -9.457031 0.0390625 -11.40625 L 12.554688 -21.289062 C 12.277344 -21.765625 11.96875 -22.214844 11.632812 -22.644531 Z M -0.777344 -20.746094 C 1.242188 -22.339844 3.550781 -22.375 5.785156 -20.863281 L -2.230469 -14.53125 C -3.257812 -16.902344 -2.769531 -19.175781 -0.777344 -20.746094 Z M -0.777344 -20.746094 "/></g></g></g><g fill="#efdad0" fill-opacity="1"><g transform="translate(195.572264, 225.116823)"><g><path d="M 8.585938 -5.496094 C 12.902344 -8.648438 14.082031 -12.984375 11.550781 -16.449219 C 8.515625 -20.605469 4.542969 -18.574219 1.40625 -17.054688 C -0.589844 -16.082031 -2.246094 -15.308594 -3.070312 -16.441406 C -3.785156 -17.417969 -3.394531 -18.667969 -1.976562 -19.703125 C -0.371094 -20.875 1.058594 -20.902344 2.078125 -19.574219 L 6.453125 -22.769531 C 3.941406 -26.148438 -0.445312 -26.46875 -4.542969 -23.480469 C -8.636719 -20.492188 -9.742188 -16.253906 -7.398438 -13.042969 C -4.476562 -9.042969 -0.484375 -10.847656 2.570312 -12.351562 C 4.570312 -13.378906 6.304688 -14.113281 7.15625 -12.949219 C 7.980469 -11.8125 7.253906 -10.367188 5.996094 -9.445312 C 4.355469 -8.25 2.640625 -8.15625 1.503906 -9.644531 L -2.96875 -6.378906 C -0.324219 -2.757812 4.335938 -2.394531 8.585938 -5.496094 Z M 8.585938 -5.496094 "/></g></g></g><g fill="#efdad0" fill-opacity="1"><g transform="translate(211.836511, 213.235542)"><g><path d="M 8.769531 -5.199219 C 13.191406 -8.199219 14.515625 -12.492188 12.109375 -16.042969 C 9.21875 -20.300781 5.175781 -18.40625 1.988281 -16.996094 C -0.0390625 -16.09375 -1.71875 -15.375 -2.507812 -16.535156 C -3.1875 -17.535156 -2.753906 -18.773438 -1.300781 -19.757812 C 0.34375 -20.875 1.773438 -20.855469 2.746094 -19.488281 L 7.230469 -22.535156 C 4.832031 -25.996094 0.460938 -26.46875 -3.734375 -23.621094 C -7.929688 -20.773438 -9.179688 -16.578125 -6.945312 -13.289062 C -4.164062 -9.191406 -0.113281 -10.855469 2.992188 -12.257812 C 5.027344 -13.214844 6.785156 -13.890625 7.59375 -12.695312 C 8.382812 -11.535156 7.605469 -10.109375 6.3125 -9.234375 C 4.636719 -8.097656 2.917969 -8.058594 1.832031 -9.585938 L -2.746094 -6.476562 C -0.230469 -2.765625 4.414062 -2.242188 8.769531 -5.199219 Z M 8.769531 -5.199219 "/></g></g></g><g fill="#efdad0" fill-opacity="1"><g transform="translate(228.610907, 201.928561)"><g/></g></g><g fill="#efdad0" fill-opacity="1"><g transform="translate(236.150183, 196.936171)"><g><path d="M 11.210938 -6.027344 C 16.785156 -9.386719 18.484375 -16.011719 15.203125 -21.457031 C 11.925781 -26.898438 5.292969 -28.457031 -0.28125 -25.097656 C -5.859375 -21.734375 -7.578125 -15.144531 -4.296875 -9.703125 C -1.019531 -4.257812 5.632812 -2.664062 11.210938 -6.027344 Z M 8.433594 -10.636719 C 5.625 -8.945312 2.414062 -9.742188 0.644531 -12.679688 C -1.105469 -15.585938 -0.332031 -18.832031 2.472656 -20.519531 C 5.28125 -22.210938 8.511719 -21.382812 10.261719 -18.476562 C 12.035156 -15.539062 11.238281 -12.328125 8.433594 -10.636719 Z M 8.433594 -10.636719 "/></g></g></g><g fill="#efdad0" fill-opacity="1"><g transform="translate(257.503932, 183.942755)"><g><path d="M 13.96875 -31.414062 L 16.289062 -18.363281 L 5.386719 -26.625 L 3.980469 -25.867188 L 5.042969 -12.363281 L -4.578125 -21.445312 L -9.660156 -18.710938 L 6.421875 -3.453125 L 10.476562 -5.632812 L 9.445312 -17.429688 L 18.785156 -10.097656 L 22.839844 -12.277344 L 18.914062 -34.074219 Z M 13.96875 -31.414062 "/></g></g></g><g fill="#efdad0" fill-opacity="1"><g transform="translate(286.394798, 168.511721)"><g><path d="M 4.015625 -25.753906 C 1.445312 -24.53125 -0.324219 -22.347656 -0.960938 -19.972656 L -3.070312 -21.859375 L -6.589844 -20.183594 L 2.464844 -1.175781 L 7.605469 -3.621094 L 2.859375 -13.585938 C 1.398438 -16.648438 2.113281 -19.320312 4.753906 -20.578125 C 6.96875 -21.632812 8.714844 -20.78125 10.089844 -17.894531 L 15.171875 -7.226562 L 20.3125 -9.675781 L 14.828125 -21.1875 C 12.53125 -26.011719 8.34375 -27.816406 4.015625 -25.753906 Z M 4.015625 -25.753906 "/></g></g></g><g fill="#efdad0" fill-opacity="1"><g transform="translate(308.599571, 157.930104)"><g><path d="M 17.160156 -18.808594 C 14.773438 -24.402344 8.726562 -27.25 2.769531 -24.710938 C -2.96875 -22.261719 -5.390625 -16.015625 -2.910156 -10.203125 C -0.433594 -4.394531 5.804688 -1.796875 11.507812 -4.230469 C 16.027344 -6.15625 18.574219 -10.421875 18.167969 -15.253906 L 12.679688 -12.910156 C 12.484375 -11.175781 11.347656 -9.671875 9.519531 -8.890625 C 6.972656 -7.804688 4.621094 -8.542969 3.023438 -10.996094 L 17.695312 -17.253906 C 17.550781 -17.789062 17.371094 -18.304688 17.160156 -18.808594 Z M 4.683594 -20.226562 C 7.050781 -21.234375 9.289062 -20.664062 11.050781 -18.617188 L 1.652344 -14.609375 C 1.285156 -17.164062 2.351562 -19.230469 4.683594 -20.226562 Z M 4.683594 -20.226562 "/></g></g></g><g fill="#efdad0" fill-opacity="1"><g transform="translate(330.849409, 148.512042)"><g><path d="M 4.9375 -24.617188 C 2.390625 -23.628906 0.957031 -22.15625 0.214844 -19.859375 L -1.675781 -21.929688 L -5.058594 -20.621094 L 2.546875 -0.984375 L 7.855469 -3.042969 L 3.910156 -13.222656 C 2.671875 -16.421875 3.316406 -18.21875 6.296875 -19.371094 L 8.625 -20.273438 L 6.679688 -25.292969 Z M 4.9375 -24.617188 "/></g></g></g></svg>