<svg xmlns="http://www.w3.org/2000/svg" xmlns:xlink="http://www.w3.org/1999/xlink" width="30" zoomAndPan="magnify" viewBox="0 0 375 374.999991" height="30" preserveAspectRatio="xMidYMid meet" version="1.0"><defs><clipPath id="8c4c120b81"><path d="M 187.5 0 C 83.945312 0 0 83.945312 0 187.5 C 0 291.054688 83.945312 375 187.5 375 C 291.054688 375 375 291.054688 375 187.5 C 375 83.945312 291.054688 0 187.5 0 " clip-rule="nonzero"/></clipPath><clipPath id="ca1811566d"><path d="M 282.449219 161.324219 L 292 161.324219 L 292 207.074219 L 282.449219 207.074219 Z M 282.449219 161.324219 " clip-rule="nonzero"/></clipPath><clipPath id="30e9e53822"><path d="M 313 161.324219 L 350 161.324219 L 350 207.074219 L 313 207.074219 Z M 313 161.324219 " clip-rule="nonzero"/></clipPath><clipPath id="f6aef68614"><path d="M 18.75 84 L 29 84 L 29 130 L 18.75 130 Z M 18.75 84 " clip-rule="nonzero"/></clipPath><clipPath id="46b45ca766"><path d="M 18.75 160 L 29 160 L 29 207 L 18.75 207 Z M 18.75 160 " clip-rule="nonzero"/></clipPath><clipPath id="18c0d3086b"><path d="M 18.75 236 L 29 236 L 29 283 L 18.75 283 Z M 18.75 236 " clip-rule="nonzero"/></clipPath><clipPath id="2413032e6c"><path d="M 280 274.507812 L 356.25 274.507812 L 356.25 350.902344 L 280 350.902344 Z M 280 274.507812 " clip-rule="nonzero"/></clipPath><clipPath id="7425cb8c73"><path d="M 18.75 7 L 29 7 L 29 53 L 18.75 53 Z M 18.75 7 " clip-rule="nonzero"/></clipPath><clipPath id="35486f29e6"><path d="M 18.75 313.351562 L 29 313.351562 L 29 360 L 18.75 360 Z M 18.75 313.351562 " clip-rule="nonzero"/></clipPath><clipPath id="d291c9c7c9"><path d="M 107 313.351562 L 117 313.351562 L 117 360 L 107 360 Z M 107 313.351562 " clip-rule="nonzero"/></clipPath><clipPath id="5a7b726bd2"><path d="M 195 313.351562 L 205 313.351562 L 205 360 L 195 360 Z M 195 313.351562 " clip-rule="nonzero"/></clipPath><clipPath id="7c73303460"><path d="M 49 313.351562 L 86 313.351562 L 86 360 L 49 360 Z M 49 313.351562 " clip-rule="nonzero"/></clipPath><clipPath id="6f8b7d3662"><path d="M 138 313.351562 L 174 313.351562 L 174 360 L 138 360 Z M 138 313.351562 " clip-rule="nonzero"/></clipPath><clipPath id="1b7825a6a5"><path d="M 226 313.351562 L 263 313.351562 L 263 360 L 226 360 Z M 226 313.351562 " clip-rule="nonzero"/></clipPath><clipPath id="3c038490c3"><path d="M 282.449219 7 L 292 7 L 292 52.695312 L 282.449219 52.695312 Z M 282.449219 7 " clip-rule="nonzero"/></clipPath><clipPath id="1e19bf3a56"><path d="M 313 7 L 350 7 L 350 52.695312 L 313 52.695312 Z M 313 7 " clip-rule="nonzero"/></clipPath><clipPath id="2c60677065"><path d="M 282.449219 84 L 292 84 L 292 129.742188 L 282.449219 129.742188 Z M 282.449219 84 " clip-rule="nonzero"/></clipPath><clipPath id="690f89dda9"><path d="M 313 84 L 350 84 L 350 129.742188 L 313 129.742188 Z M 313 84 " clip-rule="nonzero"/></clipPath></defs><g clip-path="url(#8c4c120b81)"><rect x="-37.5" width="450" fill="#d291af" y="-37.499999" height="449.999989" fill-opacity="1"/></g><g clip-path="url(#ca1811566d)"><path fill="#ec3aab" d="M 287.078125 207.144531 C 284.523438 207.144531 282.449219 205.066406 282.449219 202.503906 L 282.449219 166.0625 C 282.449219 163.5 284.523438 161.425781 287.078125 161.425781 C 289.636719 161.425781 291.710938 163.5 291.710938 166.0625 L 291.710938 202.503906 C 291.710938 205.066406 289.636719 207.144531 287.078125 207.144531 " fill-opacity="1" fill-rule="nonzero"/></g><g clip-path="url(#30e9e53822)"><path fill="#5b6468" d="M 331.085938 170.789062 C 326.410156 170.789062 322.605469 174.597656 322.605469 179.28125 L 322.605469 189.285156 C 322.605469 193.96875 326.410156 197.78125 331.085938 197.78125 L 331.445312 197.78125 C 336.121094 197.78125 339.925781 193.96875 339.925781 189.285156 L 339.925781 179.28125 C 339.925781 174.597656 336.121094 170.789062 331.445312 170.789062 Z M 331.445312 207.058594 L 331.085938 207.058594 C 321.300781 207.058594 313.339844 199.085938 313.339844 189.285156 L 313.339844 179.28125 C 313.339844 169.484375 321.300781 161.511719 331.085938 161.511719 L 331.445312 161.511719 C 341.226562 161.511719 349.1875 169.484375 349.1875 179.28125 L 349.1875 189.285156 C 349.1875 199.085938 341.226562 207.058594 331.445312 207.058594 " fill-opacity="1" fill-rule="nonzero"/></g><g clip-path="url(#f6aef68614)"><path fill="#ec3aab" d="M 23.382812 129.8125 C 20.824219 129.8125 18.75 127.734375 18.75 125.171875 L 18.75 88.730469 C 18.75 86.167969 20.824219 84.089844 23.382812 84.089844 C 25.941406 84.089844 28.015625 86.167969 28.015625 88.730469 L 28.015625 125.171875 C 28.015625 127.734375 25.941406 129.8125 23.382812 129.8125 " fill-opacity="1" fill-rule="nonzero"/></g><path fill="#ec3aab" d="M 111.753906 129.8125 C 109.195312 129.8125 107.121094 127.734375 107.121094 125.171875 L 107.121094 88.730469 C 107.121094 86.167969 109.195312 84.089844 111.753906 84.089844 C 114.308594 84.089844 116.382812 86.167969 116.382812 88.730469 L 116.382812 125.171875 C 116.382812 127.734375 114.308594 129.8125 111.753906 129.8125 " fill-opacity="1" fill-rule="nonzero"/><path fill="#ec3aab" d="M 200.121094 129.8125 C 197.5625 129.8125 195.488281 127.734375 195.488281 125.171875 L 195.488281 88.730469 C 195.488281 86.167969 197.5625 84.089844 200.121094 84.089844 C 202.679688 84.089844 204.753906 86.167969 204.753906 88.730469 L 204.753906 125.171875 C 204.753906 127.734375 202.679688 129.8125 200.121094 129.8125 " fill-opacity="1" fill-rule="nonzero"/><g clip-path="url(#46b45ca766)"><path fill="#ec3aab" d="M 23.382812 206.253906 C 20.824219 206.253906 18.75 204.179688 18.75 201.617188 L 18.75 165.175781 C 18.75 162.613281 20.824219 160.535156 23.382812 160.535156 C 25.941406 160.535156 28.015625 162.613281 28.015625 165.175781 L 28.015625 201.617188 C 28.015625 204.179688 25.941406 206.253906 23.382812 206.253906 " fill-opacity="1" fill-rule="nonzero"/></g><path fill="#ec3aab" d="M 111.753906 206.253906 C 109.195312 206.253906 107.121094 204.179688 107.121094 201.617188 L 107.121094 165.175781 C 107.121094 162.613281 109.195312 160.535156 111.753906 160.535156 C 114.308594 160.535156 116.382812 162.613281 116.382812 165.175781 L 116.382812 201.617188 C 116.382812 204.179688 114.308594 206.253906 111.753906 206.253906 " fill-opacity="1" fill-rule="nonzero"/><path fill="#ec3aab" d="M 200.121094 206.253906 C 197.5625 206.253906 195.488281 204.179688 195.488281 201.617188 L 195.488281 165.175781 C 195.488281 162.613281 197.5625 160.535156 200.121094 160.535156 C 202.679688 160.535156 204.753906 162.613281 204.753906 165.175781 L 204.753906 201.617188 C 204.753906 204.179688 202.679688 206.253906 200.121094 206.253906 " fill-opacity="1" fill-rule="nonzero"/><g clip-path="url(#18c0d3086b)"><path fill="#ec3aab" d="M 23.382812 282.699219 C 20.824219 282.699219 18.75 280.621094 18.75 278.058594 L 18.75 241.621094 C 18.75 239.058594 20.824219 236.980469 23.382812 236.980469 C 25.941406 236.980469 28.015625 239.058594 28.015625 241.621094 L 28.015625 278.058594 C 28.015625 280.621094 25.941406 282.699219 23.382812 282.699219 " fill-opacity="1" fill-rule="nonzero"/></g><path fill="#ec3aab" d="M 111.753906 282.699219 C 109.195312 282.699219 107.121094 280.621094 107.121094 278.058594 L 107.121094 241.621094 C 107.121094 239.058594 109.195312 236.980469 111.753906 236.980469 C 114.308594 236.980469 116.382812 239.058594 116.382812 241.621094 L 116.382812 278.058594 C 116.382812 280.621094 114.308594 282.699219 111.753906 282.699219 " fill-opacity="1" fill-rule="nonzero"/><path fill="#ec3aab" d="M 253.589844 270.902344 L 253.589844 243.34375 L 266.394531 243.34375 C 266.582031 244.753906 266.683594 246.191406 266.683594 247.660156 C 266.683594 254.304688 264.703125 260.507812 261.113281 265.125 C 258.949219 267.902344 256.371094 269.867188 253.589844 270.902344 Z M 236.800781 265.125 C 234.359375 261.984375 232.664062 258.109375 231.828125 253.863281 C 231.804688 253.5625 231.753906 253.277344 231.675781 252.996094 C 231.386719 251.265625 231.230469 249.480469 231.230469 247.660156 C 231.230469 246.191406 231.332031 244.753906 231.519531 243.34375 L 244.324219 243.34375 L 244.324219 270.90625 C 241.542969 269.867188 238.964844 267.902344 236.800781 265.125 Z M 261.113281 230.195312 C 262.039062 231.382812 262.855469 232.683594 263.5625 234.066406 L 234.351562 234.066406 C 235.058594 232.683594 235.875 231.382812 236.800781 230.195312 C 240.128906 225.917969 244.445312 223.566406 248.957031 223.566406 C 253.46875 223.566406 257.785156 225.917969 261.113281 230.195312 Z M 284.894531 250.960938 C 284.027344 250.089844 282.847656 249.601562 281.621094 249.601562 L 275.902344 249.601562 C 275.929688 248.957031 275.945312 248.308594 275.945312 247.660156 C 275.945312 247.121094 275.9375 246.582031 275.917969 246.050781 L 281.671875 246.050781 C 282.898438 246.050781 284.078125 245.558594 284.949219 244.691406 L 290.625 239.003906 C 292.433594 237.191406 292.433594 234.253906 290.625 232.441406 C 288.816406 230.632812 285.882812 230.632812 284.074219 232.441406 L 279.753906 236.769531 L 274.488281 236.769531 C 273.230469 232.21875 271.179688 228.035156 268.421875 224.492188 C 266.441406 221.945312 264.191406 219.847656 261.746094 218.222656 L 264.734375 208.136719 C 265.460938 205.683594 264.0625 203.101562 261.609375 202.371094 C 259.15625 201.644531 256.578125 203.042969 255.851562 205.5 L 253.132812 214.679688 C 251.765625 214.421875 250.371094 214.289062 248.957031 214.289062 C 247.542969 214.289062 246.148438 214.421875 244.777344 214.679688 L 242.0625 205.5 C 241.335938 203.042969 238.753906 201.644531 236.304688 202.371094 C 233.851562 203.101562 232.453125 205.683594 233.179688 208.136719 L 236.164062 218.222656 C 233.722656 219.847656 231.472656 221.945312 229.492188 224.492188 C 226.734375 228.035156 224.683594 232.21875 223.425781 236.769531 L 218.203125 236.769531 L 213.878906 232.441406 C 212.070312 230.632812 209.136719 230.632812 207.328125 232.441406 C 205.519531 234.253906 205.519531 237.191406 207.328125 239.003906 L 213.007812 244.691406 C 213.875 245.558594 215.054688 246.050781 216.285156 246.050781 L 221.996094 246.050781 C 221.976562 246.582031 221.964844 247.121094 221.964844 247.660156 C 221.964844 248.308594 221.984375 248.957031 222.011719 249.601562 L 216.335938 249.601562 C 215.105469 249.601562 213.929688 250.089844 213.058594 250.960938 L 207.382812 256.644531 C 205.570312 258.457031 205.570312 261.394531 207.378906 263.207031 C 208.285156 264.113281 209.472656 264.566406 210.65625 264.566406 C 211.84375 264.566406 213.027344 264.113281 213.933594 263.207031 L 218.253906 258.878906 L 223.519531 258.878906 C 223.863281 260.089844 224.269531 261.277344 224.726562 262.429688 L 221.566406 262.429688 C 220.335938 262.429688 219.160156 262.917969 218.289062 263.789062 L 212.613281 269.476562 C 210.804688 271.289062 210.804688 274.226562 212.613281 276.035156 C 213.515625 276.941406 214.703125 277.394531 215.886719 277.394531 C 217.074219 277.394531 218.257812 276.941406 219.164062 276.035156 L 223.484375 271.707031 L 230.207031 271.707031 C 235.246094 277.726562 241.863281 281.027344 248.949219 281.03125 C 248.953125 281.03125 248.957031 281.03125 248.957031 281.03125 C 248.960938 281.03125 248.960938 281.03125 248.964844 281.03125 C 256.050781 281.027344 262.667969 277.726562 267.707031 271.707031 L 274.46875 271.707031 L 278.792969 276.035156 C 279.695312 276.941406 280.882812 277.394531 282.070312 277.394531 C 283.253906 277.394531 284.441406 276.941406 285.34375 276.035156 C 287.152344 274.226562 287.152344 271.289062 285.34375 269.476562 L 279.664062 263.789062 C 278.796875 262.917969 277.617188 262.429688 276.386719 262.429688 L 273.1875 262.429688 C 273.648438 261.277344 274.046875 260.089844 274.394531 258.878906 L 279.703125 258.878906 L 284.023438 263.207031 C 284.925781 264.113281 286.113281 264.566406 287.300781 264.566406 C 288.484375 264.566406 289.671875 264.113281 290.574219 263.207031 C 292.382812 261.394531 292.382812 258.457031 290.574219 256.644531 L 284.894531 250.960938 " fill-opacity="1" fill-rule="nonzero"/><path fill="#5b6468" d="M 67.386719 93.457031 C 62.710938 93.457031 58.910156 97.265625 58.910156 101.949219 L 58.910156 111.953125 C 58.910156 116.636719 62.710938 120.445312 67.386719 120.445312 L 67.746094 120.445312 C 72.421875 120.445312 76.226562 116.636719 76.226562 111.953125 L 76.226562 101.949219 C 76.226562 97.265625 72.421875 93.457031 67.746094 93.457031 Z M 67.746094 129.722656 L 67.386719 129.722656 C 57.605469 129.722656 49.644531 121.753906 49.644531 111.953125 L 49.644531 101.949219 C 49.644531 92.148438 57.605469 84.179688 67.386719 84.179688 L 67.746094 84.179688 C 77.53125 84.179688 85.492188 92.148438 85.492188 101.949219 L 85.492188 111.953125 C 85.492188 121.753906 77.53125 129.722656 67.746094 129.722656 " fill-opacity="1" fill-rule="nonzero"/><path fill="#5b6468" d="M 155.757812 93.457031 C 151.082031 93.457031 147.277344 97.265625 147.277344 101.949219 L 147.277344 111.953125 C 147.277344 116.636719 151.082031 120.445312 155.757812 120.445312 L 156.117188 120.445312 C 160.792969 120.445312 164.597656 116.636719 164.597656 111.953125 L 164.597656 101.949219 C 164.597656 97.265625 160.792969 93.457031 156.117188 93.457031 Z M 156.117188 129.722656 L 155.757812 129.722656 C 145.972656 129.722656 138.011719 121.753906 138.011719 111.953125 L 138.011719 101.949219 C 138.011719 92.148438 145.972656 84.179688 155.757812 84.179688 L 156.117188 84.179688 C 165.902344 84.179688 173.863281 92.148438 173.863281 101.949219 L 173.863281 111.953125 C 173.863281 121.753906 165.902344 129.722656 156.117188 129.722656 " fill-opacity="1" fill-rule="nonzero"/><path fill="#5b6468" d="M 244.128906 93.457031 C 239.449219 93.457031 235.648438 97.265625 235.648438 101.949219 L 235.648438 111.953125 C 235.648438 116.636719 239.449219 120.445312 244.128906 120.445312 L 244.484375 120.445312 C 249.160156 120.445312 252.964844 116.636719 252.964844 111.953125 L 252.964844 101.949219 C 252.964844 97.265625 249.160156 93.457031 244.484375 93.457031 Z M 244.484375 129.722656 L 244.128906 129.722656 C 234.34375 129.722656 226.382812 121.753906 226.382812 111.953125 L 226.382812 101.949219 C 226.382812 92.148438 234.34375 84.179688 244.128906 84.179688 L 244.484375 84.179688 C 254.269531 84.179688 262.230469 92.148438 262.230469 101.949219 L 262.230469 111.953125 C 262.230469 121.753906 254.269531 129.722656 244.484375 129.722656 " fill-opacity="1" fill-rule="nonzero"/><path fill="#5b6468" d="M 67.386719 169.898438 C 62.710938 169.898438 58.910156 173.710938 58.910156 178.394531 L 58.910156 188.398438 C 58.910156 193.082031 62.710938 196.890625 67.386719 196.890625 L 67.746094 196.890625 C 72.421875 196.890625 76.226562 193.082031 76.226562 188.398438 L 76.226562 178.394531 C 76.226562 173.710938 72.421875 169.898438 67.746094 169.898438 Z M 67.746094 206.167969 L 67.386719 206.167969 C 57.605469 206.167969 49.644531 198.195312 49.644531 188.398438 L 49.644531 178.394531 C 49.644531 168.59375 57.605469 160.621094 67.386719 160.621094 L 67.746094 160.621094 C 77.53125 160.621094 85.492188 168.59375 85.492188 178.394531 L 85.492188 188.398438 C 85.492188 198.195312 77.53125 206.167969 67.746094 206.167969 " fill-opacity="1" fill-rule="nonzero"/><path fill="#5b6468" d="M 155.757812 169.898438 C 151.082031 169.898438 147.277344 173.710938 147.277344 178.394531 L 147.277344 188.398438 C 147.277344 193.082031 151.082031 196.890625 155.757812 196.890625 L 156.117188 196.890625 C 160.792969 196.890625 164.597656 193.082031 164.597656 188.398438 L 164.597656 178.394531 C 164.597656 173.710938 160.792969 169.898438 156.117188 169.898438 Z M 156.117188 206.167969 L 155.757812 206.167969 C 145.972656 206.167969 138.011719 198.195312 138.011719 188.398438 L 138.011719 178.394531 C 138.011719 168.59375 145.972656 160.621094 155.757812 160.621094 L 156.117188 160.621094 C 165.902344 160.621094 173.863281 168.59375 173.863281 178.394531 L 173.863281 188.398438 C 173.863281 198.195312 165.902344 206.167969 156.117188 206.167969 " fill-opacity="1" fill-rule="nonzero"/><path fill="#5b6468" d="M 231.011719 188.410156 C 228.457031 188.410156 226.382812 186.335938 226.382812 183.773438 L 226.382812 178.574219 C 226.382812 168.675781 234.421875 160.625 244.304688 160.625 C 249.09375 160.625 253.597656 162.488281 256.984375 165.878906 C 260.367188 169.269531 262.230469 173.777344 262.230469 178.574219 L 262.230469 181.730469 C 262.230469 184.292969 260.15625 186.371094 257.597656 186.371094 C 255.042969 186.371094 252.964844 184.292969 252.964844 181.730469 L 252.964844 178.574219 C 252.964844 176.253906 252.066406 174.078125 250.429688 172.441406 C 248.796875 170.804688 246.621094 169.902344 244.304688 169.902344 C 239.53125 169.902344 235.644531 173.792969 235.644531 178.574219 L 235.644531 183.773438 C 235.644531 186.335938 233.570312 188.410156 231.011719 188.410156 " fill-opacity="1" fill-rule="nonzero"/><path fill="#5b6468" d="M 67.386719 246.34375 C 62.710938 246.34375 58.910156 250.15625 58.910156 254.835938 L 58.910156 264.84375 C 58.910156 269.527344 62.710938 273.335938 67.386719 273.335938 L 67.746094 273.335938 C 72.421875 273.335938 76.226562 269.527344 76.226562 264.84375 L 76.226562 254.835938 C 76.226562 250.15625 72.421875 246.34375 67.746094 246.34375 Z M 67.746094 282.613281 L 67.386719 282.613281 C 57.605469 282.613281 49.644531 274.640625 49.644531 264.84375 L 49.644531 254.835938 C 49.644531 245.039062 57.605469 237.066406 67.386719 237.066406 L 67.746094 237.066406 C 77.53125 237.066406 85.492188 245.039062 85.492188 254.835938 L 85.492188 264.84375 C 85.492188 274.640625 77.53125 282.613281 67.746094 282.613281 " fill-opacity="1" fill-rule="nonzero"/><path fill="#5b6468" d="M 155.757812 246.34375 C 151.082031 246.34375 147.277344 250.15625 147.277344 254.835938 L 147.277344 264.84375 C 147.277344 269.527344 151.082031 273.335938 155.757812 273.335938 L 156.117188 273.335938 C 160.792969 273.335938 164.597656 269.527344 164.597656 264.84375 L 164.597656 254.835938 C 164.597656 250.15625 160.792969 246.34375 156.117188 246.34375 Z M 156.117188 282.613281 L 155.757812 282.613281 C 145.972656 282.613281 138.011719 274.640625 138.011719 264.84375 L 138.011719 254.835938 C 138.011719 245.039062 145.972656 237.066406 155.757812 237.066406 L 156.117188 237.066406 C 165.902344 237.066406 173.863281 245.039062 173.863281 254.835938 L 173.863281 264.84375 C 173.863281 274.640625 165.902344 282.613281 156.117188 282.613281 " fill-opacity="1" fill-rule="nonzero"/><path fill="#5b6468" d="M 248.976562 185.773438 C 233.582031 185.773438 219.113281 191.773438 208.226562 202.675781 C 185.757812 225.179688 185.757812 261.792969 208.226562 284.292969 C 230.695312 306.796875 267.257812 306.796875 289.730469 284.292969 C 312.199219 261.792969 312.199219 225.179688 289.730469 202.675781 C 278.84375 191.773438 264.371094 185.773438 248.976562 185.773438 Z M 248.976562 310.476562 C 231.109375 310.476562 214.308594 303.507812 201.675781 290.851562 C 189.039062 278.199219 182.082031 261.378906 182.082031 243.484375 C 182.082031 225.589844 189.039062 208.769531 201.675781 196.117188 C 214.308594 183.464844 231.109375 176.496094 248.976562 176.496094 C 266.84375 176.496094 283.644531 183.464844 296.28125 196.117188 C 308.914062 208.769531 315.875 225.589844 315.875 243.484375 C 315.875 261.378906 308.914062 278.199219 296.28125 290.851562 C 283.644531 303.507812 266.84375 310.476562 248.976562 310.476562 " fill-opacity="1" fill-rule="nonzero"/><g clip-path="url(#2413032e6c)"><path fill="#5b6468" d="M 340.808594 350.902344 C 336.855469 350.902344 332.902344 349.394531 329.890625 346.378906 L 281.425781 297.84375 C 279.617188 296.035156 279.617188 293.097656 281.425781 291.285156 C 283.234375 289.472656 286.167969 289.472656 287.976562 291.285156 L 336.445312 339.820312 C 338.851562 342.230469 342.765625 342.230469 345.175781 339.820312 C 346.34375 338.652344 346.984375 337.097656 346.984375 335.445312 C 346.984375 333.796875 346.34375 332.242188 345.175781 331.074219 L 296.710938 282.539062 C 294.902344 280.726562 294.902344 277.789062 296.710938 275.976562 C 298.519531 274.167969 301.449219 274.167969 303.261719 275.976562 L 351.726562 324.511719 C 354.644531 327.433594 356.25 331.316406 356.25 335.445312 C 356.25 339.578125 354.644531 343.460938 351.726562 346.378906 C 348.71875 349.394531 344.765625 350.902344 340.808594 350.902344 " fill-opacity="1" fill-rule="nonzero"/></g><g clip-path="url(#7425cb8c73)"><path fill="#ec3aab" d="M 23.382812 52.761719 C 20.824219 52.761719 18.75 50.6875 18.75 48.125 L 18.75 11.683594 C 18.75 9.121094 20.824219 7.042969 23.382812 7.042969 C 25.941406 7.042969 28.015625 9.121094 28.015625 11.683594 L 28.015625 48.125 C 28.015625 50.6875 25.941406 52.761719 23.382812 52.761719 " fill-opacity="1" fill-rule="nonzero"/></g><path fill="#ec3aab" d="M 111.753906 52.761719 C 109.195312 52.761719 107.121094 50.6875 107.121094 48.125 L 107.121094 11.683594 C 107.121094 9.121094 109.195312 7.042969 111.753906 7.042969 C 114.308594 7.042969 116.382812 9.121094 116.382812 11.683594 L 116.382812 48.125 C 116.382812 50.6875 114.308594 52.761719 111.753906 52.761719 " fill-opacity="1" fill-rule="nonzero"/><path fill="#ec3aab" d="M 200.121094 52.761719 C 197.5625 52.761719 195.488281 50.6875 195.488281 48.125 L 195.488281 11.683594 C 195.488281 9.121094 197.5625 7.042969 200.121094 7.042969 C 202.679688 7.042969 204.753906 9.121094 204.753906 11.683594 L 204.753906 48.125 C 204.753906 50.6875 202.679688 52.761719 200.121094 52.761719 " fill-opacity="1" fill-rule="nonzero"/><path fill="#5b6468" d="M 67.386719 16.40625 C 62.710938 16.40625 58.910156 20.21875 58.910156 24.902344 L 58.910156 34.90625 C 58.910156 39.589844 62.710938 43.398438 67.386719 43.398438 L 67.746094 43.398438 C 72.421875 43.398438 76.226562 39.589844 76.226562 34.90625 L 76.226562 24.902344 C 76.226562 20.21875 72.421875 16.40625 67.746094 16.40625 Z M 67.746094 52.675781 L 67.386719 52.675781 C 57.605469 52.675781 49.644531 44.703125 49.644531 34.90625 L 49.644531 24.902344 C 49.644531 15.101562 57.605469 7.128906 67.386719 7.128906 L 67.746094 7.128906 C 77.53125 7.128906 85.492188 15.101562 85.492188 24.902344 L 85.492188 34.90625 C 85.492188 44.703125 77.53125 52.675781 67.746094 52.675781 " fill-opacity="1" fill-rule="nonzero"/><path fill="#5b6468" d="M 155.757812 16.40625 C 151.082031 16.40625 147.277344 20.21875 147.277344 24.902344 L 147.277344 34.90625 C 147.277344 39.589844 151.082031 43.398438 155.757812 43.398438 L 156.117188 43.398438 C 160.792969 43.398438 164.597656 39.589844 164.597656 34.90625 L 164.597656 24.902344 C 164.597656 20.21875 160.792969 16.40625 156.117188 16.40625 Z M 156.117188 52.675781 L 155.757812 52.675781 C 145.972656 52.675781 138.011719 44.703125 138.011719 34.90625 L 138.011719 24.902344 C 138.011719 15.101562 145.972656 7.128906 155.757812 7.128906 L 156.117188 7.128906 C 165.902344 7.128906 173.863281 15.101562 173.863281 24.902344 L 173.863281 34.90625 C 173.863281 44.703125 165.902344 52.675781 156.117188 52.675781 " fill-opacity="1" fill-rule="nonzero"/><path fill="#5b6468" d="M 244.128906 16.40625 C 239.449219 16.40625 235.648438 20.21875 235.648438 24.902344 L 235.648438 34.90625 C 235.648438 39.589844 239.449219 43.398438 244.128906 43.398438 L 244.484375 43.398438 C 249.160156 43.398438 252.964844 39.589844 252.964844 34.90625 L 252.964844 24.902344 C 252.964844 20.21875 249.160156 16.40625 244.484375 16.40625 Z M 244.484375 52.675781 L 244.128906 52.675781 C 234.34375 52.675781 226.382812 44.703125 226.382812 34.90625 L 226.382812 24.902344 C 226.382812 15.101562 234.34375 7.128906 244.128906 7.128906 L 244.484375 7.128906 C 254.269531 7.128906 262.230469 15.101562 262.230469 24.902344 L 262.230469 34.90625 C 262.230469 44.703125 254.269531 52.675781 244.484375 52.675781 " fill-opacity="1" fill-rule="nonzero"/><g clip-path="url(#35486f29e6)"><path fill="#ec3aab" d="M 23.382812 359.167969 C 20.824219 359.167969 18.75 357.09375 18.75 354.53125 L 18.75 318.089844 C 18.75 315.527344 20.824219 313.449219 23.382812 313.449219 C 25.941406 313.449219 28.015625 315.527344 28.015625 318.089844 L 28.015625 354.53125 C 28.015625 357.09375 25.941406 359.167969 23.382812 359.167969 " fill-opacity="1" fill-rule="nonzero"/></g><g clip-path="url(#d291c9c7c9)"><path fill="#ec3aab" d="M 111.753906 359.167969 C 109.195312 359.167969 107.121094 357.09375 107.121094 354.53125 L 107.121094 318.089844 C 107.121094 315.527344 109.195312 313.449219 111.753906 313.449219 C 114.308594 313.449219 116.382812 315.527344 116.382812 318.089844 L 116.382812 354.53125 C 116.382812 357.09375 114.308594 359.167969 111.753906 359.167969 " fill-opacity="1" fill-rule="nonzero"/></g><g clip-path="url(#5a7b726bd2)"><path fill="#ec3aab" d="M 200.121094 359.167969 C 197.5625 359.167969 195.488281 357.09375 195.488281 354.53125 L 195.488281 318.089844 C 195.488281 315.527344 197.5625 313.449219 200.121094 313.449219 C 202.679688 313.449219 204.753906 315.527344 204.753906 318.089844 L 204.753906 354.53125 C 204.753906 357.09375 202.679688 359.167969 200.121094 359.167969 " fill-opacity="1" fill-rule="nonzero"/></g><g clip-path="url(#7c73303460)"><path fill="#5b6468" d="M 67.386719 322.816406 C 62.710938 322.816406 58.910156 326.625 58.910156 331.308594 L 58.910156 341.3125 C 58.910156 345.996094 62.710938 349.804688 67.386719 349.804688 L 67.746094 349.804688 C 72.421875 349.804688 76.226562 345.996094 76.226562 341.3125 L 76.226562 331.308594 C 76.226562 326.625 72.421875 322.816406 67.746094 322.816406 Z M 67.746094 359.082031 L 67.386719 359.082031 C 57.605469 359.082031 49.644531 351.109375 49.644531 341.3125 L 49.644531 331.308594 C 49.644531 321.507812 57.605469 313.535156 67.386719 313.535156 L 67.746094 313.535156 C 77.53125 313.535156 85.492188 321.507812 85.492188 331.308594 L 85.492188 341.3125 C 85.492188 351.109375 77.53125 359.082031 67.746094 359.082031 " fill-opacity="1" fill-rule="nonzero"/></g><g clip-path="url(#6f8b7d3662)"><path fill="#5b6468" d="M 155.757812 322.816406 C 151.082031 322.816406 147.277344 326.625 147.277344 331.308594 L 147.277344 341.3125 C 147.277344 345.996094 151.082031 349.804688 155.757812 349.804688 L 156.117188 349.804688 C 160.792969 349.804688 164.597656 345.996094 164.597656 341.3125 L 164.597656 331.308594 C 164.597656 326.625 160.792969 322.816406 156.117188 322.816406 Z M 156.117188 359.082031 L 155.757812 359.082031 C 145.972656 359.082031 138.011719 351.109375 138.011719 341.3125 L 138.011719 331.308594 C 138.011719 321.507812 145.972656 313.535156 155.757812 313.535156 L 156.117188 313.535156 C 165.902344 313.535156 173.863281 321.507812 173.863281 331.308594 L 173.863281 341.3125 C 173.863281 351.109375 165.902344 359.082031 156.117188 359.082031 " fill-opacity="1" fill-rule="nonzero"/></g><g clip-path="url(#1b7825a6a5)"><path fill="#5b6468" d="M 244.128906 322.816406 C 239.449219 322.816406 235.648438 326.625 235.648438 331.308594 L 235.648438 341.3125 C 235.648438 345.996094 239.449219 349.804688 244.128906 349.804688 L 244.484375 349.804688 C 249.160156 349.804688 252.964844 345.996094 252.964844 341.3125 L 252.964844 331.308594 C 252.964844 326.625 249.160156 322.816406 244.484375 322.816406 Z M 244.484375 359.082031 L 244.128906 359.082031 C 234.34375 359.082031 226.382812 351.109375 226.382812 341.3125 L 226.382812 331.308594 C 226.382812 321.507812 234.34375 313.535156 244.128906 313.535156 L 244.484375 313.535156 C 254.269531 313.535156 262.230469 321.507812 262.230469 331.308594 L 262.230469 341.3125 C 262.230469 351.109375 254.269531 359.082031 244.484375 359.082031 " fill-opacity="1" fill-rule="nonzero"/></g><g clip-path="url(#3c038490c3)"><path fill="#ec3aab" d="M 287.078125 52.761719 C 284.523438 52.761719 282.449219 50.6875 282.449219 48.125 L 282.449219 11.683594 C 282.449219 9.121094 284.523438 7.042969 287.078125 7.042969 C 289.636719 7.042969 291.710938 9.121094 291.710938 11.683594 L 291.710938 48.125 C 291.710938 50.6875 289.636719 52.761719 287.078125 52.761719 " fill-opacity="1" fill-rule="nonzero"/></g><g clip-path="url(#1e19bf3a56)"><path fill="#5b6468" d="M 331.085938 16.40625 C 326.410156 16.40625 322.605469 20.21875 322.605469 24.902344 L 322.605469 34.90625 C 322.605469 39.589844 326.410156 43.398438 331.085938 43.398438 L 331.445312 43.398438 C 336.121094 43.398438 339.925781 39.589844 339.925781 34.90625 L 339.925781 24.902344 C 339.925781 20.21875 336.121094 16.40625 331.445312 16.40625 Z M 331.445312 52.675781 L 331.085938 52.675781 C 321.300781 52.675781 313.339844 44.703125 313.339844 34.90625 L 313.339844 24.902344 C 313.339844 15.101562 321.300781 7.128906 331.085938 7.128906 L 331.445312 7.128906 C 341.226562 7.128906 349.1875 15.101562 349.1875 24.902344 L 349.1875 34.90625 C 349.1875 44.703125 341.226562 52.675781 331.445312 52.675781 " fill-opacity="1" fill-rule="nonzero"/></g><g clip-path="url(#2c60677065)"><path fill="#ec3aab" d="M 287.078125 129.8125 C 284.523438 129.8125 282.449219 127.734375 282.449219 125.171875 L 282.449219 88.730469 C 282.449219 86.167969 284.523438 84.089844 287.078125 84.089844 C 289.636719 84.089844 291.710938 86.167969 291.710938 88.730469 L 291.710938 125.171875 C 291.710938 127.734375 289.636719 129.8125 287.078125 129.8125 " fill-opacity="1" fill-rule="nonzero"/></g><g clip-path="url(#690f89dda9)"><path fill="#5b6468" d="M 331.085938 93.457031 C 326.410156 93.457031 322.605469 97.265625 322.605469 101.949219 L 322.605469 111.953125 C 322.605469 116.636719 326.410156 120.445312 331.085938 120.445312 L 331.445312 120.445312 C 336.121094 120.445312 339.925781 116.636719 339.925781 111.953125 L 339.925781 101.949219 C 339.925781 97.265625 336.121094 93.457031 331.445312 93.457031 Z M 331.445312 129.722656 L 331.085938 129.722656 C 321.300781 129.722656 313.339844 121.753906 313.339844 111.953125 L 313.339844 101.949219 C 313.339844 92.148438 321.300781 84.179688 331.085938 84.179688 L 331.445312 84.179688 C 341.226562 84.179688 349.1875 92.148438 349.1875 101.949219 L 349.1875 111.953125 C 349.1875 121.753906 341.226562 129.722656 331.445312 129.722656 " fill-opacity="1" fill-rule="nonzero"/></g></svg>