<svg xmlns="http://www.w3.org/2000/svg" xmlns:xlink="http://www.w3.org/1999/xlink" width="500" zoomAndPan="magnify" viewBox="0 0 375 299.999988" height="400" preserveAspectRatio="xMidYMid meet" version="1.0"><defs><clipPath id="0a10770244"><path d="M 0 1.875 L 11 1.875 L 11 53 L 0 53 Z M 0 1.875 " clip-rule="nonzero"/></clipPath><clipPath id="35c5bd547b"><path d="M 98 1.875 L 109 1.875 L 109 53 L 98 53 Z M 98 1.875 " clip-rule="nonzero"/></clipPath><clipPath id="8236abc23c"><path d="M 196 1.875 L 207 1.875 L 207 53 L 196 53 Z M 196 1.875 " clip-rule="nonzero"/></clipPath><clipPath id="58383028c5"><path d="M 290.195312 213.261719 L 375 213.261719 L 375 298.023438 L 290.195312 298.023438 Z M 290.195312 213.261719 " clip-rule="nonzero"/></clipPath></defs><g clip-path="url(#0a10770244)"><path fill="#ec3aab" d="M 5.148438 52.714844 C 2.304688 52.714844 0 50.410156 0 47.566406 L 0 7.132812 C 0 4.289062 2.304688 1.984375 5.148438 1.984375 C 7.988281 1.984375 10.292969 4.289062 10.292969 7.132812 L 10.292969 47.566406 C 10.292969 50.410156 7.988281 52.714844 5.148438 52.714844 " fill-opacity="1" fill-rule="nonzero"/></g><g clip-path="url(#35c5bd547b)"><path fill="#ec3aab" d="M 103.335938 52.714844 C 100.492188 52.714844 98.1875 50.410156 98.1875 47.566406 L 98.1875 7.132812 C 98.1875 4.289062 100.492188 1.984375 103.335938 1.984375 C 106.179688 1.984375 108.484375 4.289062 108.484375 7.132812 L 108.484375 47.566406 C 108.484375 50.410156 106.179688 52.714844 103.335938 52.714844 " fill-opacity="1" fill-rule="nonzero"/></g><g clip-path="url(#8236abc23c)"><path fill="#ec3aab" d="M 201.523438 52.714844 C 198.683594 52.714844 196.378906 50.410156 196.378906 47.566406 L 196.378906 7.132812 C 196.378906 4.289062 198.683594 1.984375 201.523438 1.984375 C 204.367188 1.984375 206.671875 4.289062 206.671875 7.132812 L 206.671875 47.566406 C 206.671875 50.410156 204.367188 52.714844 201.523438 52.714844 " fill-opacity="1" fill-rule="nonzero"/></g><path fill="#ec3aab" d="M 5.148438 137.53125 C 2.304688 137.53125 0 135.226562 0 132.386719 L 0 91.953125 C 0 89.109375 2.304688 86.804688 5.148438 86.804688 C 7.988281 86.804688 10.292969 89.109375 10.292969 91.953125 L 10.292969 132.386719 C 10.292969 135.226562 7.988281 137.53125 5.148438 137.53125 " fill-opacity="1" fill-rule="nonzero"/><path fill="#ec3aab" d="M 103.335938 137.53125 C 100.492188 137.53125 98.1875 135.226562 98.1875 132.386719 L 98.1875 91.953125 C 98.1875 89.109375 100.492188 86.804688 103.335938 86.804688 C 106.179688 86.804688 108.484375 89.109375 108.484375 91.953125 L 108.484375 132.386719 C 108.484375 135.226562 106.179688 137.53125 103.335938 137.53125 " fill-opacity="1" fill-rule="nonzero"/><path fill="#ec3aab" d="M 201.523438 137.53125 C 198.683594 137.53125 196.378906 135.226562 196.378906 132.386719 L 196.378906 91.953125 C 196.378906 89.109375 198.683594 86.804688 201.523438 86.804688 C 204.367188 86.804688 206.671875 89.109375 206.671875 91.953125 L 206.671875 132.386719 C 206.671875 135.226562 204.367188 137.53125 201.523438 137.53125 " fill-opacity="1" fill-rule="nonzero"/><path fill="#ec3aab" d="M 5.148438 222.351562 C 2.304688 222.351562 0 220.046875 0 217.203125 L 0 176.769531 C 0 173.929688 2.304688 171.625 5.148438 171.625 C 7.988281 171.625 10.292969 173.929688 10.292969 176.769531 L 10.292969 217.203125 C 10.292969 220.046875 7.988281 222.351562 5.148438 222.351562 " fill-opacity="1" fill-rule="nonzero"/><path fill="#ec3aab" d="M 103.335938 222.351562 C 100.492188 222.351562 98.1875 220.046875 98.1875 217.203125 L 98.1875 176.769531 C 98.1875 173.929688 100.492188 171.625 103.335938 171.625 C 106.179688 171.625 108.484375 173.929688 108.484375 176.769531 L 108.484375 217.203125 C 108.484375 220.046875 106.179688 222.351562 103.335938 222.351562 " fill-opacity="1" fill-rule="nonzero"/><path fill="#ec3aab" d="M 260.933594 209.261719 L 260.933594 178.683594 L 275.160156 178.683594 C 275.367188 180.246094 275.480469 181.84375 275.480469 183.472656 C 275.480469 190.847656 273.28125 197.726562 269.292969 202.851562 C 266.890625 205.933594 264.023438 208.113281 260.933594 209.261719 Z M 242.28125 202.851562 C 239.566406 199.367188 237.683594 195.066406 236.753906 190.355469 C 236.726562 190.023438 236.667969 189.703125 236.582031 189.394531 C 236.261719 187.472656 236.089844 185.492188 236.089844 183.472656 C 236.089844 181.84375 236.203125 180.246094 236.414062 178.683594 L 250.640625 178.683594 L 250.640625 209.261719 C 247.550781 208.113281 244.679688 205.933594 242.28125 202.851562 Z M 269.292969 164.09375 C 270.320312 165.414062 271.226562 166.855469 272.011719 168.386719 L 239.558594 168.386719 C 240.339844 166.855469 241.25 165.414062 242.28125 164.09375 C 245.976562 159.351562 250.773438 156.738281 255.785156 156.738281 C 260.796875 156.738281 265.59375 159.351562 269.292969 164.09375 Z M 295.714844 187.132812 C 294.753906 186.167969 293.445312 185.625 292.078125 185.625 L 285.722656 185.625 C 285.753906 184.910156 285.773438 184.191406 285.773438 183.472656 C 285.773438 182.875 285.761719 182.277344 285.742188 181.683594 L 292.136719 181.683594 C 293.5 181.683594 294.808594 181.140625 295.773438 180.175781 L 302.082031 173.867188 C 304.09375 171.855469 304.09375 168.597656 302.082031 166.589844 C 300.074219 164.578125 296.8125 164.578125 294.804688 166.589844 L 290.003906 171.390625 L 284.15625 171.390625 C 282.753906 166.339844 280.476562 161.699219 277.410156 157.765625 C 275.210938 154.941406 272.714844 152.613281 269.996094 150.8125 L 273.316406 139.621094 C 274.125 136.894531 272.566406 134.03125 269.84375 133.222656 C 267.117188 132.414062 264.253906 133.96875 263.445312 136.695312 L 260.425781 146.878906 C 258.90625 146.589844 257.359375 146.445312 255.785156 146.445312 C 254.214844 146.445312 252.664062 146.589844 251.140625 146.878906 L 248.125 136.695312 C 247.316406 133.96875 244.449219 132.414062 241.726562 133.222656 C 239 134.03125 237.445312 136.894531 238.253906 139.621094 L 241.574219 150.8125 C 238.859375 152.613281 236.359375 154.941406 234.160156 157.765625 C 231.09375 161.699219 228.8125 166.339844 227.414062 171.390625 L 221.613281 171.390625 L 216.8125 166.589844 C 214.800781 164.578125 211.542969 164.578125 209.53125 166.589844 C 207.523438 168.597656 207.523438 171.855469 209.53125 173.867188 L 215.84375 180.175781 C 216.808594 181.140625 218.117188 181.683594 219.480469 181.683594 L 225.832031 181.683594 C 225.808594 182.277344 225.796875 182.875 225.796875 183.472656 C 225.796875 184.191406 225.816406 184.910156 225.847656 185.625 L 219.539062 185.625 C 218.171875 185.625 216.863281 186.167969 215.898438 187.132812 L 209.589844 193.441406 C 207.578125 195.453125 207.578125 198.710938 209.589844 200.722656 C 210.59375 201.726562 211.914062 202.230469 213.230469 202.230469 C 214.546875 202.230469 215.863281 201.726562 216.867188 200.722656 L 221.671875 195.921875 L 227.519531 195.921875 C 227.90625 197.265625 228.355469 198.582031 228.863281 199.859375 L 225.351562 199.859375 C 223.984375 199.859375 222.675781 200.402344 221.710938 201.367188 L 215.402344 207.679688 C 213.390625 209.6875 213.390625 212.949219 215.402344 214.957031 C 216.40625 215.960938 217.722656 216.464844 219.042969 216.464844 C 220.359375 216.464844 221.675781 215.960938 222.679688 214.957031 L 227.484375 210.15625 L 234.953125 210.15625 C 240.550781 216.832031 247.902344 220.496094 255.777344 220.496094 C 255.78125 220.496094 255.785156 220.496094 255.785156 220.496094 C 255.789062 220.496094 255.792969 220.496094 255.792969 220.496094 C 263.667969 220.496094 271.019531 216.832031 276.617188 210.15625 L 284.132812 210.15625 L 288.9375 214.957031 C 289.941406 215.960938 291.257812 216.464844 292.578125 216.464844 C 293.890625 216.464844 295.210938 215.960938 296.214844 214.957031 C 298.226562 212.949219 298.226562 209.6875 296.214844 207.679688 L 289.902344 201.367188 C 288.9375 200.402344 287.628906 199.859375 286.265625 199.859375 L 282.707031 199.859375 C 283.21875 198.582031 283.664062 197.265625 284.050781 195.921875 L 289.945312 195.921875 L 294.746094 200.722656 C 295.753906 201.726562 297.070312 202.230469 298.386719 202.230469 C 299.703125 202.230469 301.023438 201.726562 302.027344 200.722656 C 304.035156 198.710938 304.035156 195.453125 302.027344 193.441406 L 295.714844 187.132812 " fill-opacity="1" fill-rule="nonzero"/><path fill="#d291af" d="M 54.042969 12.375 C 48.847656 12.375 44.621094 16.601562 44.621094 21.800781 L 44.621094 32.898438 C 44.621094 38.09375 48.847656 42.324219 54.042969 42.324219 L 54.441406 42.324219 C 59.636719 42.324219 63.863281 38.09375 63.863281 32.898438 L 63.863281 21.800781 C 63.863281 16.601562 59.636719 12.375 54.441406 12.375 Z M 54.441406 52.617188 L 54.042969 52.617188 C 43.171875 52.617188 34.328125 43.773438 34.328125 32.898438 L 34.328125 21.800781 C 34.328125 10.925781 43.171875 2.082031 54.042969 2.082031 L 54.441406 2.082031 C 65.3125 2.082031 74.15625 10.925781 74.15625 21.800781 L 74.15625 32.898438 C 74.15625 43.773438 65.3125 52.617188 54.441406 52.617188 " fill-opacity="1" fill-rule="nonzero"/><path fill="#d291af" d="M 152.230469 12.375 C 147.035156 12.375 142.808594 16.601562 142.808594 21.800781 L 142.808594 32.898438 C 142.808594 38.09375 147.035156 42.324219 152.230469 42.324219 L 152.628906 42.324219 C 157.824219 42.324219 162.050781 38.09375 162.050781 32.898438 L 162.050781 21.800781 C 162.050781 16.601562 157.824219 12.375 152.628906 12.375 Z M 152.628906 52.617188 L 152.230469 52.617188 C 141.359375 52.617188 132.515625 43.773438 132.515625 32.898438 L 132.515625 21.800781 C 132.515625 10.925781 141.359375 2.082031 152.230469 2.082031 L 152.628906 2.082031 C 163.5 2.082031 172.347656 10.925781 172.347656 21.800781 L 172.347656 32.898438 C 172.347656 43.773438 163.5 52.617188 152.628906 52.617188 " fill-opacity="1" fill-rule="nonzero"/><path fill="#d291af" d="M 250.417969 12.375 C 245.222656 12.375 240.996094 16.601562 240.996094 21.800781 L 240.996094 32.898438 C 240.996094 38.09375 245.222656 42.324219 250.417969 42.324219 L 250.816406 42.324219 C 256.011719 42.324219 260.242188 38.09375 260.242188 32.898438 L 260.242188 21.800781 C 260.242188 16.601562 256.011719 12.375 250.816406 12.375 Z M 250.816406 52.617188 L 250.417969 52.617188 C 239.546875 52.617188 230.703125 43.773438 230.703125 32.898438 L 230.703125 21.800781 C 230.703125 10.925781 239.546875 2.082031 250.417969 2.082031 L 250.816406 2.082031 C 261.6875 2.082031 270.535156 10.925781 270.535156 21.800781 L 270.535156 32.898438 C 270.535156 43.773438 261.6875 52.617188 250.816406 52.617188 " fill-opacity="1" fill-rule="nonzero"/><path fill="#d291af" d="M 54.042969 97.195312 C 48.847656 97.195312 44.621094 101.421875 44.621094 106.617188 L 44.621094 117.71875 C 44.621094 122.914062 48.847656 127.140625 54.042969 127.140625 L 54.441406 127.140625 C 59.636719 127.140625 63.863281 122.914062 63.863281 117.71875 L 63.863281 106.617188 C 63.863281 101.421875 59.636719 97.195312 54.441406 97.195312 Z M 54.441406 137.433594 L 54.042969 137.433594 C 43.171875 137.433594 34.328125 128.589844 34.328125 117.71875 L 34.328125 106.617188 C 34.328125 95.746094 43.171875 86.898438 54.042969 86.898438 L 54.441406 86.898438 C 65.3125 86.898438 74.15625 95.746094 74.15625 106.617188 L 74.15625 117.71875 C 74.15625 128.589844 65.3125 137.433594 54.441406 137.433594 " fill-opacity="1" fill-rule="nonzero"/><path fill="#d291af" d="M 152.230469 97.195312 C 147.035156 97.195312 142.808594 101.421875 142.808594 106.617188 L 142.808594 117.71875 C 142.808594 122.914062 147.035156 127.140625 152.230469 127.140625 L 152.628906 127.140625 C 157.824219 127.140625 162.050781 122.914062 162.050781 117.71875 L 162.050781 106.617188 C 162.050781 101.421875 157.824219 97.195312 152.628906 97.195312 Z M 152.628906 137.433594 L 152.230469 137.433594 C 141.359375 137.433594 132.515625 128.589844 132.515625 117.71875 L 132.515625 106.617188 C 132.515625 95.746094 141.359375 86.898438 152.230469 86.898438 L 152.628906 86.898438 C 163.5 86.898438 172.347656 95.746094 172.347656 106.617188 L 172.347656 117.71875 C 172.347656 128.589844 163.5 137.433594 152.628906 137.433594 " fill-opacity="1" fill-rule="nonzero"/><path fill="#d291af" d="M 235.847656 117.734375 C 233.007812 117.734375 230.703125 115.429688 230.703125 112.585938 L 230.703125 106.816406 C 230.703125 95.835938 239.636719 86.902344 250.617188 86.902344 C 255.9375 86.902344 260.941406 88.972656 264.703125 92.734375 C 268.460938 96.496094 270.535156 101.496094 270.535156 106.816406 L 270.535156 110.320312 C 270.535156 113.164062 268.230469 115.46875 265.386719 115.46875 C 262.546875 115.46875 260.242188 113.164062 260.242188 110.320312 L 260.242188 106.816406 C 260.242188 104.246094 259.238281 101.828125 257.421875 100.011719 C 255.609375 98.195312 253.1875 97.195312 250.617188 97.195312 C 245.3125 97.195312 240.996094 101.511719 240.996094 106.816406 L 240.996094 112.585938 C 240.996094 115.429688 238.691406 117.734375 235.847656 117.734375 " fill-opacity="1" fill-rule="nonzero"/><path fill="#d291af" d="M 54.042969 182.011719 C 48.847656 182.011719 44.621094 186.242188 44.621094 191.4375 L 44.621094 202.539062 C 44.621094 207.734375 48.847656 211.960938 54.042969 211.960938 L 54.441406 211.960938 C 59.636719 211.960938 63.863281 207.734375 63.863281 202.539062 L 63.863281 191.4375 C 63.863281 186.242188 59.636719 182.011719 54.441406 182.011719 Z M 54.441406 222.253906 L 54.042969 222.253906 C 43.171875 222.253906 34.328125 213.410156 34.328125 202.539062 L 34.328125 191.4375 C 34.328125 180.566406 43.171875 171.71875 54.042969 171.71875 L 54.441406 171.71875 C 65.3125 171.71875 74.15625 180.566406 74.15625 191.4375 L 74.15625 202.539062 C 74.15625 213.410156 65.3125 222.253906 54.441406 222.253906 " fill-opacity="1" fill-rule="nonzero"/><path fill="#d291af" d="M 152.230469 182.011719 C 147.035156 182.011719 142.808594 186.242188 142.808594 191.4375 L 142.808594 202.539062 C 142.808594 207.734375 147.035156 211.960938 152.230469 211.960938 L 152.628906 211.960938 C 157.824219 211.960938 162.050781 207.734375 162.050781 202.539062 L 162.050781 191.4375 C 162.050781 186.242188 157.824219 182.011719 152.628906 182.011719 Z M 152.628906 222.253906 L 152.230469 222.253906 C 141.359375 222.253906 132.515625 213.410156 132.515625 202.539062 L 132.515625 191.4375 C 132.515625 180.566406 141.359375 171.71875 152.230469 171.71875 L 152.628906 171.71875 C 163.5 171.71875 172.347656 180.566406 172.347656 191.4375 L 172.347656 202.539062 C 172.347656 213.410156 163.5 222.253906 152.628906 222.253906 " fill-opacity="1" fill-rule="nonzero"/><path fill="#d291af" d="M 255.808594 114.804688 C 238.703125 114.804688 222.625 121.464844 210.527344 133.5625 C 185.5625 158.527344 185.5625 199.152344 210.527344 224.117188 C 235.496094 249.085938 276.121094 249.085938 301.089844 224.117188 C 326.054688 199.152344 326.054688 158.527344 301.089844 133.5625 C 288.992188 121.464844 272.910156 114.804688 255.808594 114.804688 Z M 255.808594 253.167969 C 235.953125 253.167969 217.289062 245.4375 203.25 231.398438 C 189.210938 217.359375 181.480469 198.695312 181.480469 178.839844 C 181.480469 158.984375 189.210938 140.320312 203.25 126.28125 C 217.289062 112.242188 235.953125 104.511719 255.808594 104.511719 C 275.660156 104.511719 294.328125 112.242188 308.367188 126.28125 C 322.40625 140.320312 330.136719 158.984375 330.136719 178.839844 C 330.136719 198.695312 322.40625 217.359375 308.367188 231.398438 C 294.328125 245.4375 275.660156 253.167969 255.808594 253.167969 " fill-opacity="1" fill-rule="nonzero"/><g clip-path="url(#58383028c5)"><path fill="#d291af" d="M 357.84375 298.023438 C 353.449219 298.023438 349.058594 296.351562 345.714844 293.007812 L 291.863281 239.15625 C 289.851562 237.144531 289.851562 233.886719 291.863281 231.875 C 293.871094 229.867188 297.128906 229.867188 299.140625 231.875 L 352.992188 285.726562 C 355.667969 288.402344 360.019531 288.402344 362.695312 285.726562 C 363.992188 284.429688 364.707031 282.707031 364.707031 280.875 C 364.707031 279.042969 363.992188 277.320312 362.695312 276.023438 L 308.84375 222.171875 C 306.835938 220.164062 306.835938 216.902344 308.84375 214.894531 C 310.855469 212.882812 314.113281 212.882812 316.125 214.894531 L 369.976562 268.746094 C 373.214844 271.984375 375 276.292969 375 280.875 C 375 285.457031 373.214844 289.765625 369.976562 293.007812 C 366.628906 296.351562 362.238281 298.023438 357.84375 298.023438 " fill-opacity="1" fill-rule="nonzero"/></g></svg>