<svg xmlns="http://www.w3.org/2000/svg" xmlns:xlink="http://www.w3.org/1999/xlink" width="100" zoomAndPan="magnify" viewBox="0 0 187.5 131.249995" height="100" preserveAspectRatio="xMidYMid meet" version="1.0"><defs><g/><clipPath id="ef3492dc40"><path d="M 33.597656 53 L 145 53 L 145 68 L 33.597656 68 Z M 33.597656 53 " clip-rule="nonzero"/></clipPath><clipPath id="cd081fe8cc"><path d="M 151.722656 95.296875 L 96.074219 115.125 L 33.703125 100.410156 C 34.019531 85.875 37.015625 56.6875 46.75 46.308594 C 90.179688 0.0117188 154.59375 44.742188 151.722656 95.296875 Z M 151.722656 95.296875 " clip-rule="evenodd"/></clipPath><clipPath id="426d96e76c"><path d="M 33.597656 75 L 151.925781 75 L 151.925781 89 L 33.597656 89 Z M 33.597656 75 " clip-rule="nonzero"/></clipPath><clipPath id="c313f2f682"><path d="M 151.722656 95.296875 L 96.074219 115.125 L 33.703125 100.410156 C 34.019531 85.875 37.015625 56.6875 46.75 46.308594 C 90.179688 0.0117188 154.59375 44.742188 151.722656 95.296875 Z M 151.722656 95.296875 " clip-rule="evenodd"/></clipPath><clipPath id="aac218dc26"><path d="M 33.597656 61 L 151.925781 61 L 151.925781 79 L 33.597656 79 Z M 33.597656 61 " clip-rule="nonzero"/></clipPath><clipPath id="414f97dbf7"><path d="M 151.722656 95.296875 L 96.074219 115.125 L 33.703125 100.410156 C 34.019531 85.875 37.015625 56.6875 46.75 46.308594 C 90.179688 0.0117188 154.59375 44.742188 151.722656 95.296875 Z M 151.722656 95.296875 " clip-rule="evenodd"/></clipPath></defs><path fill="#0097b2" d="M 80.996094 31.464844 C 79.886719 31.523438 78.699219 31.769531 77.589844 31.59375 C 76.019531 31.347656 74.609375 30.445312 73.058594 30.078125 C 70.988281 29.589844 69.195312 29.050781 67.214844 28.320312 C 66.179688 27.9375 65.035156 27.902344 64.066406 27.332031 C 62.851562 26.617188 59.914062 24.777344 60.472656 22.910156 C 60.78125 21.878906 63.277344 22.109375 64.050781 22.273438 C 65.648438 22.605469 66.707031 23.289062 68.132812 23.988281 C 69.058594 24.441406 70.140625 24.503906 71.042969 24.972656 C 71.757812 25.347656 72.363281 25.917969 73.058594 26.320312 C 73.839844 26.765625 74.691406 26.953125 75.414062 27.484375 C 75.796875 27.761719 76.472656 28.425781 76.472656 28.425781 C 76.472656 28.425781 76.441406 28.253906 76.417969 28.171875 C 76.261719 27.714844 75.886719 27.480469 75.535156 27.171875 C 74.773438 26.507812 74.289062 25.578125 73.621094 24.824219 C 71.15625 22.039062 68.65625 19.207031 67.417969 15.6875 C 66.621094 13.4375 66.234375 11.945312 69.136719 11.914062 C 70.207031 11.902344 71.484375 13.792969 72.019531 14.542969 C 73.964844 17.273438 75.46875 19.804688 76.824219 22.828125 C 77.304688 23.894531 77.941406 24.925781 78.605469 25.882812 C 78.898438 26.308594 79.144531 26.707031 79.394531 27.148438 C 79.496094 27.332031 79.769531 27.867188 79.75 27.660156 L 78.523438 15.464844 C 78.433594 14.566406 78.320312 13.671875 78.226562 12.777344 C 77.984375 10.355469 78.65625 4.03125 82.308594 4.09375 C 83.597656 4.113281 84.175781 6.796875 84.285156 7.613281 C 84.929688 12.292969 84.714844 16.636719 84.292969 21.316406 C 84.164062 22.792969 84.164062 24.273438 84.132812 25.75 C 84.125 26.03125 84.144531 26.816406 84.160156 27.039062 C 84.160156 27.039062 84.226562 27.722656 84.238281 27.824219 C 84.246094 27.875 84.257812 28.023438 84.253906 27.972656 C 84.023438 25.707031 85.375 23.164062 86.3125 21.171875 C 87.648438 18.320312 89.085938 15.351562 91.3125 13.039062 C 91.859375 12.464844 91.902344 12.546875 92.640625 11.871094 C 93.015625 11.535156 95.292969 8.867188 96.085938 9.960938 C 96.851562 11.011719 96.539062 13.089844 96.183594 14.210938 C 95.203125 17.296875 93.460938 20.042969 91.976562 22.910156 C 91.359375 24.105469 90.5 25.332031 90.175781 26.636719 C 90.054688 27.117188 90.089844 27.1875 89.808594 27.636719 C 89.664062 27.867188 89.109375 28.417969 89.371094 28.324219 C 89.777344 28.183594 89.878906 27.640625 90.078125 27.265625 C 90.722656 26.023438 91.558594 25.058594 92.285156 23.867188 C 93.167969 22.425781 98.433594 18.144531 99.757812 17.453125 C 100.414062 17.113281 103.535156 16.210938 104.046875 16.636719 C 105.082031 17.496094 105.136719 19.640625 104.558594 20.707031 C 101.816406 25.78125 97.378906 28.316406 93.8125 32.566406 Z M 80.996094 31.464844 " fill-opacity="1" fill-rule="evenodd"/><path fill="#c1ff72" d="M 151.722656 95.296875 L 96.074219 115.125 L 33.703125 100.410156 C 34.019531 85.875 37.015625 56.6875 46.75 46.308594 C 90.179688 0.0117188 154.59375 44.742188 151.722656 95.296875 Z M 151.722656 95.296875 " fill-opacity="1" fill-rule="evenodd"/><g clip-path="url(#ef3492dc40)"><g clip-path="url(#cd081fe8cc)"><path fill="#0097b2" d="M 32.035156 67.285156 L 44.488281 60.34375 C 44.488281 60.34375 50.167969 66.925781 50.167969 66.925781 C 50.316406 67.097656 50.582031 67.121094 50.761719 66.976562 L 58.425781 60.667969 C 58.425781 60.667969 65.886719 65.40625 65.886719 65.40625 C 66.035156 65.5 66.226562 65.496094 66.367188 65.394531 L 73.46875 60.308594 C 73.464844 60.3125 78.980469 65.210938 78.980469 65.210938 C 79.125 65.34375 79.347656 65.355469 79.507812 65.242188 L 88.34375 59.09375 C 88.34375 59.09375 95.070312 63.195312 95.070312 63.195312 C 95.214844 63.285156 95.398438 63.277344 95.535156 63.183594 L 103.152344 57.992188 C 103.152344 57.992188 109.648438 62.875 109.648438 62.875 C 109.796875 62.988281 110.003906 62.988281 110.15625 62.878906 L 117.574219 57.511719 C 117.574219 57.511719 123.292969 62.0625 123.292969 62.0625 C 123.457031 62.195312 123.695312 62.183594 123.847656 62.042969 L 130.433594 56.015625 C 130.433594 56.015625 137.398438 60.503906 137.398438 60.503906 C 137.566406 60.613281 137.792969 60.589844 137.933594 60.445312 L 144.578125 53.746094 C 144.742188 53.582031 144.738281 53.320312 144.570312 53.160156 C 144.402344 53.003906 144.136719 53.007812 143.972656 53.171875 L 137.570312 59.625 C 137.570312 59.625 130.617188 55.148438 130.617188 55.148438 C 130.457031 55.042969 130.242188 55.058594 130.097656 55.191406 L 123.539062 61.195312 C 123.539062 61.195312 117.851562 56.667969 117.851562 56.667969 C 117.703125 56.550781 117.488281 56.546875 117.335938 56.65625 L 109.910156 62.03125 C 109.910156 62.03125 103.417969 57.15625 103.417969 57.15625 C 103.273438 57.046875 103.074219 57.042969 102.921875 57.144531 L 95.28125 62.351562 C 95.28125 62.351562 88.554688 58.25 88.554688 58.25 C 88.410156 58.160156 88.222656 58.167969 88.085938 58.261719 L 79.296875 64.378906 C 79.296875 64.378906 73.777344 59.472656 73.777344 59.472656 C 73.628906 59.34375 73.40625 59.332031 73.246094 59.445312 L 66.101562 64.5625 C 66.101562 64.5625 58.625 59.8125 58.625 59.8125 C 58.46875 59.710938 58.265625 59.726562 58.121094 59.839844 L 50.539062 66.078125 C 50.539062 66.078125 44.90625 59.546875 44.90625 59.546875 C 44.773438 59.398438 44.550781 59.359375 44.375 59.457031 L 31.617188 66.566406 C 31.414062 66.679688 31.34375 66.933594 31.460938 67.128906 C 31.574219 67.328125 31.832031 67.394531 32.035156 67.285156 Z M 32.035156 67.285156 " fill-opacity="1" fill-rule="evenodd"/></g></g><g clip-path="url(#426d96e76c)"><g clip-path="url(#c313f2f682)"><path fill="#0097b2" d="M 28.410156 88.945312 L 42.171875 82.019531 C 42.171875 82.019531 48.496094 88.652344 48.496094 88.652344 C 48.644531 88.808594 48.886719 88.828125 49.058594 88.699219 L 57.53125 82.390625 C 57.53125 82.390625 65.824219 87.179688 65.824219 87.179688 C 65.960938 87.261719 66.136719 87.257812 66.269531 87.167969 L 74.132812 82.078125 C 74.132812 82.078125 80.269531 87.03125 80.269531 87.03125 C 80.414062 87.144531 80.613281 87.15625 80.765625 87.058594 L 90.535156 80.914062 C 90.535156 80.914062 98.011719 85.0625 98.011719 85.0625 C 98.144531 85.136719 98.3125 85.136719 98.441406 85.054688 L 106.867188 79.863281 C 106.867188 79.863281 114.09375 84.792969 114.09375 84.792969 C 114.238281 84.890625 114.425781 84.890625 114.570312 84.796875 L 122.777344 79.421875 C 122.777344 79.421875 129.144531 84.027344 129.144531 84.027344 C 129.300781 84.140625 129.519531 84.132812 129.667969 84.007812 L 136.949219 77.96875 C 136.949219 77.96875 144.695312 82.507812 144.695312 82.507812 C 144.855469 82.601562 145.0625 82.582031 145.199219 82.457031 L 152.507812 75.777344 C 152.679688 75.621094 152.6875 75.359375 152.527344 75.195312 C 152.371094 75.027344 152.101562 75.019531 151.933594 75.171875 L 144.855469 81.640625 C 144.855469 81.640625 137.121094 77.109375 137.121094 77.109375 C 136.96875 77.019531 136.769531 77.035156 136.632812 77.148438 L 129.378906 83.167969 C 129.378906 83.167969 123.039062 78.585938 123.039062 78.585938 C 122.894531 78.484375 122.703125 78.480469 122.554688 78.578125 L 114.339844 83.953125 C 114.339844 83.953125 107.121094 79.03125 107.121094 79.03125 C 106.980469 78.933594 106.796875 78.929688 106.652344 79.019531 L 98.207031 84.226562 C 98.207031 84.226562 90.726562 80.074219 90.726562 80.074219 C 90.59375 80 90.421875 80.003906 90.292969 80.089844 L 80.570312 86.203125 C 80.570312 86.203125 74.425781 81.25 74.425781 81.25 C 74.285156 81.132812 74.082031 81.121094 73.925781 81.222656 L 66.023438 86.339844 C 66.023438 86.339844 57.714844 81.539062 57.714844 81.539062 C 57.570312 81.457031 57.382812 81.464844 57.246094 81.566406 L 48.851562 87.820312 C 48.851562 87.820312 42.574219 81.226562 42.574219 81.226562 C 42.445312 81.09375 42.238281 81.058594 42.070312 81.140625 L 28.023438 88.210938 C 27.816406 88.316406 27.734375 88.566406 27.839844 88.765625 C 27.949219 88.96875 28.203125 89.046875 28.410156 88.945312 Z M 28.410156 88.945312 " fill-opacity="1" fill-rule="evenodd"/></g></g><g clip-path="url(#aac218dc26)"><g clip-path="url(#414f97dbf7)"><path fill="#0097b2" d="M 32.464844 78.644531 L 44.492188 72.300781 C 44.492188 72.300781 49.664062 77.980469 49.664062 77.980469 C 50.382812 78.773438 51.609375 78.875 52.457031 78.214844 L 59.664062 72.597656 C 59.664062 72.597656 66.597656 76.78125 66.597656 76.78125 C 67.289062 77.199219 68.164062 77.175781 68.832031 76.722656 L 75.308594 72.332031 C 75.308594 72.332031 80.207031 76.460938 80.207031 76.460938 C 80.90625 77.050781 81.917969 77.109375 82.679688 76.605469 L 91.164062 71.015625 C 91.164062 71.015625 97.410156 74.632812 97.410156 74.632812 C 98.082031 75.023438 98.921875 75.003906 99.574219 74.582031 L 106.683594 69.996094 C 106.683594 69.996094 112.664062 74.257812 112.664062 74.257812 C 113.367188 74.757812 114.320312 74.769531 115.035156 74.277344 L 121.898438 69.574219 C 121.898438 69.574219 127.023438 73.441406 127.023438 73.441406 C 127.800781 74.027344 128.890625 73.992188 129.625 73.355469 L 135.671875 68.105469 C 135.671875 68.105469 142.027344 71.996094 142.027344 71.996094 C 142.828125 72.484375 143.863281 72.375 144.535156 71.730469 L 151.535156 65.042969 C 152.339844 64.273438 152.355469 63.007812 151.570312 62.222656 C 150.78125 61.4375 149.488281 61.421875 148.6875 62.191406 L 142.832031 67.785156 C 142.832031 67.785156 136.542969 63.9375 136.542969 63.9375 C 135.773438 63.46875 134.785156 63.550781 134.105469 64.136719 L 128.179688 69.28125 C 128.179688 69.28125 123.203125 65.523438 123.203125 65.523438 C 122.496094 64.992188 121.515625 64.96875 120.785156 65.46875 L 113.886719 70.199219 C 113.886719 70.199219 107.941406 65.960938 107.941406 65.960938 C 107.253906 65.472656 106.328125 65.449219 105.617188 65.910156 L 98.390625 70.570312 C 98.390625 70.570312 92.132812 66.945312 92.132812 66.945312 C 91.457031 66.554688 90.609375 66.578125 89.957031 67.007812 L 81.691406 72.449219 C 81.691406 72.449219 76.777344 68.304688 76.777344 68.304688 C 76.074219 67.710938 75.046875 67.660156 74.285156 68.175781 L 67.605469 72.703125 C 67.605469 72.703125 60.585938 68.472656 60.585938 68.472656 C 59.851562 68.03125 58.914062 68.085938 58.242188 68.609375 L 51.425781 73.921875 C 51.425781 73.921875 46.464844 68.476562 46.464844 68.476562 C 45.835938 67.785156 44.804688 67.609375 43.972656 68.046875 L 30.527344 75.136719 C 29.535156 75.65625 29.167969 76.867188 29.699219 77.835938 C 30.234375 78.804688 31.472656 79.164062 32.464844 78.644531 Z M 32.464844 78.644531 " fill-opacity="1" fill-rule="evenodd"/></g></g><path fill="#0097b2" d="M 30.628906 124.421875 C 25.058594 121.722656 28.941406 103.683594 31.769531 99.71875 C 38.332031 90.523438 77.390625 99.910156 92.757812 98.917969 C 110.515625 97.777344 147.882812 88.804688 153.097656 93.722656 C 158.882812 99.179688 162.644531 116.828125 154.734375 120.632812 C 144.40625 125.601562 118.3125 128.804688 92.757812 129.839844 C 68.050781 130.84375 33.996094 126.050781 30.628906 124.421875 Z M 30.628906 124.421875 " fill-opacity="1" fill-rule="evenodd"/><g fill="#000000" fill-opacity="0.4"><g transform="translate(73.784905, 124.891305)"><g><path d="M 7.316406 -9.296875 L 7.007812 -6.265625 C 6.480469 -6.714844 5.824219 -7 5.066406 -7.078125 C 2.847656 -7.300781 1.054688 -5.816406 0.828125 -3.59375 C 0.605469 -1.386719 2.0625 0.441406 4.28125 0.667969 C 5.175781 0.757812 5.992188 0.523438 6.652344 0.0742188 L 6.820312 0.707031 L 8.28125 0.851562 L 9.292969 -9.097656 Z M 4.632812 -1.183594 C 3.484375 -1.300781 2.730469 -2.253906 2.847656 -3.390625 C 2.964844 -4.539062 3.890625 -5.308594 5.039062 -5.191406 C 6.191406 -5.074219 6.941406 -4.136719 6.824219 -2.988281 C 6.710938 -1.851562 5.785156 -1.070312 4.632812 -1.183594 Z M 4.632812 -1.183594 "/></g></g></g><g fill="#000000" fill-opacity="0.4"><g transform="translate(83.222633, 125.767557)"><g><path d="M 1.328125 -8.273438 L 3.300781 -8.183594 L 3.382812 -10.019531 L 1.414062 -10.109375 Z M 0.953125 0.0429688 L 2.9375 0.132812 L 3.269531 -7.207031 L 1.285156 -7.296875 Z M 0.953125 0.0429688 "/></g></g></g><g fill="#000000" fill-opacity="0.4"><g transform="translate(87.243093, 125.963877)"><g><path d="M 4.75 -7.363281 C 3.796875 -7.367188 3.140625 -7.070312 2.609375 -6.421875 L 2.257812 -7.335938 L 0.992188 -7.339844 L 0.953125 0.00390625 L 2.9375 0.015625 L 2.960938 -3.792969 C 2.96875 -4.992188 3.40625 -5.492188 4.519531 -5.484375 L 5.390625 -5.480469 L 5.402344 -7.359375 Z M 4.75 -7.363281 "/></g></g></g><g fill="#000000" fill-opacity="0.4"><g transform="translate(92.982383, 126.034864)"><g><path d="M 7.871094 -4.117188 C 7.757812 -6.234375 6.113281 -7.890625 3.859375 -7.769531 C 1.6875 -7.652344 0.144531 -5.894531 0.265625 -3.691406 C 0.382812 -1.492188 2.117188 0.105469 4.277344 -0.0117188 C 5.988281 -0.105469 7.335938 -1.199219 7.777344 -2.832031 L 5.699219 -2.71875 C 5.429688 -2.171875 4.875 -1.816406 4.183594 -1.777344 C 3.21875 -1.726562 2.535156 -2.25 2.304688 -3.246094 L 7.863281 -3.542969 C 7.878906 -3.734375 7.882812 -3.925781 7.871094 -4.117188 Z M 3.953125 -6.070312 C 4.847656 -6.121094 5.511719 -5.664062 5.847656 -4.785156 L 2.285156 -4.59375 C 2.472656 -5.472656 3.066406 -6.023438 3.953125 -6.070312 Z M 3.953125 -6.070312 "/></g></g></g><g fill="#000000" fill-opacity="0.4"><g transform="translate(101.75749, 125.552649)"><g><path d="M 4.359375 -0.332031 C 6.261719 -0.574219 7.605469 -2.003906 7.710938 -3.882812 L 5.726562 -3.632812 C 5.488281 -2.804688 4.921875 -2.296875 4.125 -2.195312 C 3.070312 -2.0625 2.136719 -2.835938 1.996094 -3.957031 C 1.851562 -5.089844 2.554688 -6.054688 3.621094 -6.191406 C 4.402344 -6.289062 5.117188 -5.941406 5.519531 -5.265625 L 7.476562 -5.511719 C 6.898438 -7.261719 5.289062 -8.28125 3.398438 -8.042969 C 1.1875 -7.761719 -0.28125 -5.902344 -0.00390625 -3.714844 C 0.273438 -1.53125 2.160156 -0.0546875 4.359375 -0.332031 Z M 4.359375 -0.332031 "/></g></g></g><g fill="#000000" fill-opacity="0.4"><g transform="translate(110.38971, 124.414524)"><g><path d="M 4.136719 -2.582031 C 3.417969 -2.445312 2.9375 -2.769531 2.808594 -3.464844 L 2.277344 -6.273438 L 4.246094 -6.644531 L 3.945312 -8.222656 L 1.953125 -7.84375 L 1.601562 -9.71875 L 1.226562 -9.648438 L -1.050781 -6.085938 L -0.96875 -5.660156 L 0.328125 -5.90625 L 0.90625 -2.828125 C 1.207031 -1.238281 2.367188 -0.445312 3.957031 -0.746094 L 5.347656 -1.007812 L 5.019531 -2.746094 Z M 4.136719 -2.582031 "/></g></g></g><g fill="#000000" fill-opacity="0.4"><g transform="translate(116.35445, 123.331336)"><g><path d="M 4.351562 -0.878906 C 6.554688 -1.4375 7.792969 -3.480469 7.246094 -5.628906 C 6.699219 -7.777344 4.644531 -8.96875 2.441406 -8.410156 C 0.238281 -7.851562 -1 -5.824219 -0.457031 -3.675781 C 0.0898438 -1.523438 2.152344 -0.320312 4.351562 -0.878906 Z M 3.890625 -2.699219 C 2.78125 -2.417969 1.792969 -3.007812 1.496094 -4.167969 C 1.207031 -5.316406 1.792969 -6.324219 2.898438 -6.605469 C 4.007812 -6.886719 5.003906 -6.28125 5.292969 -5.132812 C 5.589844 -3.972656 5 -2.980469 3.890625 -2.699219 Z M 3.890625 -2.699219 "/></g></g></g><g fill="#000000" fill-opacity="0.4"><g transform="translate(125.149602, 121.040584)"><g><path d="M 2.234375 -8.46875 C 1.328125 -8.179688 0.796875 -7.695312 0.488281 -6.914062 L -0.125 -7.671875 L -1.328125 -7.289062 L 0.90625 -0.289062 L 2.800781 -0.894531 L 1.640625 -4.523438 C 1.273438 -5.664062 1.535156 -6.277344 2.597656 -6.617188 L 3.429688 -6.882812 L 2.855469 -8.667969 Z M 2.234375 -8.46875 "/></g></g></g><g fill="#efdad0" fill-opacity="1"><g transform="translate(73.128471, 124.350479)"><g><path d="M 7.316406 -9.296875 L 7.007812 -6.265625 C 6.480469 -6.714844 5.824219 -7 5.066406 -7.078125 C 2.847656 -7.300781 1.054688 -5.816406 0.828125 -3.59375 C 0.605469 -1.386719 2.0625 0.441406 4.28125 0.667969 C 5.175781 0.757812 5.992188 0.523438 6.652344 0.0742188 L 6.820312 0.707031 L 8.28125 0.851562 L 9.292969 -9.097656 Z M 4.632812 -1.183594 C 3.484375 -1.300781 2.730469 -2.253906 2.847656 -3.390625 C 2.964844 -4.539062 3.890625 -5.308594 5.039062 -5.191406 C 6.191406 -5.074219 6.941406 -4.136719 6.824219 -2.988281 C 6.710938 -1.851562 5.785156 -1.070312 4.632812 -1.183594 Z M 4.632812 -1.183594 "/></g></g></g><g fill="#efdad0" fill-opacity="1"><g transform="translate(82.566202, 125.226728)"><g><path d="M 1.328125 -8.273438 L 3.300781 -8.183594 L 3.382812 -10.019531 L 1.414062 -10.109375 Z M 0.953125 0.0429688 L 2.9375 0.132812 L 3.269531 -7.207031 L 1.285156 -7.296875 Z M 0.953125 0.0429688 "/></g></g></g><g fill="#efdad0" fill-opacity="1"><g transform="translate(86.586659, 125.423048)"><g><path d="M 4.75 -7.363281 C 3.796875 -7.367188 3.140625 -7.070312 2.609375 -6.421875 L 2.257812 -7.335938 L 0.992188 -7.339844 L 0.953125 0.00390625 L 2.9375 0.015625 L 2.960938 -3.792969 C 2.96875 -4.992188 3.40625 -5.492188 4.519531 -5.484375 L 5.390625 -5.480469 L 5.402344 -7.359375 Z M 4.75 -7.363281 "/></g></g></g><g fill="#efdad0" fill-opacity="1"><g transform="translate(92.325949, 125.494035)"><g><path d="M 7.871094 -4.117188 C 7.757812 -6.234375 6.113281 -7.890625 3.859375 -7.769531 C 1.6875 -7.652344 0.144531 -5.894531 0.265625 -3.691406 C 0.382812 -1.492188 2.117188 0.105469 4.277344 -0.0117188 C 5.988281 -0.105469 7.335938 -1.199219 7.777344 -2.832031 L 5.699219 -2.71875 C 5.429688 -2.171875 4.875 -1.816406 4.183594 -1.777344 C 3.21875 -1.726562 2.535156 -2.25 2.304688 -3.246094 L 7.863281 -3.542969 C 7.878906 -3.734375 7.882812 -3.925781 7.871094 -4.117188 Z M 3.953125 -6.070312 C 4.847656 -6.121094 5.511719 -5.664062 5.847656 -4.785156 L 2.285156 -4.59375 C 2.472656 -5.472656 3.066406 -6.023438 3.953125 -6.070312 Z M 3.953125 -6.070312 "/></g></g></g><g fill="#efdad0" fill-opacity="1"><g transform="translate(101.101056, 125.011822)"><g><path d="M 4.359375 -0.332031 C 6.261719 -0.574219 7.605469 -2.003906 7.710938 -3.882812 L 5.726562 -3.632812 C 5.488281 -2.804688 4.921875 -2.296875 4.125 -2.195312 C 3.070312 -2.0625 2.136719 -2.835938 1.996094 -3.957031 C 1.851562 -5.089844 2.554688 -6.054688 3.621094 -6.191406 C 4.402344 -6.289062 5.117188 -5.941406 5.519531 -5.265625 L 7.476562 -5.511719 C 6.898438 -7.261719 5.289062 -8.28125 3.398438 -8.042969 C 1.1875 -7.761719 -0.28125 -5.902344 -0.00390625 -3.714844 C 0.273438 -1.53125 2.160156 -0.0546875 4.359375 -0.332031 Z M 4.359375 -0.332031 "/></g></g></g><g fill="#efdad0" fill-opacity="1"><g transform="translate(109.733279, 123.873697)"><g><path d="M 4.136719 -2.582031 C 3.417969 -2.445312 2.9375 -2.769531 2.808594 -3.464844 L 2.277344 -6.273438 L 4.246094 -6.644531 L 3.945312 -8.222656 L 1.953125 -7.84375 L 1.601562 -9.71875 L 1.226562 -9.648438 L -1.050781 -6.085938 L -0.96875 -5.660156 L 0.328125 -5.90625 L 0.90625 -2.828125 C 1.207031 -1.238281 2.367188 -0.445312 3.957031 -0.746094 L 5.347656 -1.007812 L 5.019531 -2.746094 Z M 4.136719 -2.582031 "/></g></g></g><g fill="#efdad0" fill-opacity="1"><g transform="translate(115.698026, 122.790507)"><g><path d="M 4.351562 -0.878906 C 6.554688 -1.4375 7.792969 -3.480469 7.246094 -5.628906 C 6.699219 -7.777344 4.644531 -8.96875 2.441406 -8.410156 C 0.238281 -7.851562 -1 -5.824219 -0.457031 -3.675781 C 0.0898438 -1.523438 2.152344 -0.320312 4.351562 -0.878906 Z M 3.890625 -2.699219 C 2.78125 -2.417969 1.792969 -3.007812 1.496094 -4.167969 C 1.207031 -5.316406 1.792969 -6.324219 2.898438 -6.605469 C 4.007812 -6.886719 5.003906 -6.28125 5.292969 -5.132812 C 5.589844 -3.972656 5 -2.980469 3.890625 -2.699219 Z M 3.890625 -2.699219 "/></g></g></g><g fill="#efdad0" fill-opacity="1"><g transform="translate(124.493168, 120.499755)"><g><path d="M 2.234375 -8.46875 C 1.328125 -8.179688 0.796875 -7.695312 0.488281 -6.914062 L -0.125 -7.671875 L -1.328125 -7.289062 L 0.90625 -0.289062 L 2.800781 -0.894531 L 1.640625 -4.523438 C 1.273438 -5.664062 1.535156 -6.277344 2.597656 -6.617188 L 3.429688 -6.882812 L 2.855469 -8.667969 Z M 2.234375 -8.46875 "/></g></g></g><g fill="#000000" fill-opacity="0.4"><g transform="translate(56.257821, 108.338489)"><g><path d="M 3.203125 -7.746094 L 5.101562 -7.203125 L 5.605469 -8.96875 L 3.707031 -9.511719 Z M 0.914062 0.261719 L 2.824219 0.808594 L 4.84375 -6.257812 L 2.933594 -6.804688 Z M 0.914062 0.261719 "/></g></g></g><g fill="#000000" fill-opacity="0.4"><g transform="translate(60.191698, 109.536177)"><g><path d="M 6.605469 -6.25 C 5.636719 -6.460938 4.683594 -6.238281 4 -5.71875 L 3.820312 -6.6875 L 2.488281 -6.976562 L 0.929688 0.203125 L 2.871094 0.625 L 3.6875 -3.140625 C 3.941406 -4.296875 4.707031 -4.882812 5.707031 -4.664062 C 6.542969 -4.484375 6.84375 -3.875 6.605469 -2.785156 L 5.730469 1.246094 L 7.671875 1.667969 L 8.617188 -2.679688 C 9.011719 -4.503906 8.242188 -5.894531 6.605469 -6.25 Z M 6.605469 -6.25 "/></g></g></g><g fill="#000000" fill-opacity="0.4"><g transform="translate(68.990998, 111.403184)"><g><path d="M 3.492188 0.6875 C 5.339844 0.933594 6.683594 0.125 6.878906 -1.359375 C 7.117188 -3.140625 5.625 -3.585938 4.46875 -3.960938 C 3.730469 -4.195312 3.128906 -4.398438 3.191406 -4.886719 C 3.246094 -5.304688 3.648438 -5.523438 4.253906 -5.445312 C 4.941406 -5.351562 5.308594 -5.015625 5.246094 -4.433594 L 7.121094 -4.183594 C 7.300781 -5.640625 6.273438 -6.78125 4.519531 -7.015625 C 2.765625 -7.25 1.464844 -6.449219 1.28125 -5.074219 C 1.054688 -3.359375 2.496094 -2.851562 3.628906 -2.496094 C 4.378906 -2.269531 4.996094 -2.035156 4.925781 -1.539062 C 4.863281 -1.050781 4.328125 -0.863281 3.789062 -0.933594 C 3.089844 -1.027344 2.632812 -1.417969 2.707031 -2.066406 L 0.789062 -2.324219 C 0.582031 -0.773438 1.671875 0.441406 3.492188 0.6875 Z M 3.492188 0.6875 "/></g></g></g><g fill="#000000" fill-opacity="0.4"><g transform="translate(76.296484, 112.349936)"><g><path d="M 4.652344 -1.464844 C 3.917969 -1.511719 3.539062 -1.945312 3.585938 -2.652344 L 3.773438 -5.503906 L 5.769531 -5.371094 L 5.878906 -6.972656 L 3.855469 -7.105469 L 3.980469 -9.007812 L 3.601562 -9.03125 L 0.503906 -6.15625 L 0.476562 -5.722656 L 1.792969 -5.636719 L 1.585938 -2.511719 C 1.476562 -0.898438 2.402344 0.160156 4.019531 0.265625 L 5.429688 0.359375 L 5.546875 -1.402344 Z M 4.652344 -1.464844 "/></g></g></g><g fill="#000000" fill-opacity="0.4"><g transform="translate(82.302319, 112.720713)"><g><path d="M 1.089844 -8.308594 L 3.0625 -8.277344 L 3.09375 -10.113281 L 1.121094 -10.144531 Z M 0.953125 0.015625 L 2.9375 0.0507812 L 3.0625 -7.296875 L 1.074219 -7.332031 Z M 0.953125 0.015625 "/></g></g></g><g fill="#000000" fill-opacity="0.4"><g transform="translate(86.360775, 112.808402)"><g><path d="M 4.484375 -1.917969 C 3.75 -1.894531 3.328125 -2.289062 3.304688 -2.996094 L 3.210938 -5.851562 L 5.207031 -5.917969 L 5.15625 -7.523438 L 3.128906 -7.457031 L 3.066406 -9.359375 L 2.683594 -9.347656 L -0.109375 -6.175781 L -0.09375 -5.742188 L 1.222656 -5.785156 L 1.328125 -2.65625 C 1.382812 -1.039062 2.40625 -0.078125 4.023438 -0.132812 L 5.4375 -0.179688 L 5.378906 -1.949219 Z M 4.484375 -1.917969 "/></g></g></g><g fill="#000000" fill-opacity="0.4"><g transform="translate(92.461517, 112.647704)"><g><path d="M 4.296875 -0.242188 C 6.367188 -0.464844 7.589844 -1.9375 7.378906 -3.914062 L 6.925781 -8.132812 L 4.949219 -7.921875 L 5.382812 -3.917969 C 5.492188 -2.890625 5.015625 -2.207031 4.097656 -2.109375 C 3.191406 -2.011719 2.570312 -2.5625 2.460938 -3.601562 L 2.027344 -7.609375 L 0.0546875 -7.394531 L 0.507812 -3.175781 C 0.71875 -1.199219 2.242188 -0.0234375 4.296875 -0.242188 Z M 4.296875 -0.242188 "/></g></g></g><g fill="#000000" fill-opacity="0.4"><g transform="translate(101.265009, 111.641041)"><g><path d="M 4.152344 -2.558594 C 3.429688 -2.425781 2.953125 -2.753906 2.828125 -3.449219 L 2.3125 -6.261719 L 4.28125 -6.621094 L 3.992188 -8.199219 L 1.996094 -7.835938 L 1.652344 -9.707031 L 1.277344 -9.640625 L -1.019531 -6.09375 L -0.941406 -5.664062 L 0.359375 -5.902344 L 0.921875 -2.824219 C 1.214844 -1.230469 2.367188 -0.433594 3.960938 -0.726562 L 5.355469 -0.980469 L 5.035156 -2.71875 Z M 4.152344 -2.558594 "/></g></g></g><g fill="#000000" fill-opacity="0.4"><g transform="translate(107.274085, 110.582672)"><g><path d="M 6.894531 -5.601562 C 6.359375 -7.65625 4.417969 -8.953125 2.234375 -8.382812 C 0.125 -7.835938 -1.03125 -5.804688 -0.476562 -3.671875 C 0.078125 -1.539062 2.097656 -0.320312 4.191406 -0.863281 C 5.847656 -1.296875 6.949219 -2.636719 7.058594 -4.324219 L 5.042969 -3.800781 C 4.886719 -3.210938 4.414062 -2.75 3.742188 -2.578125 C 2.808594 -2.332031 2.035156 -2.710938 1.613281 -3.640625 L 6.996094 -5.039062 C 6.976562 -5.230469 6.941406 -5.417969 6.894531 -5.601562 Z M 2.660156 -6.738281 C 3.53125 -6.964844 4.273438 -6.652344 4.777344 -5.855469 L 1.324219 -4.957031 C 1.328125 -5.855469 1.804688 -6.515625 2.660156 -6.738281 Z M 2.660156 -6.738281 "/></g></g></g><g fill="#efdad0" fill-opacity="1"><g transform="translate(55.656403, 107.737078)"><g><path d="M 3.203125 -7.746094 L 5.101562 -7.203125 L 5.605469 -8.96875 L 3.707031 -9.511719 Z M 0.914062 0.261719 L 2.824219 0.808594 L 4.84375 -6.257812 L 2.933594 -6.804688 Z M 0.914062 0.261719 "/></g></g></g><g fill="#efdad0" fill-opacity="1"><g transform="translate(59.59028, 108.934763)"><g><path d="M 6.605469 -6.25 C 5.636719 -6.460938 4.683594 -6.238281 4 -5.71875 L 3.820312 -6.6875 L 2.488281 -6.976562 L 0.929688 0.203125 L 2.871094 0.625 L 3.6875 -3.140625 C 3.941406 -4.296875 4.707031 -4.882812 5.707031 -4.664062 C 6.542969 -4.484375 6.84375 -3.875 6.605469 -2.785156 L 5.730469 1.246094 L 7.671875 1.667969 L 8.617188 -2.679688 C 9.011719 -4.503906 8.242188 -5.894531 6.605469 -6.25 Z M 6.605469 -6.25 "/></g></g></g><g fill="#efdad0" fill-opacity="1"><g transform="translate(68.389579, 110.801771)"><g><path d="M 3.492188 0.6875 C 5.339844 0.933594 6.683594 0.125 6.878906 -1.359375 C 7.117188 -3.140625 5.625 -3.585938 4.46875 -3.960938 C 3.730469 -4.195312 3.128906 -4.398438 3.191406 -4.886719 C 3.246094 -5.304688 3.648438 -5.523438 4.253906 -5.445312 C 4.941406 -5.351562 5.308594 -5.015625 5.246094 -4.433594 L 7.121094 -4.183594 C 7.300781 -5.640625 6.273438 -6.78125 4.519531 -7.015625 C 2.765625 -7.25 1.464844 -6.449219 1.28125 -5.074219 C 1.054688 -3.359375 2.496094 -2.851562 3.628906 -2.496094 C 4.378906 -2.269531 4.996094 -2.035156 4.925781 -1.539062 C 4.863281 -1.050781 4.328125 -0.863281 3.789062 -0.933594 C 3.089844 -1.027344 2.632812 -1.417969 2.707031 -2.066406 L 0.789062 -2.324219 C 0.582031 -0.773438 1.671875 0.441406 3.492188 0.6875 Z M 3.492188 0.6875 "/></g></g></g><g fill="#efdad0" fill-opacity="1"><g transform="translate(75.69507, 111.748524)"><g><path d="M 4.652344 -1.464844 C 3.917969 -1.511719 3.539062 -1.945312 3.585938 -2.652344 L 3.773438 -5.503906 L 5.769531 -5.371094 L 5.878906 -6.972656 L 3.855469 -7.105469 L 3.980469 -9.007812 L 3.601562 -9.03125 L 0.503906 -6.15625 L 0.476562 -5.722656 L 1.792969 -5.636719 L 1.585938 -2.511719 C 1.476562 -0.898438 2.402344 0.160156 4.019531 0.265625 L 5.429688 0.359375 L 5.546875 -1.402344 Z M 4.652344 -1.464844 "/></g></g></g><g fill="#efdad0" fill-opacity="1"><g transform="translate(81.7009, 112.119302)"><g><path d="M 1.089844 -8.308594 L 3.0625 -8.277344 L 3.09375 -10.113281 L 1.121094 -10.144531 Z M 0.953125 0.015625 L 2.9375 0.0507812 L 3.0625 -7.296875 L 1.074219 -7.332031 Z M 0.953125 0.015625 "/></g></g></g><g fill="#efdad0" fill-opacity="1"><g transform="translate(85.759361, 112.20699)"><g><path d="M 4.484375 -1.917969 C 3.75 -1.894531 3.328125 -2.289062 3.304688 -2.996094 L 3.210938 -5.851562 L 5.207031 -5.917969 L 5.15625 -7.523438 L 3.128906 -7.457031 L 3.066406 -9.359375 L 2.683594 -9.347656 L -0.109375 -6.175781 L -0.09375 -5.742188 L 1.222656 -5.785156 L 1.328125 -2.65625 C 1.382812 -1.039062 2.40625 -0.078125 4.023438 -0.132812 L 5.4375 -0.179688 L 5.378906 -1.949219 Z M 4.484375 -1.917969 "/></g></g></g><g fill="#efdad0" fill-opacity="1"><g transform="translate(91.860096, 112.046291)"><g><path d="M 4.296875 -0.242188 C 6.367188 -0.464844 7.589844 -1.9375 7.378906 -3.914062 L 6.925781 -8.132812 L 4.949219 -7.921875 L 5.382812 -3.917969 C 5.492188 -2.890625 5.015625 -2.207031 4.097656 -2.109375 C 3.191406 -2.011719 2.570312 -2.5625 2.460938 -3.601562 L 2.027344 -7.609375 L 0.0546875 -7.394531 L 0.507812 -3.175781 C 0.71875 -1.199219 2.242188 -0.0234375 4.296875 -0.242188 Z M 4.296875 -0.242188 "/></g></g></g><g fill="#efdad0" fill-opacity="1"><g transform="translate(100.663591, 111.03963)"><g><path d="M 4.152344 -2.558594 C 3.429688 -2.425781 2.953125 -2.753906 2.828125 -3.449219 L 2.3125 -6.261719 L 4.28125 -6.621094 L 3.992188 -8.199219 L 1.996094 -7.835938 L 1.652344 -9.707031 L 1.277344 -9.640625 L -1.019531 -6.09375 L -0.941406 -5.664062 L 0.359375 -5.902344 L 0.921875 -2.824219 C 1.214844 -1.230469 2.367188 -0.433594 3.960938 -0.726562 L 5.355469 -0.980469 L 5.035156 -2.71875 Z M 4.152344 -2.558594 "/></g></g></g><g fill="#efdad0" fill-opacity="1"><g transform="translate(106.672664, 109.981252)"><g><path d="M 6.894531 -5.601562 C 6.359375 -7.65625 4.417969 -8.953125 2.234375 -8.382812 C 0.125 -7.835938 -1.03125 -5.804688 -0.476562 -3.671875 C 0.078125 -1.539062 2.097656 -0.320312 4.191406 -0.863281 C 5.847656 -1.296875 6.949219 -2.636719 7.058594 -4.324219 L 5.042969 -3.800781 C 4.886719 -3.210938 4.414062 -2.75 3.742188 -2.578125 C 2.808594 -2.332031 2.035156 -2.710938 1.613281 -3.640625 L 6.996094 -5.039062 C 6.976562 -5.230469 6.941406 -5.417969 6.894531 -5.601562 Z M 2.660156 -6.738281 C 3.53125 -6.964844 4.273438 -6.652344 4.777344 -5.855469 L 1.324219 -4.957031 C 1.328125 -5.855469 1.804688 -6.515625 2.660156 -6.738281 Z M 2.660156 -6.738281 "/></g></g></g></svg>