<svg xmlns="http://www.w3.org/2000/svg" xmlns:xlink="http://www.w3.org/1999/xlink" width="250" zoomAndPan="magnify" viewBox="0 0 187.5 187.499992" height="250" preserveAspectRatio="xMidYMid meet" version="1.0"><defs><clipPath id="e2379e8cf7"><path d="M 19 11 L 180 11 L 180 173 L 19 173 Z M 19 11 " clip-rule="nonzero"/></clipPath><clipPath id="8ce1b5777a"><path d="M 9.070312 162.636719 L 168.699219 3.007812 L 188.320312 22.628906 L 28.691406 182.257812 Z M 9.070312 162.636719 " clip-rule="nonzero"/></clipPath><clipPath id="d9e1defc61"><path d="M 9.070312 162.636719 L 168.699219 3.007812 L 298.097656 132.40625 L 138.46875 292.035156 Z M 9.070312 162.636719 " clip-rule="nonzero"/></clipPath><clipPath id="4fb171b260"><path d="M 13 8 L 179 8 L 179 174 L 13 174 Z M 13 8 " clip-rule="nonzero"/></clipPath><clipPath id="33907501f1"><path d="M 23.714844 -1.644531 L 187.589844 162.226562 L 167.433594 182.378906 L 3.5625 18.507812 Z M 23.714844 -1.644531 " clip-rule="nonzero"/></clipPath><clipPath id="f6dba86272"><path d="M 23.714844 -1.644531 L 187.589844 162.226562 L 55.003906 294.808594 L -108.867188 130.9375 Z M 23.714844 -1.644531 " clip-rule="nonzero"/></clipPath></defs><g clip-path="url(#e2379e8cf7)"><g clip-path="url(#8ce1b5777a)"><g clip-path="url(#d9e1defc61)"><path fill="#efdad0" d="M 115.808594 56.96875 C 92.371094 81.082031 28.617188 147.519531 21.277344 157.425781 C 13.785156 167.535156 29.515625 177.335938 37.941406 170.121094 C 57.320312 153.53125 181.558594 29.550781 175.894531 35.21875 C 188.398438 22.714844 168.941406 3.21875 156.417969 15.742188 C 161.855469 10.304688 125.363281 47.132812 115.808594 56.96875 Z M 115.808594 56.96875 " fill-opacity="1" fill-rule="nonzero"/></g></g></g><g clip-path="url(#4fb171b260)"><g clip-path="url(#33907501f1)"><g clip-path="url(#f6dba86272)"><path fill="#efdad0" d="M 132.191406 107.925781 C 107.441406 83.867188 39.238281 18.417969 29.070312 10.878906 C 18.699219 3.183594 8.660156 19.308594 16.070312 27.957031 C 33.101562 47.847656 160.378906 175.390625 154.5625 169.570312 C 167.398438 182.410156 187.371094 162.476562 174.515625 149.617188 C 180.09375 155.199219 142.292969 117.734375 132.191406 107.925781 Z M 132.191406 107.925781 " fill-opacity="1" fill-rule="nonzero"/></g></g></g></svg>