<svg xmlns="http://www.w3.org/2000/svg" xmlns:xlink="http://www.w3.org/1999/xlink" width="100" zoomAndPan="magnify" viewBox="0 0 187.5 187.499992" height="100" preserveAspectRatio="xMidYMid meet" version="1.0"><defs><clipPath id="ef6c339bd3"><path d="M 2 16.394531 L 186 16.394531 L 186 40 L 2 40 Z M 2 16.394531 " clip-rule="nonzero"/></clipPath><clipPath id="1a0ad032c7"><path d="M 2 147 L 186 147 L 186 170.894531 L 2 170.894531 Z M 2 147 " clip-rule="nonzero"/></clipPath></defs><g clip-path="url(#ef6c339bd3)"><path fill="#000000" d="M 125.34375 17.03125 C 96.859375 17.4375 18.867188 19.039062 8.535156 20.570312 C -2.007812 22.132812 1.542969 37.375 10.914062 38.097656 C 32.460938 39.761719 181.15625 39.917969 174.367188 39.917969 C 189.347656 39.917969 189.371094 16.664062 174.367188 16.664062 C 180.878906 16.664062 136.957031 16.863281 125.34375 17.03125 Z M 125.34375 17.03125 " fill-opacity="1" fill-rule="nonzero"/></g><path fill="#000000" d="M 125.34375 82.246094 C 96.859375 82.652344 18.867188 84.253906 8.535156 85.785156 C -2.007812 87.347656 1.542969 102.589844 10.914062 103.3125 C 32.460938 104.976562 181.15625 105.132812 174.367188 105.132812 C 189.347656 105.132812 189.371094 81.882812 174.367188 81.882812 C 180.878906 81.878906 136.957031 82.074219 125.34375 82.246094 Z M 125.34375 82.246094 " fill-opacity="1" fill-rule="nonzero"/><g clip-path="url(#1a0ad032c7)"><path fill="#000000" d="M 125.34375 147.460938 C 96.859375 147.863281 18.867188 149.46875 8.535156 151 C -2.007812 152.558594 1.542969 167.804688 10.914062 168.527344 C 32.460938 170.191406 181.15625 170.347656 174.367188 170.347656 C 189.347656 170.347656 189.371094 147.09375 174.367188 147.09375 C 180.878906 147.089844 136.957031 147.292969 125.34375 147.460938 Z M 125.34375 147.460938 " fill-opacity="1" fill-rule="nonzero"/></g></svg>