<svg xmlns="http://www.w3.org/2000/svg" xmlns:xlink="http://www.w3.org/1999/xlink" width="250" zoomAndPan="magnify" viewBox="0 0 187.5 187.499992" height="250" preserveAspectRatio="xMidYMid meet" version="1.0"><defs><clipPath id="e1bd70606e"><path d="M 3 19 L 187 19 L 187 43 L 3 43 Z M 3 19 " clip-rule="nonzero"/></clipPath><clipPath id="d9fcca50a5"><path d="M 3 84 L 187 84 L 187 108 L 3 108 Z M 3 84 " clip-rule="nonzero"/></clipPath><clipPath id="e0dc79aec4"><path d="M 3 149 L 187 149 L 187 173 L 3 173 Z M 3 149 " clip-rule="nonzero"/></clipPath><clipPath id="6825f079e4"><path d="M 2 16.394531 L 186 16.394531 L 186 40 L 2 40 Z M 2 16.394531 " clip-rule="nonzero"/></clipPath><clipPath id="0926b75ce0"><path d="M 2 147 L 186 147 L 186 170.894531 L 2 170.894531 Z M 2 147 " clip-rule="nonzero"/></clipPath></defs><g clip-path="url(#e1bd70606e)"><path fill="#efdad0" d="M 127.238281 19.386719 C 98.753906 19.789062 20.765625 21.394531 10.433594 22.925781 C -0.109375 24.484375 3.441406 39.730469 12.8125 40.453125 C 34.355469 42.117188 183.050781 42.273438 176.261719 42.273438 C 191.246094 42.273438 191.265625 19.019531 176.261719 19.019531 C 182.777344 19.019531 138.855469 19.21875 127.238281 19.386719 Z M 127.238281 19.386719 " fill-opacity="1" fill-rule="nonzero"/></g><g clip-path="url(#d9fcca50a5)"><path fill="#efdad0" d="M 127.238281 84.601562 C 98.753906 85.007812 20.765625 86.609375 10.433594 88.140625 C -0.109375 89.703125 3.441406 104.945312 12.8125 105.667969 C 34.355469 107.332031 183.050781 107.488281 176.261719 107.488281 C 191.246094 107.488281 191.265625 84.234375 176.261719 84.234375 C 182.777344 84.234375 138.855469 84.429688 127.238281 84.601562 Z M 127.238281 84.601562 " fill-opacity="1" fill-rule="nonzero"/></g><g clip-path="url(#e0dc79aec4)"><path fill="#efdad0" d="M 127.238281 149.816406 C 98.753906 150.21875 20.765625 151.820312 10.433594 153.355469 C -0.109375 154.914062 3.441406 170.15625 12.8125 170.878906 C 34.355469 172.546875 183.050781 172.699219 176.261719 172.699219 C 191.246094 172.699219 191.265625 149.449219 176.261719 149.449219 C 182.777344 149.445312 138.855469 149.644531 127.238281 149.816406 Z M 127.238281 149.816406 " fill-opacity="1" fill-rule="nonzero"/></g><g clip-path="url(#6825f079e4)"><path fill="#5b6468" d="M 125.34375 17.03125 C 96.859375 17.4375 18.867188 19.039062 8.535156 20.570312 C -2.007812 22.132812 1.542969 37.375 10.914062 38.097656 C 32.460938 39.761719 181.15625 39.917969 174.367188 39.917969 C 189.347656 39.917969 189.371094 16.664062 174.367188 16.664062 C 180.878906 16.664062 136.957031 16.863281 125.34375 17.03125 Z M 125.34375 17.03125 " fill-opacity="1" fill-rule="nonzero"/></g><path fill="#5b6468" d="M 125.34375 82.246094 C 96.859375 82.652344 18.867188 84.253906 8.535156 85.785156 C -2.007812 87.347656 1.542969 102.589844 10.914062 103.3125 C 32.460938 104.976562 181.15625 105.132812 174.367188 105.132812 C 189.347656 105.132812 189.371094 81.882812 174.367188 81.882812 C 180.878906 81.878906 136.957031 82.074219 125.34375 82.246094 Z M 125.34375 82.246094 " fill-opacity="1" fill-rule="nonzero"/><g clip-path="url(#0926b75ce0)"><path fill="#5b6468" d="M 125.34375 147.460938 C 96.859375 147.863281 18.867188 149.46875 8.535156 151 C -2.007812 152.558594 1.542969 167.804688 10.914062 168.527344 C 32.460938 170.191406 181.15625 170.347656 174.367188 170.347656 C 189.347656 170.347656 189.371094 147.09375 174.367188 147.09375 C 180.878906 147.089844 136.957031 147.292969 125.34375 147.460938 Z M 125.34375 147.460938 " fill-opacity="1" fill-rule="nonzero"/></g></svg>