<svg xmlns="http://www.w3.org/2000/svg" xmlns:xlink="http://www.w3.org/1999/xlink" width="143" zoomAndPan="magnify" viewBox="0 0 187.5 131.249995" height="100" preserveAspectRatio="xMidYMid meet" version="1.0"><defs><g/><clipPath id="5523746986"><path d="M 18 1.03125 L 169 1.03125 L 169 93 L 18 93 Z M 18 1.03125 " clip-rule="nonzero"/></clipPath><clipPath id="826eb6e461"><path d="M 0.285156 96 L 186.71875 96 L 186.71875 129.640625 L 0.285156 129.640625 Z M 0.285156 96 " clip-rule="nonzero"/></clipPath><clipPath id="7d24f50b8e"><path d="M 73.269531 15.558594 L 114.394531 15.558594 L 114.394531 56.683594 L 73.269531 56.683594 Z M 73.269531 15.558594 " clip-rule="nonzero"/></clipPath></defs><g clip-path="url(#5523746986)"><path fill="#efdad0" d="M 20.820312 90.585938 C 22.917969 92.425781 25.703125 92.734375 27.355469 92.734375 C 27.859375 92.734375 28.261719 92.707031 28.503906 92.683594 L 156.617188 92.683594 C 164.085938 92.683594 166.816406 87.636719 167.21875 84.964844 L 167.246094 84.785156 L 167.246094 84.605469 C 167.246094 83.929688 168.351562 16.976562 168.4375 10.261719 C 168.480469 6.710938 167.085938 4.613281 165.878906 3.480469 C 163.371094 1.09375 160.015625 1.085938 159.28125 1.121094 C 155.9375 1.121094 37.339844 1.152344 29.816406 1.121094 L 29.75 1.121094 C 26.515625 1.121094 23.878906 2.109375 21.910156 4.0625 C 18.792969 7.160156 18.707031 11.433594 18.707031 11.894531 L 18.300781 84.558594 C 18.300781 87.714844 19.671875 89.578125 20.820312 90.585938 Z M 24.199219 11.929688 C 24.253906 10.890625 24.523438 9.910156 25.011719 8.988281 C 25.921875 7.339844 27.433594 6.570312 29.78125 6.570312 L 29.824219 6.570312 C 37.417969 6.601562 158.144531 6.570312 159.363281 6.570312 L 159.535156 6.570312 C 159.535156 6.570312 161.191406 6.542969 162.132812 7.441406 C 162.722656 8 163.011719 8.925781 162.996094 10.199219 C 162.910156 16.691406 161.882812 79.621094 161.808594 84.261719 C 161.609375 85.007812 160.683594 87.242188 156.628906 87.242188 L 28.015625 87.242188 C 27.390625 87.316406 25.386719 87.332031 24.417969 86.472656 C 24.136719 86.222656 23.765625 85.75 23.765625 84.566406 Z M 24.199219 11.929688 " fill-opacity="1" fill-rule="nonzero"/></g><g clip-path="url(#826eb6e461)"><path fill="#efdad0" d="M 187.097656 123.1875 L 187.042969 122.4375 L 169.4375 97.359375 C 169.222656 97.082031 168.964844 96.855469 168.660156 96.679688 C 168.359375 96.503906 168.035156 96.390625 167.6875 96.339844 C 167.34375 96.289062 167 96.304688 166.660156 96.382812 C 166.320312 96.464844 166.003906 96.605469 165.71875 96.804688 C 165.433594 97.007812 165.195312 97.253906 165.003906 97.546875 C 164.808594 97.839844 164.679688 98.15625 164.609375 98.496094 C 164.542969 98.839844 164.539062 99.183594 164.601562 99.527344 C 164.664062 99.871094 164.789062 100.191406 164.972656 100.488281 L 181.34375 123.808594 C 180.6875 124.039062 180.011719 124.152344 179.316406 124.148438 L 179.242188 124.148438 C 177.550781 124.148438 12.058594 123.394531 7.285156 123.394531 C 6.984375 123.40625 6.6875 123.371094 6.398438 123.289062 C 6.394531 123.199219 6.394531 123.109375 6.398438 123.015625 L 21.175781 101.519531 C 21.378906 101.222656 21.519531 100.894531 21.59375 100.542969 C 21.671875 100.1875 21.675781 99.835938 21.609375 99.480469 C 21.542969 99.125 21.410156 98.792969 21.214844 98.492188 C 21.015625 98.1875 20.769531 97.933594 20.472656 97.730469 C 20.171875 97.523438 19.847656 97.382812 19.492188 97.308594 C 19.136719 97.234375 18.78125 97.230469 18.425781 97.296875 C 18.070312 97.363281 17.742188 97.492188 17.4375 97.691406 C 17.132812 97.886719 16.878906 98.136719 16.675781 98.433594 L 1.390625 120.679688 L 1.269531 121.046875 C 1.164062 121.363281 0.289062 124.203125 1.945312 126.511719 C 2.710938 127.570312 4.257812 128.835938 7.269531 128.835938 C 12.003906 128.835938 176.039062 129.574219 179.171875 129.589844 L 179.390625 129.589844 C 180.484375 129.589844 183.660156 129.402344 185.613281 127.375 C 186.152344 126.816406 186.554688 126.175781 186.8125 125.441406 C 187.070312 124.710938 187.167969 123.960938 187.097656 123.1875 Z M 187.097656 123.1875 " fill-opacity="1" fill-rule="nonzero"/></g><path fill="#efdad0" d="M 103.597656 110.554688 L 86.355469 110.554688 C 84.5 110.65625 83.191406 111.300781 82.46875 112.464844 C 81.457031 114.101562 82.191406 115.949219 82.28125 116.148438 L 82.460938 116.566406 L 87.613281 120.277344 L 101.773438 120.132812 L 107.078125 116.335938 L 107.179688 115.660156 C 107.246094 115.253906 107.492188 113.136719 106.261719 111.707031 C 105.925781 111.324219 105.527344 111.03125 105.058594 110.832031 C 104.59375 110.628906 104.105469 110.535156 103.597656 110.554688 Z M 100.695312 116.882812 L 88.652344 117.003906 L 85.199219 114.523438 C 85.179688 114.40625 85.191406 114.292969 85.234375 114.1875 C 85.300781 114.085938 85.644531 113.878906 86.480469 113.828125 L 103.582031 113.828125 C 103.640625 113.828125 103.699219 113.832031 103.753906 113.84375 C 103.878906 114.066406 103.941406 114.304688 103.9375 114.558594 Z M 100.695312 116.882812 " fill-opacity="1" fill-rule="nonzero"/><g fill="#5b6468" fill-opacity="0.4"><g transform="translate(34.089734, 79.519966)"><g><path d="M 3.636719 -3.71875 L 9.601562 -3.71875 L 11.007812 0 L 13.277344 0 L 7.375 -14.894531 L 5.820312 -14.894531 L -0.0859375 0 L 2.207031 0 Z M 8.824219 -5.714844 L 4.414062 -5.714844 L 6.617188 -11.515625 Z M 8.824219 -5.714844 "/></g></g></g><g fill="#5b6468" fill-opacity="0.4"><g transform="translate(51.94806, 79.519966)"><g><path d="M 1.808594 -14.707031 L 1.808594 0 L 3.929688 0 L 3.929688 -10.273438 L 11.03125 0 L 12.710938 0 L 12.710938 -14.707031 L 10.609375 -14.707031 L 10.609375 -4.347656 L 3.445312 -14.707031 Z M 1.808594 -14.707031 "/></g></g></g><g fill="#5b6468" fill-opacity="0.4"><g transform="translate(71.003887, 79.519966)"><g><path d="M 13.089844 -9.539062 L 15.402344 -9.539062 C 14.601562 -13.53125 11.136719 -14.9375 8.257812 -14.9375 C 4.117188 -14.9375 0.882812 -11.765625 0.882812 -7.332031 C 0.882812 -2.921875 4.054688 0.253906 8.257812 0.253906 C 10.988281 0.253906 14.054688 -1.742188 15.085938 -4.601562 L 15.085938 -4.582031 C 15.296875 -5.085938 15.402344 -5.925781 15.503906 -7.183594 L 7.417969 -7.183594 L 7.417969 -5.019531 L 12.964844 -5.019531 C 12.082031 -2.835938 10.105469 -1.828125 8.257812 -1.828125 C 5.316406 -1.828125 3.046875 -4.160156 3.046875 -7.332031 C 3.046875 -10.484375 5.316406 -12.773438 8.257812 -12.773438 C 10.167969 -12.773438 12.480469 -11.953125 13.089844 -9.539062 Z M 13.089844 -9.539062 "/></g></g></g><g fill="#5b6468" fill-opacity="0.4"><g transform="translate(92.160594, 79.519966)"><g><path d="M 10.777344 -2.121094 L 3.949219 -2.121094 L 3.949219 -6.449219 L 10.609375 -6.449219 L 10.609375 -8.59375 L 3.949219 -8.59375 L 3.949219 -12.730469 L 10.757812 -12.730469 L 10.757812 -14.855469 L 1.808594 -14.855469 L 1.808594 0 L 10.777344 0 Z M 10.777344 -2.121094 "/></g></g></g><g fill="#5b6468" fill-opacity="0.4"><g transform="translate(108.422259, 79.519966)"><g><path d="M 10.839844 -2.121094 L 3.929688 -2.121094 L 3.929688 -14.707031 L 1.808594 -14.707031 L 1.808594 0 L 10.839844 0 Z M 10.839844 -2.121094 "/></g></g></g><g fill="#5b6468" fill-opacity="0.4"><g transform="translate(123.906596, 79.519966)"><g><path d="M 3.636719 -3.71875 L 9.601562 -3.71875 L 11.007812 0 L 13.277344 0 L 7.375 -14.894531 L 5.820312 -14.894531 L -0.0859375 0 L 2.207031 0 Z M 8.824219 -5.714844 L 4.414062 -5.714844 L 6.617188 -11.515625 Z M 8.824219 -5.714844 "/></g></g></g><g fill="#5b6468" fill-opacity="0.4"><g transform="translate(141.764925, 79.519966)"><g><path d="M 7.921875 -14.855469 L 1.808594 -14.855469 L 1.808594 0 L 8.445312 0 C 11.261719 0 12.710938 -2.226562 12.710938 -4.433594 C 12.710938 -5.820312 12.101562 -7.375 10.421875 -8.089844 C 11.429688 -8.84375 11.890625 -9.917969 11.890625 -10.988281 C 11.890625 -12.941406 10.359375 -14.855469 7.921875 -14.855469 Z M 7.878906 -8.84375 L 3.90625 -8.84375 L 3.90625 -12.835938 L 7.921875 -12.835938 C 9.117188 -12.835938 9.6875 -11.890625 9.6875 -10.90625 C 9.6875 -9.894531 9.054688 -8.84375 7.878906 -8.84375 Z M 8.445312 -2.058594 L 3.90625 -2.058594 L 3.90625 -6.746094 L 8.445312 -6.746094 C 9.875 -6.746094 10.589844 -5.566406 10.589844 -4.414062 C 10.589844 -3.257812 9.875 -2.058594 8.445312 -2.058594 Z M 8.445312 -2.058594 "/></g></g></g><g fill="#efdad0" fill-opacity="1"><g transform="translate(33.161098, 78.591327)"><g><path d="M 3.636719 -3.71875 L 9.601562 -3.71875 L 11.007812 0 L 13.277344 0 L 7.375 -14.894531 L 5.820312 -14.894531 L -0.0859375 0 L 2.207031 0 Z M 8.824219 -5.714844 L 4.414062 -5.714844 L 6.617188 -11.515625 Z M 8.824219 -5.714844 "/></g></g></g><g fill="#efdad0" fill-opacity="1"><g transform="translate(51.019424, 78.591327)"><g><path d="M 1.808594 -14.707031 L 1.808594 0 L 3.929688 0 L 3.929688 -10.273438 L 11.03125 0 L 12.710938 0 L 12.710938 -14.707031 L 10.609375 -14.707031 L 10.609375 -4.347656 L 3.445312 -14.707031 Z M 1.808594 -14.707031 "/></g></g></g><g fill="#efdad0" fill-opacity="1"><g transform="translate(70.075251, 78.591327)"><g><path d="M 13.089844 -9.539062 L 15.402344 -9.539062 C 14.601562 -13.53125 11.136719 -14.9375 8.257812 -14.9375 C 4.117188 -14.9375 0.882812 -11.765625 0.882812 -7.332031 C 0.882812 -2.921875 4.054688 0.253906 8.257812 0.253906 C 10.988281 0.253906 14.054688 -1.742188 15.085938 -4.601562 L 15.085938 -4.582031 C 15.296875 -5.085938 15.402344 -5.925781 15.503906 -7.183594 L 7.417969 -7.183594 L 7.417969 -5.019531 L 12.964844 -5.019531 C 12.082031 -2.835938 10.105469 -1.828125 8.257812 -1.828125 C 5.316406 -1.828125 3.046875 -4.160156 3.046875 -7.332031 C 3.046875 -10.484375 5.316406 -12.773438 8.257812 -12.773438 C 10.167969 -12.773438 12.480469 -11.953125 13.089844 -9.539062 Z M 13.089844 -9.539062 "/></g></g></g><g fill="#efdad0" fill-opacity="1"><g transform="translate(91.231958, 78.591327)"><g><path d="M 10.777344 -2.121094 L 3.949219 -2.121094 L 3.949219 -6.449219 L 10.609375 -6.449219 L 10.609375 -8.59375 L 3.949219 -8.59375 L 3.949219 -12.730469 L 10.757812 -12.730469 L 10.757812 -14.855469 L 1.808594 -14.855469 L 1.808594 0 L 10.777344 0 Z M 10.777344 -2.121094 "/></g></g></g><g fill="#efdad0" fill-opacity="1"><g transform="translate(107.493623, 78.591327)"><g><path d="M 10.839844 -2.121094 L 3.929688 -2.121094 L 3.929688 -14.707031 L 1.808594 -14.707031 L 1.808594 0 L 10.839844 0 Z M 10.839844 -2.121094 "/></g></g></g><g fill="#efdad0" fill-opacity="1"><g transform="translate(122.97796, 78.591327)"><g><path d="M 3.636719 -3.71875 L 9.601562 -3.71875 L 11.007812 0 L 13.277344 0 L 7.375 -14.894531 L 5.820312 -14.894531 L -0.0859375 0 L 2.207031 0 Z M 8.824219 -5.714844 L 4.414062 -5.714844 L 6.617188 -11.515625 Z M 8.824219 -5.714844 "/></g></g></g><g fill="#efdad0" fill-opacity="1"><g transform="translate(140.836289, 78.591327)"><g><path d="M 7.921875 -14.855469 L 1.808594 -14.855469 L 1.808594 0 L 8.445312 0 C 11.261719 0 12.710938 -2.226562 12.710938 -4.433594 C 12.710938 -5.820312 12.101562 -7.375 10.421875 -8.089844 C 11.429688 -8.84375 11.890625 -9.917969 11.890625 -10.988281 C 11.890625 -12.941406 10.359375 -14.855469 7.921875 -14.855469 Z M 7.878906 -8.84375 L 3.90625 -8.84375 L 3.90625 -12.835938 L 7.921875 -12.835938 C 9.117188 -12.835938 9.6875 -11.890625 9.6875 -10.90625 C 9.6875 -9.894531 9.054688 -8.84375 7.878906 -8.84375 Z M 8.445312 -2.058594 L 3.90625 -2.058594 L 3.90625 -6.746094 L 8.445312 -6.746094 C 9.875 -6.746094 10.589844 -5.566406 10.589844 -4.414062 C 10.589844 -3.257812 9.875 -2.058594 8.445312 -2.058594 Z M 8.445312 -2.058594 "/></g></g></g><g clip-path="url(#7d24f50b8e)"><path fill="#efdad0" d="M 96.457031 28.136719 C 96.058594 27.984375 95.613281 28.183594 95.460938 28.578125 L 89.886719 43.113281 C 89.734375 43.511719 89.929688 43.957031 90.328125 44.105469 C 90.417969 44.140625 90.511719 44.160156 90.601562 44.160156 C 90.910156 44.160156 91.207031 43.972656 91.324219 43.664062 L 96.898438 29.132812 C 97.054688 28.734375 96.855469 28.289062 96.457031 28.136719 Z M 107.09375 35.59375 L 100.144531 28.230469 C 99.851562 27.921875 99.363281 27.90625 99.058594 28.199219 C 98.746094 28.492188 98.734375 28.980469 99.023438 29.285156 L 105.476562 36.121094 L 99.023438 42.953125 C 98.734375 43.265625 98.746094 43.75 99.058594 44.042969 C 99.203125 44.1875 99.398438 44.253906 99.582031 44.253906 C 99.789062 44.253906 99.996094 44.171875 100.144531 44.015625 L 107.097656 36.65625 C 107.375 36.355469 107.375 35.890625 107.09375 35.59375 Z M 87.726562 28.199219 C 87.421875 27.90625 86.933594 27.921875 86.640625 28.230469 L 79.6875 35.59375 C 79.410156 35.886719 79.410156 36.351562 79.6875 36.652344 L 86.640625 44.015625 C 86.789062 44.171875 86.996094 44.253906 87.199219 44.253906 C 87.390625 44.253906 87.578125 44.1875 87.726562 44.042969 C 88.039062 43.75 88.054688 43.265625 87.761719 42.957031 L 81.308594 36.121094 L 87.761719 29.289062 C 88.054688 28.980469 88.039062 28.492188 87.726562 28.199219 Z M 93.832031 55.144531 C 83.34375 55.144531 74.8125 46.609375 74.8125 36.121094 C 74.8125 35.328125 74.859375 34.53125 74.957031 33.757812 C 76.132812 24.261719 84.25 17.097656 93.832031 17.097656 C 96.289062 17.097656 98.679688 17.558594 100.929688 18.46875 C 108.175781 21.382812 112.855469 28.3125 112.855469 36.121094 C 112.855469 46.609375 104.320312 55.144531 93.832031 55.144531 Z M 101.507812 17.039062 C 99.070312 16.054688 96.488281 15.558594 93.832031 15.558594 C 83.472656 15.558594 74.699219 23.300781 73.425781 33.570312 C 73.320312 34.40625 73.269531 35.265625 73.269531 36.121094 C 73.269531 47.460938 82.492188 56.683594 93.832031 56.683594 C 105.167969 56.683594 114.394531 47.460938 114.394531 36.121094 C 114.394531 27.675781 109.339844 20.1875 101.503906 17.039062 L 101.507812 17.039062 " fill-opacity="1" fill-rule="nonzero"/></g></svg>