<svg xmlns="http://www.w3.org/2000/svg" xmlns:xlink="http://www.w3.org/1999/xlink" width="100" zoomAndPan="magnify" viewBox="0 0 375 374.999991" height="100" preserveAspectRatio="xMidYMid meet" version="1.0"><defs><g/><clipPath id="28a89f2dde"><path d="M 133 76 L 157 76 L 157 139 L 133 139 Z M 133 76 " clip-rule="nonzero"/></clipPath><clipPath id="ca7fdfa819"><path d="M 202.347656 0 L 397.007812 183.84375 L 168.363281 425.941406 L -26.296875 242.101562 Z M 202.347656 0 " clip-rule="nonzero"/></clipPath><clipPath id="14e6df45c5"><path d="M 202.347656 0 L 397.007812 183.84375 L 168.363281 425.941406 L -26.296875 242.101562 Z M 202.347656 0 " clip-rule="nonzero"/></clipPath><clipPath id="d53c17664f"><path d="M 133 75 L 158 75 L 158 139 L 133 139 Z M 133 75 " clip-rule="nonzero"/></clipPath><clipPath id="9516ceb5ee"><path d="M 202.347656 0 L 397.007812 183.84375 L 168.363281 425.941406 L -26.296875 242.101562 Z M 202.347656 0 " clip-rule="nonzero"/></clipPath><clipPath id="19acd1d034"><path d="M 202.347656 0 L 397.007812 183.84375 L 168.363281 425.941406 L -26.296875 242.101562 Z M 202.347656 0 " clip-rule="nonzero"/></clipPath><clipPath id="a53defda5b"><path d="M 10 101 L 359 101 L 359 312 L 10 312 Z M 10 101 " clip-rule="nonzero"/></clipPath><clipPath id="a56497dce9"><path d="M 202.347656 0 L 397.007812 183.84375 L 168.363281 425.941406 L -26.296875 242.101562 Z M 202.347656 0 " clip-rule="nonzero"/></clipPath><clipPath id="bdb08c67a9"><path d="M 202.347656 0 L 397.007812 183.84375 L 168.363281 425.941406 L -26.296875 242.101562 Z M 202.347656 0 " clip-rule="nonzero"/></clipPath><clipPath id="2e524fdd2e"><path d="M 9 100 L 361 100 L 361 313 L 9 313 Z M 9 100 " clip-rule="nonzero"/></clipPath><clipPath id="e352e78f18"><path d="M 202.347656 0 L 397.007812 183.84375 L 168.363281 425.941406 L -26.296875 242.101562 Z M 202.347656 0 " clip-rule="nonzero"/></clipPath><clipPath id="945fefaca6"><path d="M 202.347656 0 L 397.007812 183.84375 L 168.363281 425.941406 L -26.296875 242.101562 Z M 202.347656 0 " clip-rule="nonzero"/></clipPath><clipPath id="c71faaeea9"><path d="M 57 223 L 324 223 L 324 305 L 57 305 Z M 57 223 " clip-rule="nonzero"/></clipPath><clipPath id="729cd3acc7"><path d="M 202.347656 0 L 397.007812 183.84375 L 168.363281 425.941406 L -26.296875 242.101562 Z M 202.347656 0 " clip-rule="nonzero"/></clipPath><clipPath id="ae3c5ae12d"><path d="M 202.347656 0 L 397.007812 183.84375 L 168.363281 425.941406 L -26.296875 242.101562 Z M 202.347656 0 " clip-rule="nonzero"/></clipPath><clipPath id="9d589971b1"><path d="M 56 222 L 325 222 L 325 306 L 56 306 Z M 56 222 " clip-rule="nonzero"/></clipPath><clipPath id="97ab6d21b9"><path d="M 202.347656 0 L 397.007812 183.84375 L 168.363281 425.941406 L -26.296875 242.101562 Z M 202.347656 0 " clip-rule="nonzero"/></clipPath><clipPath id="a97da9906b"><path d="M 202.347656 0 L 397.007812 183.84375 L 168.363281 425.941406 L -26.296875 242.101562 Z M 202.347656 0 " clip-rule="nonzero"/></clipPath><clipPath id="298d7e6a00"><path d="M 11 102 L 358 102 L 358 286 L 11 286 Z M 11 102 " clip-rule="nonzero"/></clipPath><clipPath id="4b1af8f6c7"><path d="M 202.347656 0 L 397.007812 183.84375 L 168.363281 425.941406 L -26.296875 242.101562 Z M 202.347656 0 " clip-rule="nonzero"/></clipPath><clipPath id="dad34c484d"><path d="M 202.347656 0 L 397.007812 183.84375 L 168.363281 425.941406 L -26.296875 242.101562 Z M 202.347656 0 " clip-rule="nonzero"/></clipPath><clipPath id="44b4738537"><path d="M 119 120 L 187 120 L 187 177 L 119 177 Z M 119 120 " clip-rule="nonzero"/></clipPath><clipPath id="eeec18a5d3"><path d="M 202.347656 0 L 397.007812 183.84375 L 168.363281 425.941406 L -26.296875 242.101562 Z M 202.347656 0 " clip-rule="nonzero"/></clipPath><clipPath id="322274371a"><path d="M 202.347656 0 L 397.007812 183.84375 L 168.363281 425.941406 L -26.296875 242.101562 Z M 202.347656 0 " clip-rule="nonzero"/></clipPath><clipPath id="d49e3584a0"><path d="M 63 132 L 133 132 L 133 196 L 63 196 Z M 63 132 " clip-rule="nonzero"/></clipPath><clipPath id="df3960e80e"><path d="M 202.347656 0 L 397.007812 183.84375 L 168.363281 425.941406 L -26.296875 242.101562 Z M 202.347656 0 " clip-rule="nonzero"/></clipPath><clipPath id="3c51530caf"><path d="M 202.347656 0 L 397.007812 183.84375 L 168.363281 425.941406 L -26.296875 242.101562 Z M 202.347656 0 " clip-rule="nonzero"/></clipPath><clipPath id="096574581f"><path d="M 6 72 L 363 72 L 363 316 L 6 316 Z M 6 72 " clip-rule="nonzero"/></clipPath><clipPath id="9f21550910"><path d="M 202.347656 0 L 397.007812 183.84375 L 168.363281 425.941406 L -26.296875 242.101562 Z M 202.347656 0 " clip-rule="nonzero"/></clipPath><clipPath id="d71bb59a2e"><path d="M 202.347656 0 L 397.007812 183.84375 L 168.363281 425.941406 L -26.296875 242.101562 Z M 202.347656 0 " clip-rule="nonzero"/></clipPath></defs><g clip-path="url(#28a89f2dde)"><g clip-path="url(#ca7fdfa819)"><g clip-path="url(#14e6df45c5)"><path fill="#628b8e" d="M 156.308594 135.949219 L 143.980469 138.035156 C 143.839844 138.054688 143.707031 137.964844 143.683594 137.824219 L 133.722656 78.4375 C 133.703125 78.300781 133.796875 78.164062 133.9375 78.140625 L 146.265625 76.058594 C 146.402344 76.035156 146.535156 76.132812 146.5625 76.269531 L 156.519531 135.652344 C 156.542969 135.792969 156.449219 135.925781 156.308594 135.949219 " fill-opacity="1" fill-rule="nonzero"/></g></g></g><g clip-path="url(#d53c17664f)"><g clip-path="url(#9516ceb5ee)"><g clip-path="url(#19acd1d034)"><path fill="#6f0200" d="M 144.671875 77.910156 C 144.246094 77.703125 143.773438 77.636719 143.300781 77.714844 L 137.277344 78.734375 C 136.671875 78.835938 136.140625 79.167969 135.78125 79.675781 C 135.421875 80.179688 135.277344 80.792969 135.378906 81.398438 L 144.28125 134.480469 C 144.382812 135.085938 144.714844 135.617188 145.222656 135.976562 C 145.722656 136.332031 146.339844 136.476562 146.945312 136.375 L 152.96875 135.359375 C 154.226562 135.144531 155.078125 133.949219 154.867188 132.695312 L 145.960938 79.609375 C 145.863281 79.003906 145.527344 78.476562 145.023438 78.117188 C 144.910156 78.035156 144.792969 77.96875 144.671875 77.910156 M 144.589844 138.246094 C 144.351562 138.132812 144.121094 137.996094 143.894531 137.839844 C 142.894531 137.125 142.234375 136.066406 142.03125 134.859375 L 133.128906 81.777344 C 132.925781 80.570312 133.207031 79.355469 133.921875 78.351562 C 134.636719 77.347656 135.695312 76.6875 136.898438 76.484375 L 142.925781 75.464844 C 144.132812 75.261719 145.347656 75.542969 146.347656 76.253906 C 147.351562 76.96875 148.015625 78.023438 148.214844 79.230469 L 157.117188 132.3125 C 157.539062 134.8125 155.84375 137.1875 153.34375 137.609375 L 147.320312 138.628906 C 146.382812 138.785156 145.4375 138.652344 144.589844 138.246094 " fill-opacity="1" fill-rule="nonzero"/></g></g></g><g clip-path="url(#a53defda5b)"><g clip-path="url(#a56497dce9)"><g clip-path="url(#bdb08c67a9)"><path fill="#628b8e" d="M 28.238281 288.367188 C 23.167969 285.945312 20.941406 274.769531 18.972656 264.902344 C 18.234375 261.1875 17.535156 257.6875 16.777344 255.242188 C 16.0625 252.910156 14.996094 250.609375 13.964844 248.382812 C 10.945312 241.871094 7.824219 235.136719 13.0625 227.179688 C 13.382812 226.691406 13.777344 226.070312 14.25 225.332031 C 54.191406 162.738281 113.46875 130.53125 156.191406 114.527344 C 158.082031 113.496094 190.398438 96.355469 237.1875 103.515625 C 271.363281 108.75 308.726562 122.664062 330.335938 132.988281 C 336.324219 135.847656 346.828125 141.1875 349.914062 144.800781 C 356.882812 152.96875 361.488281 158.363281 357.347656 170.992188 C 355.691406 176.042969 351.773438 185.339844 347.628906 195.191406 C 342.589844 207.152344 336.320312 222.039062 336.484375 224.300781 C 336.730469 227.714844 336.945312 239.453125 329.25 247.148438 C 325.03125 251.371094 286.929688 273.253906 233.484375 290.878906 C 190.949219 304.910156 126.875 321.558594 61.8125 304.203125 L 61.667969 304.164062 L 61.539062 304.089844 C 61.429688 304.023438 50.363281 297.683594 40.949219 293.183594 C 34.160156 289.941406 31.0625 289.011719 29.660156 288.804688 C 29.175781 288.730469 28.699219 288.585938 28.238281 288.367188 " fill-opacity="1" fill-rule="nonzero"/></g></g></g><g clip-path="url(#2e524fdd2e)"><g clip-path="url(#e352e78f18)"><g clip-path="url(#945fefaca6)"><path fill="#6f0200" d="M 330.828125 131.957031 C 309.148438 121.597656 271.65625 107.636719 237.359375 102.386719 C 190.226562 95.171875 158.550781 111.917969 155.707031 113.488281 C 115.960938 128.386719 81.363281 149.667969 52.855469 176.75 C 30.109375 198.351562 17.890625 217.507812 13.285156 224.71875 C 12.820312 225.453125 12.421875 226.066406 12.105469 226.550781 C 6.523438 235.042969 9.925781 242.386719 12.925781 248.863281 C 13.941406 251.058594 14.996094 253.324219 15.691406 255.578125 C 16.425781 257.96875 17.121094 261.445312 17.851562 265.125 C 19.972656 275.746094 22.164062 286.730469 27.742188 289.398438 C 28.304688 289.664062 28.894531 289.84375 29.492188 289.9375 C 30.816406 290.132812 33.792969 291.03125 40.453125 294.214844 C 49.832031 298.695312 60.863281 305.015625 60.972656 305.078125 L 61.230469 305.226562 L 61.519531 305.304688 C 89.433594 312.75 120.175781 314.59375 152.886719 310.78125 C 177.777344 307.878906 204.257812 301.726562 233.84375 291.96875 C 287.460938 274.28125 325.789062 252.222656 330.058594 247.953125 C 338.09375 239.917969 337.882812 227.75 337.625 224.214844 C 337.65625 221.808594 344.027344 206.679688 348.679688 195.632812 C 352.835938 185.761719 356.761719 176.441406 358.433594 171.347656 C 362.769531 158.109375 357.742188 152.21875 350.78125 144.058594 C 347.558594 140.285156 336.894531 134.855469 330.828125 131.957031 Z M 329.84375 134.015625 C 339.898438 138.824219 346.886719 143.015625 349.042969 145.542969 C 355.972656 153.664062 360.179688 158.683594 356.261719 170.640625 C 352.34375 182.597656 335.03125 220.023438 335.34375 224.382812 C 335.664062 228.746094 335.359375 239.421875 328.445312 246.339844 C 324.761719 250.023438 287.726562 271.789062 233.128906 289.796875 C 185.171875 305.617188 123.414062 319.453125 62.109375 303.097656 C 62.109375 303.097656 51.007812 296.722656 41.4375 292.152344 C 36.65625 289.867188 32.261719 288.035156 29.832031 287.675781 C 29.449219 287.621094 29.082031 287.503906 28.730469 287.335938 C 22.339844 284.285156 20.546875 263.59375 17.871094 254.902344 C 15.046875 245.738281 7.394531 237.871094 14.015625 227.808594 C 20.632812 217.742188 58.570312 152.285156 156.667969 115.570312 C 156.667969 115.570312 188.859375 97.273438 237.011719 104.644531 C 270.191406 109.722656 307.550781 123.367188 329.84375 134.015625 " fill-opacity="1" fill-rule="nonzero"/></g></g></g><g clip-path="url(#c71faaeea9)"><g clip-path="url(#729cd3acc7)"><g clip-path="url(#ae3c5ae12d)"><path fill="#ec3aab" d="M 200.617188 232.171875 C 140.660156 246.804688 53.925781 272.367188 57.992188 289.101562 C 62.054688 305.835938 162.199219 310.136719 222.152344 295.507812 C 282.105469 280.875 327.414062 255.445312 323.347656 238.714844 C 319.285156 221.980469 260.570312 217.542969 200.617188 232.171875 " fill-opacity="1" fill-rule="nonzero"/></g></g></g><g clip-path="url(#9d589971b1)"><g clip-path="url(#97ab6d21b9)"><g clip-path="url(#a97da9906b)"><path fill="#6f0200" d="M 314.117188 231.136719 C 307.292969 227.875 296.539062 225.644531 282.871094 224.820312 C 258.777344 223.363281 228.894531 226.445312 200.886719 233.28125 C 111.835938 255.011719 56.179688 276.820312 59.101562 288.832031 C 60.835938 295.984375 84.414062 301.519531 119.160156 302.925781 C 155.015625 304.375 194.375 301.109375 221.882812 294.398438 C 280.125 280.183594 326.082031 254.804688 322.238281 238.984375 C 321.507812 235.976562 318.699219 233.324219 314.117188 231.136719 Z M 64.164062 296.246094 C 60.226562 294.367188 57.542969 292.101562 56.878906 289.375 C 52.058594 269.523438 155.605469 241.984375 200.347656 231.0625 C 228.570312 224.175781 258.695312 221.070312 283.011719 222.539062 C 307.253906 224.007812 322.359375 229.800781 324.460938 238.441406 C 328.738281 256.054688 283.917969 281.609375 222.421875 296.617188 C 194.722656 303.375 155.121094 306.667969 119.066406 305.207031 C 108.265625 304.773438 78.230469 302.96875 64.164062 296.246094 " fill-opacity="1" fill-rule="nonzero"/></g></g></g><g clip-path="url(#298d7e6a00)"><g clip-path="url(#4b1af8f6c7)"><g clip-path="url(#dad34c484d)"><path fill="#2f5a58" d="M 46.003906 237.316406 C 69.410156 204.824219 241.230469 135.808594 296.007812 145.382812 C 322.113281 149.945312 342.9375 155.5625 357.601562 160.195312 C 356.875 154.789062 353.542969 150.816406 349.042969 145.542969 C 342.113281 137.421875 285.164062 112.019531 237.011719 104.644531 C 188.859375 97.273438 156.667969 115.570312 156.667969 115.570312 C 58.570312 152.285156 20.632812 217.742188 14.015625 227.808594 C 7.394531 237.871094 15.046875 245.738281 17.871094 254.902344 C 20.222656 262.535156 21.894531 279.410156 26.59375 285.480469 C 26.96875 276.664062 30.101562 259.386719 46.003906 237.316406 " fill-opacity="1" fill-rule="nonzero"/></g></g></g><g clip-path="url(#44b4738537)"><g clip-path="url(#eeec18a5d3)"><g clip-path="url(#322274371a)"><path fill="#ec3aab" d="M 119.300781 175.304688 C 115.835938 172.03125 145.230469 159.878906 147.6875 142.25 C 147.6875 142.25 152.554688 123.828125 167.65625 121.160156 C 173.230469 120.175781 177.980469 121.757812 181.265625 124.863281 C 186.875 130.160156 188.207031 139.886719 182.074219 148.800781 C 172.351562 162.925781 141.097656 176.648438 123.554688 176.171875 C 121.183594 176.109375 119.839844 175.8125 119.300781 175.304688 " fill-opacity="1" fill-rule="nonzero"/></g></g></g><g clip-path="url(#d49e3584a0)"><g clip-path="url(#df3960e80e)"><g clip-path="url(#3c51530caf)"><path fill="#ec3aab" d="M 64.425781 194.222656 C 60.054688 190.09375 72.371094 172.753906 82.128906 165.484375 C 91.558594 158.457031 114.082031 140.808594 127.097656 132.824219 C 128.566406 131.921875 130.121094 132.28125 131.121094 133.222656 C 132.214844 134.257812 132.640625 135.984375 131.574219 137.535156 C 121.710938 151.859375 99.503906 181.496094 78.347656 191.625 C 70.394531 195.433594 66.132812 195.835938 64.425781 194.222656 " fill-opacity="1" fill-rule="nonzero"/></g></g></g><g clip-path="url(#096574581f)"><g clip-path="url(#9f21550910)"><g clip-path="url(#d71bb59a2e)"><path fill="#6f0200" d="M 331.8125 129.894531 C 309.992188 119.46875 272.253906 105.417969 237.707031 100.128906 C 195.605469 93.6875 165.53125 106.117188 156.902344 110.3125 L 151.808594 79.917969 C 151.304688 76.941406 149.375 74.382812 146.644531 73.074219 C 144.910156 72.246094 142.992188 71.976562 141.101562 72.296875 L 137.589844 72.894531 C 135.144531 73.304688 133.003906 74.648438 131.5625 76.671875 C 130.121094 78.699219 129.550781 81.160156 129.960938 83.605469 L 135.917969 119.136719 C 101.980469 134.261719 72.214844 154.339844 47.40625 178.859375 C 26.9375 199.085938 15.617188 216.820312 11.359375 223.496094 C 10.898438 224.21875 10.511719 224.820312 10.195312 225.296875 C 3.914062 234.851562 7.765625 243.152344 10.851562 249.824219 C 11.882812 252.046875 12.855469 254.144531 13.507812 256.253906 C 13.621094 256.628906 13.734375 257.042969 13.847656 257.46875 L 13.878906 257.578125 L 13.917969 257.71875 C 14.027344 258.152344 14.140625 258.609375 14.253906 259.089844 L 14.324219 259.40625 C 14.4375 259.898438 14.542969 260.378906 14.652344 260.882812 L 14.699219 261.105469 L 14.726562 261.21875 C 14.820312 261.675781 14.917969 262.144531 15.015625 262.617188 C 15.210938 263.566406 15.40625 264.546875 15.605469 265.550781 C 17.351562 274.296875 19.160156 283.34375 22.984375 288.277344 C 24.101562 289.722656 25.378906 290.796875 26.773438 291.464844 C 27.535156 291.828125 28.335938 292.074219 29.15625 292.191406 C 29.925781 292.308594 32.472656 292.9375 39.46875 296.277344 C 48.761719 300.714844 59.722656 306.996094 59.832031 307.058594 L 60.351562 307.359375 L 60.929688 307.511719 C 101.773438 318.410156 146.671875 317.492188 198.1875 304.710938 C 207.257812 303.390625 215.683594 301.785156 223.234375 299.945312 C 265.96875 289.511719 302.492188 273.441406 318.828125 257.902344 C 322.316406 255.933594 329.472656 251.765625 331.667969 249.570312 C 340.214844 241.023438 340.179688 228.367188 339.917969 224.292969 C 340.382812 221.21875 346.386719 206.964844 350.785156 196.515625 C 354.960938 186.601562 358.902344 177.238281 360.601562 172.058594 C 362.128906 167.394531 362.632812 163.3125 362.128906 159.578125 C 361.796875 157.121094 361.039062 154.785156 359.804688 152.449219 C 358.824219 150.59375 357.558594 148.714844 355.804688 146.519531 L 355.675781 146.355469 L 355.613281 146.28125 C 355.191406 145.757812 354.757812 145.226562 354.308594 144.691406 L 354.214844 144.578125 L 354.023438 144.347656 C 353.535156 143.769531 353.035156 143.183594 352.519531 142.574219 C 349.199219 138.683594 339.425781 133.53125 331.8125 129.894531 Z M 329.84375 134.015625 C 339.894531 138.820312 346.886719 143.015625 349.042969 145.542969 C 349.554688 146.144531 350.046875 146.722656 350.527344 147.292969 C 350.621094 147.402344 350.714844 147.515625 350.804688 147.625 C 351.234375 148.140625 351.648438 148.644531 352.050781 149.140625 C 352.109375 149.21875 352.171875 149.292969 352.230469 149.371094 C 353.640625 151.136719 354.835938 152.824219 355.753906 154.5625 L 355.765625 154.582031 C 356.691406 156.34375 357.332031 158.171875 357.601562 160.195312 C 357.992188 163.113281 357.636719 166.445312 356.261719 170.640625 C 352.34375 182.597656 335.03125 220.023438 335.34375 224.382812 C 335.664062 228.746094 335.359375 239.421875 328.445312 246.339844 C 327.3125 247.46875 323.03125 250.308594 316.082031 254.210938 C 301.175781 268.707031 265.5 284.929688 222.152344 295.507812 C 214.441406 297.390625 206.0625 298.953125 197.308594 300.226562 C 156.238281 310.4375 109.046875 315.621094 62.109375 303.097656 C 62.109375 303.097656 51.007812 296.722656 41.4375 292.152344 C 36.65625 289.867188 32.261719 288.035156 29.832031 287.675781 C 29.453125 287.621094 29.09375 287.507812 28.746094 287.339844 C 27.964844 286.96875 27.25 286.328125 26.59375 285.480469 C 23.015625 280.859375 21.191406 269.996094 19.492188 261.695312 C 19.390625 261.207031 19.292969 260.730469 19.191406 260.261719 C 19.167969 260.144531 19.144531 260.03125 19.121094 259.914062 C 19.007812 259.394531 18.894531 258.890625 18.78125 258.398438 C 18.753906 258.28125 18.726562 258.160156 18.699219 258.042969 C 18.582031 257.53125 18.460938 257.039062 18.339844 256.566406 C 18.3125 256.472656 18.289062 256.382812 18.261719 256.289062 C 18.132812 255.800781 18.003906 255.335938 17.871094 254.902344 C 15.046875 245.738281 7.394531 237.871094 14.015625 227.808594 C 20.269531 218.292969 54.5 159.328125 141.011719 121.886719 L 134.464844 82.84375 C 134.035156 80.28125 135.78125 77.828125 138.347656 77.394531 L 141.855469 76.804688 C 142.847656 76.636719 143.820312 76.792969 144.667969 77.199219 C 146.011719 77.839844 147.039062 79.105469 147.300781 80.675781 L 153.363281 116.832031 C 154.460938 116.410156 155.554688 115.984375 156.667969 115.570312 C 156.667969 115.570312 188.859375 97.273438 237.011719 104.644531 C 270.195312 109.726562 307.550781 123.367188 329.84375 134.015625 " fill-opacity="1" fill-rule="nonzero"/></g></g></g><g fill="#ffffff" fill-opacity="0.4"><g transform="translate(77.494925, 232.035681)"><g><path d="M 13.722656 -31.40625 C 11.335938 -30.164062 9.835938 -27.890625 9.492188 -25.425781 C 7.414062 -26.714844 4.902344 -26.816406 2.515625 -25.574219 C 0.300781 -24.421875 -1.179688 -22.285156 -1.632812 -19.941406 L -3.773438 -21.773438 L -7.300781 -19.9375 L 2.421875 -1.261719 L 7.472656 -3.886719 L 2.214844 -13.988281 C 0.703125 -16.894531 1.1875 -19.257812 3.46875 -20.445312 C 5.269531 -21.378906 6.921875 -20.570312 8.21875 -18.078125 L 13.871094 -7.21875 L 18.78125 -9.773438 L 13.523438 -19.875 C 12.011719 -22.78125 12.496094 -25.140625 14.746094 -26.3125 C 16.578125 -27.265625 18.230469 -26.457031 19.527344 -23.964844 L 25.179688 -13.105469 L 30.230469 -15.734375 L 24.144531 -27.425781 C 21.859375 -31.816406 17.59375 -33.421875 13.722656 -31.40625 Z M 13.722656 -31.40625 "/></g></g></g><g fill="#ffffff" fill-opacity="0.4"><g transform="translate(109.378737, 215.615016)"><g><path d="M 9.972656 -27.191406 L 10.21875 -25.132812 C 7.902344 -25.878906 5.332031 -25.835938 2.824219 -24.761719 C -2.980469 -22.269531 -5.441406 -16.039062 -2.933594 -10.199219 C -0.425781 -4.355469 5.800781 -1.808594 11.605469 -4.300781 C 14.078125 -5.363281 15.859375 -7.144531 16.875 -9.320312 L 18.09375 -7.765625 L 22.179688 -9.519531 L 13.875 -28.867188 Z M 9.914062 -9.429688 C 6.867188 -8.125 3.660156 -9.464844 2.371094 -12.472656 C 1.0625 -15.519531 2.316406 -18.730469 5.363281 -20.035156 C 8.40625 -21.34375 11.597656 -20.039062 12.90625 -16.992188 C 14.210938 -13.949219 12.957031 -10.738281 9.914062 -9.429688 Z M 9.914062 -9.429688 "/></g></g></g><g fill="#ffffff" fill-opacity="0.4"><g transform="translate(133.70813, 205.312375)"><g><path d="M 5.285156 -24.542969 C 2.726562 -23.59375 1.269531 -22.140625 0.496094 -19.855469 L -1.363281 -21.953125 L -4.761719 -20.691406 L 2.558594 -0.949219 L 7.898438 -2.929688 L 4.101562 -13.164062 C 2.90625 -16.382812 3.574219 -18.167969 6.574219 -19.28125 L 8.914062 -20.148438 L 7.042969 -25.195312 Z M 5.285156 -24.542969 "/></g></g></g><g fill="#ffffff" fill-opacity="0.4"><g transform="translate(148.164804, 199.869515)"><g><path d="M 20.976562 -6.738281 L 10.113281 -14.796875 L 13.828125 -26.558594 L 7.59375 -24.554688 L 4.441406 -13.714844 L -0.734375 -29.824219 L -6.15625 -28.082031 L 2.597656 -0.835938 L 8.019531 -2.574219 L 4.941406 -12.152344 L 14.402344 -4.628906 Z M 20.976562 -6.738281 "/></g></g></g><g fill="#ffffff" fill-opacity="0.4"><g transform="translate(168.482471, 193.290013)"><g><path d="M 19.722656 -16.097656 C 18.179688 -21.980469 12.617188 -25.679688 6.355469 -24.039062 C 0.320312 -22.457031 -2.988281 -16.628906 -1.386719 -10.519531 C 0.214844 -4.410156 6.003906 -0.929688 12 -2.5 C 16.753906 -3.746094 19.898438 -7.59375 20.203125 -12.429688 L 14.429688 -10.917969 C 13.988281 -9.230469 12.640625 -7.910156 10.714844 -7.40625 C 8.039062 -6.703125 5.820312 -7.773438 4.601562 -10.4375 L 20.027344 -14.480469 C 19.964844 -15.03125 19.863281 -15.566406 19.722656 -16.097656 Z M 7.589844 -19.324219 C 10.082031 -19.976562 12.210938 -19.082031 13.652344 -16.800781 L 3.773438 -14.210938 C 3.78125 -16.792969 5.140625 -18.679688 7.589844 -19.324219 Z M 7.589844 -19.324219 "/></g></g></g><g fill="#ffffff" fill-opacity="0.4"><g transform="translate(191.739128, 187.277211)"><g><path d="M 11.695312 -7.648438 C 9.636719 -7.214844 8.25 -8.117188 7.832031 -10.101562 L 6.140625 -18.113281 L 11.75 -19.296875 L 10.796875 -23.796875 L 5.113281 -22.597656 L 3.988281 -27.941406 L 2.917969 -27.714844 L -3.386719 -17.378906 L -3.128906 -16.15625 L 0.570312 -16.9375 L 2.421875 -8.164062 C 3.378906 -3.621094 6.753906 -1.425781 11.292969 -2.382812 L 15.261719 -3.222656 L 14.214844 -8.179688 Z M 11.695312 -7.648438 "/></g></g></g><g fill="#ffffff" fill-opacity="0.4"><g transform="translate(207.843536, 183.920029)"><g><path d="M -1.472656 -23.972656 L 4.09375 -24.960938 L 3.175781 -30.144531 L -2.390625 -29.15625 Z M 2.6875 -0.476562 L 8.292969 -1.46875 L 4.621094 -22.203125 L -0.984375 -21.210938 Z M 2.6875 -0.476562 "/></g></g></g><g fill="#ffffff" fill-opacity="0.4"><g transform="translate(218.400698, 181.893168)"><g><path d="M 11.722656 -23.28125 C 8.898438 -22.902344 6.546875 -21.371094 5.210938 -19.304688 L 3.78125 -21.75 L -0.0820312 -21.230469 L 2.707031 -0.363281 L 8.347656 -1.113281 L 6.886719 -12.054688 C 6.4375 -15.414062 7.9375 -17.738281 10.835938 -18.128906 C 13.269531 -18.453125 14.671875 -17.105469 15.09375 -13.9375 L 16.65625 -2.226562 L 22.300781 -2.980469 L 20.613281 -15.617188 C 19.90625 -20.914062 16.476562 -23.914062 11.722656 -23.28125 Z M 11.722656 -23.28125 "/></g></g></g><g fill="#ffffff" fill-opacity="0.4"><g transform="translate(242.604008, 178.624786)"><g><path d="M 18.148438 -22.433594 L 17.367188 -20.265625 C 15.417969 -21.804688 12.933594 -22.640625 10.210938 -22.441406 C 4.339844 -22.015625 0.0898438 -17.011719 0.515625 -11.140625 C 0.949219 -5.230469 5.875 -0.9375 11.746094 -1.363281 C 14.003906 -1.527344 16.011719 -2.378906 17.597656 -3.667969 L 17.65625 -2.890625 C 17.878906 0.183594 15.644531 2.222656 12.765625 2.433594 C 10.667969 2.585938 8.378906 1.773438 7.578125 -0.0820312 L 1.941406 0.328125 C 3.261719 5.039062 7.515625 7.664062 13.195312 7.25 C 19.84375 6.765625 23.636719 2.460938 23.15625 -4.113281 L 21.804688 -22.660156 Z M 12.035156 -6.507812 C 8.925781 -6.28125 6.503906 -8.410156 6.277344 -11.519531 C 6.046875 -14.671875 8.132812 -17.128906 11.246094 -17.355469 C 14.355469 -17.582031 16.78125 -15.453125 17.007812 -12.304688 C 17.234375 -9.191406 15.148438 -6.734375 12.035156 -6.507812 Z M 12.035156 -6.507812 "/></g></g></g><g fill="#ffffff" fill-opacity="0.4"><g transform="translate(268.307841, 176.918709)"><g/></g></g><g fill="#efdad0" fill-opacity="1"><g transform="translate(75.372317, 230.83744)"><g><path d="M 13.722656 -31.40625 C 11.335938 -30.164062 9.835938 -27.890625 9.492188 -25.425781 C 7.414062 -26.714844 4.902344 -26.816406 2.515625 -25.574219 C 0.300781 -24.421875 -1.179688 -22.285156 -1.632812 -19.941406 L -3.773438 -21.773438 L -7.300781 -19.9375 L 2.421875 -1.261719 L 7.472656 -3.886719 L 2.214844 -13.988281 C 0.703125 -16.894531 1.1875 -19.257812 3.46875 -20.445312 C 5.269531 -21.378906 6.921875 -20.570312 8.21875 -18.078125 L 13.871094 -7.21875 L 18.78125 -9.773438 L 13.523438 -19.875 C 12.011719 -22.78125 12.496094 -25.140625 14.746094 -26.3125 C 16.578125 -27.265625 18.230469 -26.457031 19.527344 -23.964844 L 25.179688 -13.105469 L 30.230469 -15.734375 L 24.144531 -27.425781 C 21.859375 -31.816406 17.59375 -33.421875 13.722656 -31.40625 Z M 13.722656 -31.40625 "/></g></g></g><g fill="#efdad0" fill-opacity="1"><g transform="translate(107.256134, 214.416773)"><g><path d="M 9.972656 -27.191406 L 10.21875 -25.132812 C 7.902344 -25.878906 5.332031 -25.835938 2.824219 -24.761719 C -2.980469 -22.269531 -5.441406 -16.039062 -2.933594 -10.199219 C -0.425781 -4.355469 5.800781 -1.808594 11.605469 -4.300781 C 14.078125 -5.363281 15.859375 -7.144531 16.875 -9.320312 L 18.09375 -7.765625 L 22.179688 -9.519531 L 13.875 -28.867188 Z M 9.914062 -9.429688 C 6.867188 -8.125 3.660156 -9.464844 2.371094 -12.472656 C 1.0625 -15.519531 2.316406 -18.730469 5.363281 -20.035156 C 8.40625 -21.34375 11.597656 -20.039062 12.90625 -16.992188 C 14.210938 -13.949219 12.957031 -10.738281 9.914062 -9.429688 Z M 9.914062 -9.429688 "/></g></g></g><g fill="#efdad0" fill-opacity="1"><g transform="translate(131.585512, 204.114135)"><g><path d="M 5.285156 -24.542969 C 2.726562 -23.59375 1.269531 -22.140625 0.496094 -19.855469 L -1.363281 -21.953125 L -4.761719 -20.691406 L 2.558594 -0.949219 L 7.898438 -2.929688 L 4.101562 -13.164062 C 2.90625 -16.382812 3.574219 -18.167969 6.574219 -19.28125 L 8.914062 -20.148438 L 7.042969 -25.195312 Z M 5.285156 -24.542969 "/></g></g></g><g fill="#efdad0" fill-opacity="1"><g transform="translate(146.042189, 198.671275)"><g><path d="M 20.976562 -6.738281 L 10.113281 -14.796875 L 13.828125 -26.558594 L 7.59375 -24.554688 L 4.441406 -13.714844 L -0.734375 -29.824219 L -6.15625 -28.082031 L 2.597656 -0.835938 L 8.019531 -2.574219 L 4.941406 -12.152344 L 14.402344 -4.628906 Z M 20.976562 -6.738281 "/></g></g></g><g fill="#efdad0" fill-opacity="1"><g transform="translate(166.359868, 192.09177)"><g><path d="M 19.722656 -16.097656 C 18.179688 -21.980469 12.617188 -25.679688 6.355469 -24.039062 C 0.320312 -22.457031 -2.988281 -16.628906 -1.386719 -10.519531 C 0.214844 -4.410156 6.003906 -0.929688 12 -2.5 C 16.753906 -3.746094 19.898438 -7.59375 20.203125 -12.429688 L 14.429688 -10.917969 C 13.988281 -9.230469 12.640625 -7.910156 10.714844 -7.40625 C 8.039062 -6.703125 5.820312 -7.773438 4.601562 -10.4375 L 20.027344 -14.480469 C 19.964844 -15.03125 19.863281 -15.566406 19.722656 -16.097656 Z M 7.589844 -19.324219 C 10.082031 -19.976562 12.210938 -19.082031 13.652344 -16.800781 L 3.773438 -14.210938 C 3.78125 -16.792969 5.140625 -18.679688 7.589844 -19.324219 Z M 7.589844 -19.324219 "/></g></g></g><g fill="#efdad0" fill-opacity="1"><g transform="translate(189.616511, 186.078968)"><g><path d="M 11.695312 -7.648438 C 9.636719 -7.214844 8.25 -8.117188 7.832031 -10.101562 L 6.140625 -18.113281 L 11.75 -19.296875 L 10.796875 -23.796875 L 5.113281 -22.597656 L 3.988281 -27.941406 L 2.917969 -27.714844 L -3.386719 -17.378906 L -3.128906 -16.15625 L 0.570312 -16.9375 L 2.421875 -8.164062 C 3.378906 -3.621094 6.753906 -1.425781 11.292969 -2.382812 L 15.261719 -3.222656 L 14.214844 -8.179688 Z M 11.695312 -7.648438 "/></g></g></g><g fill="#efdad0" fill-opacity="1"><g transform="translate(205.720933, 182.721788)"><g><path d="M -1.472656 -23.972656 L 4.09375 -24.960938 L 3.175781 -30.144531 L -2.390625 -29.15625 Z M 2.6875 -0.476562 L 8.292969 -1.46875 L 4.621094 -22.203125 L -0.984375 -21.210938 Z M 2.6875 -0.476562 "/></g></g></g><g fill="#efdad0" fill-opacity="1"><g transform="translate(216.278097, 180.694924)"><g><path d="M 11.722656 -23.28125 C 8.898438 -22.902344 6.546875 -21.371094 5.210938 -19.304688 L 3.78125 -21.75 L -0.0820312 -21.230469 L 2.707031 -0.363281 L 8.347656 -1.113281 L 6.886719 -12.054688 C 6.4375 -15.414062 7.9375 -17.738281 10.835938 -18.128906 C 13.269531 -18.453125 14.671875 -17.105469 15.09375 -13.9375 L 16.65625 -2.226562 L 22.300781 -2.980469 L 20.613281 -15.617188 C 19.90625 -20.914062 16.476562 -23.914062 11.722656 -23.28125 Z M 11.722656 -23.28125 "/></g></g></g><g fill="#efdad0" fill-opacity="1"><g transform="translate(240.481407, 177.426543)"><g><path d="M 18.148438 -22.433594 L 17.367188 -20.265625 C 15.417969 -21.804688 12.933594 -22.640625 10.210938 -22.441406 C 4.339844 -22.015625 0.0898438 -17.011719 0.515625 -11.140625 C 0.949219 -5.230469 5.875 -0.9375 11.746094 -1.363281 C 14.003906 -1.527344 16.011719 -2.378906 17.597656 -3.667969 L 17.65625 -2.890625 C 17.878906 0.183594 15.644531 2.222656 12.765625 2.433594 C 10.667969 2.585938 8.378906 1.773438 7.578125 -0.0820312 L 1.941406 0.328125 C 3.261719 5.039062 7.515625 7.664062 13.195312 7.25 C 19.84375 6.765625 23.636719 2.460938 23.15625 -4.113281 L 21.804688 -22.660156 Z M 12.035156 -6.507812 C 8.925781 -6.28125 6.503906 -8.410156 6.277344 -11.519531 C 6.046875 -14.671875 8.132812 -17.128906 11.246094 -17.355469 C 14.355469 -17.582031 16.78125 -15.453125 17.007812 -12.304688 C 17.234375 -9.191406 15.148438 -6.734375 12.035156 -6.507812 Z M 12.035156 -6.507812 "/></g></g></g><g fill="#efdad0" fill-opacity="1"><g transform="translate(266.185224, 175.720468)"><g/></g></g><g fill="#ffffff" fill-opacity="0.4"><g transform="translate(121.116702, 251.341377)"><g><path d="M 23.402344 -9.105469 C 21.363281 -10.152344 19.4375 -11.121094 17.652344 -12.058594 C 18.277344 -14.644531 18.121094 -17.511719 17.085938 -20.496094 L 12.617188 -18.757812 C 13.074219 -17.261719 13.21875 -15.8125 13.113281 -14.472656 C 10.894531 -15.660156 8.925781 -16.738281 7.300781 -17.695312 C 9.460938 -20.417969 11.464844 -23.332031 10.136719 -26.746094 C 8.734375 -30.34375 4.917969 -31.664062 0.667969 -30.007812 C -3.621094 -28.339844 -5.59375 -24.808594 -4.167969 -21.140625 C -3.601562 -19.6875 -2.601562 -18.402344 0.449219 -16.367188 C -1.339844 -13.871094 -2.625 -10.945312 -1.242188 -7.382812 C 0.46875 -2.984375 4.820312 -1.375 9.582031 -3.226562 C 12.234375 -4.257812 14.292969 -5.855469 15.734375 -7.839844 C 16.355469 -7.535156 17.027344 -7.210938 17.660156 -6.871094 Z M 2.179688 -26.121094 C 3.667969 -26.699219 4.953125 -26.195312 5.460938 -24.886719 C 6.027344 -23.433594 4.96875 -21.851562 3.476562 -20.097656 C 1.878906 -21.191406 0.917969 -22.15625 0.605469 -22.957031 C 0.0859375 -24.300781 0.691406 -25.539062 2.179688 -26.121094 Z M 8.324219 -7.964844 C 6.214844 -7.144531 4.34375 -7.757812 3.667969 -9.5 C 3.085938 -10.992188 3.535156 -12.421875 4.425781 -13.898438 C 6.304688 -12.828125 8.574219 -11.621094 11.363281 -10.152344 C 10.570312 -9.175781 9.558594 -8.445312 8.324219 -7.964844 Z M 8.324219 -7.964844 "/></g></g></g><g fill="#ffffff" fill-opacity="0.4"><g transform="translate(144.293575, 242.480289)"><g/></g></g><g fill="#ffffff" fill-opacity="0.4"><g transform="translate(152.680781, 239.392466)"><g><path d="M 7.367188 -24.808594 C 5.277344 -24.179688 3.550781 -23.011719 2.34375 -21.46875 L -0.167969 -29.832031 L -5.621094 -28.195312 L 2.625 -0.746094 L 6.621094 -1.949219 L 6.777344 -3.867188 C 8.894531 -2.917969 11.308594 -2.746094 13.773438 -3.484375 C 19.898438 -5.324219 23.011719 -11.226562 21.179688 -17.316406 C 19.339844 -23.4375 13.492188 -26.648438 7.367188 -24.808594 Z M 11.777344 -8.503906 C 8.601562 -7.550781 5.570312 -9.246094 4.625 -12.382812 C 3.683594 -15.519531 5.28125 -18.605469 8.457031 -19.558594 C 11.628906 -20.511719 14.664062 -18.816406 15.605469 -15.679688 C 16.546875 -12.542969 14.949219 -9.457031 11.777344 -8.503906 Z M 11.777344 -8.503906 "/></g></g></g><g fill="#ffffff" fill-opacity="0.4"><g transform="translate(177.778784, 231.975904)"><g><path d="M 7.976562 -23.804688 C 5.328125 -23.144531 3.71875 -21.859375 2.695312 -19.675781 L 1.082031 -21.96875 L -2.4375 -21.089844 L 2.648438 -0.660156 L 8.171875 -2.035156 L 5.535156 -12.628906 C 4.707031 -15.957031 5.570312 -17.660156 8.671875 -18.433594 L 11.09375 -19.035156 L 9.792969 -24.257812 Z M 7.976562 -23.804688 "/></g></g></g><g fill="#ffffff" fill-opacity="0.4"><g transform="translate(192.700701, 228.112336)"><g><path d="M 15.40625 -24.523438 L 15.222656 -22.460938 C 13.113281 -23.671875 10.589844 -24.164062 7.914062 -23.632812 C 1.714844 -22.402344 -1.984375 -16.820312 -0.75 -10.585938 C 0.488281 -4.351562 6.050781 -0.5625 12.246094 -1.792969 C 14.882812 -2.316406 16.996094 -3.691406 18.445312 -5.609375 L 19.316406 -3.832031 L 23.675781 -4.699219 L 19.578125 -25.351562 Z M 11.65625 -7.164062 C 8.40625 -6.519531 5.550781 -8.496094 4.910156 -11.707031 C 4.265625 -14.957031 6.160156 -17.839844 9.410156 -18.484375 C 12.660156 -19.128906 15.511719 -17.191406 16.15625 -13.9375 C 16.800781 -10.6875 14.910156 -7.808594 11.65625 -7.164062 Z M 11.65625 -7.164062 "/></g></g></g><g fill="#ffffff" fill-opacity="0.4"><g transform="translate(218.546764, 222.995506)"><g><path d="M 11.609375 -23.335938 C 8.792969 -22.945312 6.445312 -21.402344 5.121094 -19.328125 L 3.679688 -21.765625 L -0.183594 -21.230469 L 2.703125 -0.375 L 8.34375 -1.15625 L 6.832031 -12.085938 C 6.367188 -15.445312 7.855469 -17.777344 10.75 -18.179688 C 13.183594 -18.515625 14.589844 -17.175781 15.027344 -14.007812 L 16.648438 -2.304688 L 22.285156 -3.082031 L 20.539062 -15.714844 C 19.804688 -21.003906 16.363281 -23.992188 11.609375 -23.335938 Z M 11.609375 -23.335938 "/></g></g></g><g fill="#ffffff" fill-opacity="0.4"><g transform="translate(242.752208, 219.605757)"><g><path d="M 15.84375 -29.972656 L 16.535156 -21.265625 C 14.8125 -22.261719 12.820312 -22.730469 10.644531 -22.554688 C 4.269531 -22.050781 -0.0195312 -16.9375 0.488281 -10.5625 C 0.992188 -4.226562 6.039062 0.183594 12.414062 -0.324219 C 14.976562 -0.527344 17.160156 -1.601562 18.792969 -3.21875 L 19.59375 -1.519531 L 23.792969 -1.855469 L 21.515625 -30.421875 Z M 12.453125 -5.722656 C 9.148438 -5.460938 6.539062 -7.757812 6.28125 -11.023438 C 6.019531 -14.324219 8.234375 -16.964844 11.535156 -17.230469 C 14.839844 -17.492188 17.445312 -15.234375 17.707031 -11.929688 C 17.96875 -8.667969 15.757812 -5.988281 12.453125 -5.722656 Z M 12.453125 -5.722656 "/></g></g></g><g fill="#ffffff" fill-opacity="0.4"><g transform="translate(268.901895, 217.680841)"><g><path d="M 1.847656 -23.949219 L 7.496094 -24.15625 L 7.304688 -29.417969 L 1.652344 -29.207031 Z M 2.726562 -0.101562 L 8.417969 -0.3125 L 7.640625 -21.351562 L 1.949219 -21.140625 Z M 2.726562 -0.101562 "/></g></g></g><g fill="#ffffff" fill-opacity="0.4"><g transform="translate(279.654409, 217.135053)"><g><path d="M 14.78125 -21.46875 C 11.933594 -21.480469 9.394531 -20.28125 7.789062 -18.414062 L 6.707031 -21.03125 L 2.808594 -21.046875 L 2.730469 0.0117188 L 8.421875 0.03125 L 8.464844 -11.003906 C 8.476562 -14.394531 10.277344 -16.496094 13.203125 -16.484375 C 15.660156 -16.472656 16.863281 -14.949219 16.851562 -11.75 L 16.804688 0.0625 L 22.5 0.0859375 L 22.546875 -12.667969 C 22.566406 -18.007812 19.578125 -21.449219 14.78125 -21.46875 Z M 14.78125 -21.46875 "/></g></g></g><g fill="#ffffff" fill-opacity="0.4"><g transform="translate(304.100619, 217.193865)"><g><path d="M 20.984375 -19.808594 L 19.921875 -17.761719 C 18.195312 -19.550781 15.84375 -20.710938 13.117188 -20.875 C 7.242188 -21.238281 2.363281 -16.847656 2 -10.972656 C 1.636719 -5.054688 5.945312 -0.144531 11.824219 0.21875 C 14.082031 0.355469 16.1875 -0.21875 17.933594 -1.28125 L 17.882812 -0.503906 C 17.695312 2.570312 15.207031 4.292969 12.328125 4.117188 C 10.226562 3.988281 8.066406 2.878906 7.523438 0.929688 L 1.878906 0.585938 C 2.558594 5.429688 6.425781 8.597656 12.109375 8.945312 C 18.761719 9.355469 23.097656 5.597656 23.5 -0.980469 L 24.640625 -19.542969 Z M 12.796875 -4.839844 C 9.683594 -5.03125 7.566406 -7.464844 7.757812 -10.578125 C 7.953125 -13.730469 10.351562 -15.890625 13.464844 -15.699219 C 16.578125 -15.507812 18.695312 -13.074219 18.5 -9.921875 C 18.308594 -6.804688 15.910156 -4.648438 12.796875 -4.839844 Z M 12.796875 -4.839844 "/></g></g></g><g fill="#efdad0" fill-opacity="1"><g transform="translate(119.148671, 249.903266)"><g><path d="M 23.402344 -9.105469 C 21.363281 -10.152344 19.4375 -11.121094 17.652344 -12.058594 C 18.277344 -14.644531 18.121094 -17.511719 17.085938 -20.496094 L 12.617188 -18.757812 C 13.074219 -17.261719 13.21875 -15.8125 13.113281 -14.472656 C 10.894531 -15.660156 8.925781 -16.738281 7.300781 -17.695312 C 9.460938 -20.417969 11.464844 -23.332031 10.136719 -26.746094 C 8.734375 -30.34375 4.917969 -31.664062 0.667969 -30.007812 C -3.621094 -28.339844 -5.59375 -24.808594 -4.167969 -21.140625 C -3.601562 -19.6875 -2.601562 -18.402344 0.449219 -16.367188 C -1.339844 -13.871094 -2.625 -10.945312 -1.242188 -7.382812 C 0.46875 -2.984375 4.820312 -1.375 9.582031 -3.226562 C 12.234375 -4.257812 14.292969 -5.855469 15.734375 -7.839844 C 16.355469 -7.535156 17.027344 -7.210938 17.660156 -6.871094 Z M 2.179688 -26.121094 C 3.667969 -26.699219 4.953125 -26.195312 5.460938 -24.886719 C 6.027344 -23.433594 4.96875 -21.851562 3.476562 -20.097656 C 1.878906 -21.191406 0.917969 -22.15625 0.605469 -22.957031 C 0.0859375 -24.300781 0.691406 -25.539062 2.179688 -26.121094 Z M 8.324219 -7.964844 C 6.214844 -7.144531 4.34375 -7.757812 3.667969 -9.5 C 3.085938 -10.992188 3.535156 -12.421875 4.425781 -13.898438 C 6.304688 -12.828125 8.574219 -11.621094 11.363281 -10.152344 C 10.570312 -9.175781 9.558594 -8.445312 8.324219 -7.964844 Z M 8.324219 -7.964844 "/></g></g></g><g fill="#efdad0" fill-opacity="1"><g transform="translate(142.325559, 241.042166)"><g/></g></g><g fill="#efdad0" fill-opacity="1"><g transform="translate(150.71275, 237.954357)"><g><path d="M 7.367188 -24.808594 C 5.277344 -24.179688 3.550781 -23.011719 2.34375 -21.46875 L -0.167969 -29.832031 L -5.621094 -28.195312 L 2.625 -0.746094 L 6.621094 -1.949219 L 6.777344 -3.867188 C 8.894531 -2.917969 11.308594 -2.746094 13.773438 -3.484375 C 19.898438 -5.324219 23.011719 -11.226562 21.179688 -17.316406 C 19.339844 -23.4375 13.492188 -26.648438 7.367188 -24.808594 Z M 11.777344 -8.503906 C 8.601562 -7.550781 5.570312 -9.246094 4.625 -12.382812 C 3.683594 -15.519531 5.28125 -18.605469 8.457031 -19.558594 C 11.628906 -20.511719 14.664062 -18.816406 15.605469 -15.679688 C 16.546875 -12.542969 14.949219 -9.457031 11.777344 -8.503906 Z M 11.777344 -8.503906 "/></g></g></g><g fill="#efdad0" fill-opacity="1"><g transform="translate(175.810768, 230.537795)"><g><path d="M 7.976562 -23.804688 C 5.328125 -23.144531 3.71875 -21.859375 2.695312 -19.675781 L 1.082031 -21.96875 L -2.4375 -21.089844 L 2.648438 -0.660156 L 8.171875 -2.035156 L 5.535156 -12.628906 C 4.707031 -15.957031 5.570312 -17.660156 8.671875 -18.433594 L 11.09375 -19.035156 L 9.792969 -24.257812 Z M 7.976562 -23.804688 "/></g></g></g><g fill="#efdad0" fill-opacity="1"><g transform="translate(190.732667, 226.674225)"><g><path d="M 15.40625 -24.523438 L 15.222656 -22.460938 C 13.113281 -23.671875 10.589844 -24.164062 7.914062 -23.632812 C 1.714844 -22.402344 -1.984375 -16.820312 -0.75 -10.585938 C 0.488281 -4.351562 6.050781 -0.5625 12.246094 -1.792969 C 14.882812 -2.316406 16.996094 -3.691406 18.445312 -5.609375 L 19.316406 -3.832031 L 23.675781 -4.699219 L 19.578125 -25.351562 Z M 11.65625 -7.164062 C 8.40625 -6.519531 5.550781 -8.496094 4.910156 -11.707031 C 4.265625 -14.957031 6.160156 -17.839844 9.410156 -18.484375 C 12.660156 -19.128906 15.511719 -17.191406 16.15625 -13.9375 C 16.800781 -10.6875 14.910156 -7.808594 11.65625 -7.164062 Z M 11.65625 -7.164062 "/></g></g></g><g fill="#efdad0" fill-opacity="1"><g transform="translate(216.578747, 221.557395)"><g><path d="M 11.609375 -23.335938 C 8.792969 -22.945312 6.445312 -21.402344 5.121094 -19.328125 L 3.679688 -21.765625 L -0.183594 -21.230469 L 2.703125 -0.375 L 8.34375 -1.15625 L 6.832031 -12.085938 C 6.367188 -15.445312 7.855469 -17.777344 10.75 -18.179688 C 13.183594 -18.515625 14.589844 -17.175781 15.027344 -14.007812 L 16.648438 -2.304688 L 22.285156 -3.082031 L 20.539062 -15.714844 C 19.804688 -21.003906 16.363281 -23.992188 11.609375 -23.335938 Z M 11.609375 -23.335938 "/></g></g></g><g fill="#efdad0" fill-opacity="1"><g transform="translate(240.784189, 218.167646)"><g><path d="M 15.84375 -29.972656 L 16.535156 -21.265625 C 14.8125 -22.261719 12.820312 -22.730469 10.644531 -22.554688 C 4.269531 -22.050781 -0.0195312 -16.9375 0.488281 -10.5625 C 0.992188 -4.226562 6.039062 0.183594 12.414062 -0.324219 C 14.976562 -0.527344 17.160156 -1.601562 18.792969 -3.21875 L 19.59375 -1.519531 L 23.792969 -1.855469 L 21.515625 -30.421875 Z M 12.453125 -5.722656 C 9.148438 -5.460938 6.539062 -7.757812 6.28125 -11.023438 C 6.019531 -14.324219 8.234375 -16.964844 11.535156 -17.230469 C 14.839844 -17.492188 17.445312 -15.234375 17.707031 -11.929688 C 17.96875 -8.667969 15.757812 -5.988281 12.453125 -5.722656 Z M 12.453125 -5.722656 "/></g></g></g><g fill="#efdad0" fill-opacity="1"><g transform="translate(266.933847, 216.242744)"><g><path d="M 1.847656 -23.949219 L 7.496094 -24.15625 L 7.304688 -29.417969 L 1.652344 -29.207031 Z M 2.726562 -0.101562 L 8.417969 -0.3125 L 7.640625 -21.351562 L 1.949219 -21.140625 Z M 2.726562 -0.101562 "/></g></g></g><g fill="#efdad0" fill-opacity="1"><g transform="translate(277.686393, 215.696956)"><g><path d="M 14.78125 -21.46875 C 11.933594 -21.480469 9.394531 -20.28125 7.789062 -18.414062 L 6.707031 -21.03125 L 2.808594 -21.046875 L 2.730469 0.0117188 L 8.421875 0.03125 L 8.464844 -11.003906 C 8.476562 -14.394531 10.277344 -16.496094 13.203125 -16.484375 C 15.660156 -16.472656 16.863281 -14.949219 16.851562 -11.75 L 16.804688 0.0625 L 22.5 0.0859375 L 22.546875 -12.667969 C 22.566406 -18.007812 19.578125 -21.449219 14.78125 -21.46875 Z M 14.78125 -21.46875 "/></g></g></g><g fill="#efdad0" fill-opacity="1"><g transform="translate(302.132571, 215.755754)"><g><path d="M 20.984375 -19.808594 L 19.921875 -17.761719 C 18.195312 -19.550781 15.84375 -20.710938 13.117188 -20.875 C 7.242188 -21.238281 2.363281 -16.847656 2 -10.972656 C 1.636719 -5.054688 5.945312 -0.144531 11.824219 0.21875 C 14.082031 0.355469 16.1875 -0.21875 17.933594 -1.28125 L 17.882812 -0.503906 C 17.695312 2.570312 15.207031 4.292969 12.328125 4.117188 C 10.226562 3.988281 8.066406 2.878906 7.523438 0.929688 L 1.878906 0.585938 C 2.558594 5.429688 6.425781 8.597656 12.109375 8.945312 C 18.761719 9.355469 23.097656 5.597656 23.5 -0.980469 L 24.640625 -19.542969 Z M 12.796875 -4.839844 C 9.683594 -5.03125 7.566406 -7.464844 7.757812 -10.578125 C 7.953125 -13.730469 10.351562 -15.890625 13.464844 -15.699219 C 16.578125 -15.507812 18.695312 -13.074219 18.5 -9.921875 C 18.308594 -6.804688 15.910156 -4.648438 12.796875 -4.839844 Z M 12.796875 -4.839844 "/></g></g></g></svg>