<svg xmlns="http://www.w3.org/2000/svg" xmlns:xlink="http://www.w3.org/1999/xlink" width="100" zoomAndPan="magnify" viewBox="0 0 375 374.999991" height="100" preserveAspectRatio="xMidYMid meet" version="1.0"><defs><g/><clipPath id="f0b99dd476"><path d="M 48 117 L 49 117 L 49 118 L 48 118 Z M 48 117 " clip-rule="nonzero"/></clipPath><clipPath id="6c53e05e7c"><path d="M 23.933594 32.921875 L 395.796875 81.304688 L 361.835938 342.355469 L -10.03125 293.972656 Z M 23.933594 32.921875 " clip-rule="nonzero"/></clipPath><clipPath id="0d9be4c941"><path d="M 23.933594 32.921875 L 395.796875 81.304688 L 361.835938 342.355469 L -10.03125 293.972656 Z M 23.933594 32.921875 " clip-rule="nonzero"/></clipPath><clipPath id="9c2567fd5d"><path d="M 1 54 L 373 54 L 373 322 L 1 322 Z M 1 54 " clip-rule="nonzero"/></clipPath><clipPath id="8b5ad409ea"><path d="M 23.933594 32.921875 L 395.796875 81.304688 L 361.835938 342.355469 L -10.03125 293.972656 Z M 23.933594 32.921875 " clip-rule="nonzero"/></clipPath><clipPath id="1361bf2fb1"><path d="M 23.933594 32.921875 L 395.796875 81.304688 L 361.835938 342.355469 L -10.03125 293.972656 Z M 23.933594 32.921875 " clip-rule="nonzero"/></clipPath><clipPath id="1739e0924b"><path d="M 24.164062 32.953125 L 395.941406 81.324219 L 361.949219 342.597656 L -9.828125 294.230469 Z M 24.164062 32.953125 " clip-rule="nonzero"/></clipPath><clipPath id="e13bb5096c"><path d="M 24.164062 32.953125 L 395.578125 81.277344 L 361.613281 342.324219 L -9.800781 294.003906 Z M 24.164062 32.953125 " clip-rule="nonzero"/></clipPath><clipPath id="3fe717adf6"><path d="M 61 152 L 324 152 L 324 227 L 61 227 Z M 61 152 " clip-rule="nonzero"/></clipPath><clipPath id="ec9bebe2c2"><path d="M 23.933594 32.921875 L 395.796875 81.304688 L 361.835938 342.355469 L -10.03125 293.972656 Z M 23.933594 32.921875 " clip-rule="nonzero"/></clipPath><clipPath id="6b2a846806"><path d="M 23.933594 32.921875 L 395.796875 81.304688 L 361.835938 342.355469 L -10.03125 293.972656 Z M 23.933594 32.921875 " clip-rule="nonzero"/></clipPath><clipPath id="626b3f5007"><path d="M 117 70 L 303 70 L 303 119 L 117 119 Z M 117 70 " clip-rule="nonzero"/></clipPath><clipPath id="0cfa13f5fe"><path d="M 23.933594 32.921875 L 395.796875 81.304688 L 361.835938 342.355469 L -10.03125 293.972656 Z M 23.933594 32.921875 " clip-rule="nonzero"/></clipPath><clipPath id="daea291be2"><path d="M 23.933594 32.921875 L 395.796875 81.304688 L 361.835938 342.355469 L -10.03125 293.972656 Z M 23.933594 32.921875 " clip-rule="nonzero"/></clipPath><clipPath id="6e2be82473"><path d="M 169 137 L 222 137 L 222 195 L 169 195 Z M 169 137 " clip-rule="nonzero"/></clipPath><clipPath id="781085abaf"><path d="M 23.933594 32.921875 L 395.796875 81.304688 L 361.835938 342.355469 L -10.03125 293.972656 Z M 23.933594 32.921875 " clip-rule="nonzero"/></clipPath><clipPath id="d322e86fda"><path d="M 23.933594 32.921875 L 395.796875 81.304688 L 361.835938 342.355469 L -10.03125 293.972656 Z M 23.933594 32.921875 " clip-rule="nonzero"/></clipPath><clipPath id="ef15bdfccf"><path d="M 212 153 L 214 153 L 214 154 L 212 154 Z M 212 153 " clip-rule="nonzero"/></clipPath><clipPath id="7bc6482de3"><path d="M 23.933594 32.921875 L 395.796875 81.304688 L 361.835938 342.355469 L -10.03125 293.972656 Z M 23.933594 32.921875 " clip-rule="nonzero"/></clipPath><clipPath id="73a6b489d0"><path d="M 23.933594 32.921875 L 395.796875 81.304688 L 361.835938 342.355469 L -10.03125 293.972656 Z M 23.933594 32.921875 " clip-rule="nonzero"/></clipPath></defs><g clip-path="url(#f0b99dd476)"><g clip-path="url(#6c53e05e7c)"><g clip-path="url(#0d9be4c941)"><path fill="#ffffff" d="M 48.742188 117.527344 C 48.914062 117.964844 48.8125 117.644531 48.722656 117.40625 C 48.71875 117.417969 48.714844 117.429688 48.710938 117.441406 C 48.71875 117.46875 48.730469 117.496094 48.742188 117.527344 " fill-opacity="1" fill-rule="nonzero"/><path fill="#ffffff" d="M 48.679688 117.292969 C 48.667969 117.265625 48.65625 117.246094 48.648438 117.230469 C 48.65625 117.253906 48.660156 117.277344 48.667969 117.304688 C 48.671875 117.296875 48.675781 117.292969 48.679688 117.292969 " fill-opacity="1" fill-rule="nonzero"/></g></g></g><g clip-path="url(#9c2567fd5d)"><g clip-path="url(#8b5ad409ea)"><g clip-path="url(#1361bf2fb1)"><g clip-path="url(#1739e0924b)"><g clip-path="url(#e13bb5096c)"><path fill="#ffbd60" d="M 371.339844 260.085938 C 358.375 278.902344 335.304688 295.589844 314.214844 303.859375 C 272.132812 320.34375 226.65625 324.195312 181.949219 318.9375 C 172.617188 317.839844 163.515625 315.972656 154.292969 314.371094 C 96.757812 304.398438 33.894531 274.84375 6.203125 220.539062 C 1.226562 210.777344 -1.933594 200.328125 9.621094 196.183594 C 21.558594 191.90625 45.25 174.753906 61.628906 162.992188 C 64.730469 160.765625 67.574219 158.730469 70.023438 157.011719 C 70.550781 155.710938 71.101562 154.363281 71.679688 152.964844 C 79.058594 135 90.058594 109.613281 94.933594 92.84375 C 97.167969 85.160156 102.21875 72.035156 109.167969 67.859375 C 116.882812 63.21875 125.585938 60.4375 134.371094 58.652344 C 186.945312 47.980469 246.496094 58.992188 292.820312 85.402344 C 303.773438 91.648438 311.929688 101.722656 312.039062 114.777344 C 312.203125 133.574219 314.039062 154.238281 315.871094 176.578125 C 315.996094 178.066406 316.117188 179.558594 316.238281 181.0625 C 318.730469 183.835938 321.082031 186.628906 323.34375 189.4375 C 335.460938 204.507812 344.871094 220.042969 359.035156 235.894531 C 365.722656 243.371094 376.933594 251.960938 371.339844 260.085938 " fill-opacity="1" fill-rule="nonzero"/></g></g></g></g></g><g clip-path="url(#3fe717adf6)"><g clip-path="url(#ec9bebe2c2)"><g clip-path="url(#6b2a846806)"><path fill="#ffffff" d="M 323.34375 189.4375 C 311.214844 199.601562 297.445312 207.703125 282.742188 213.574219 C 238.339844 231.300781 188.257812 229.429688 143.542969 213.929688 C 113.78125 203.617188 82.828125 187.320312 61.628906 162.992188 C 64.730469 160.765625 67.574219 158.730469 70.023438 157.011719 C 70.550781 155.710938 71.101562 154.363281 71.679688 152.964844 C 84.558594 165.882812 99.960938 176.027344 115.636719 185.207031 C 141.449219 200.328125 170.804688 209.125 200.632812 211.054688 C 242.070312 213.726562 283.898438 203.261719 315.871094 176.578125 C 315.996094 178.066406 316.117188 179.558594 316.238281 181.0625 C 318.730469 183.835938 321.082031 186.628906 323.34375 189.4375 " fill-opacity="1" fill-rule="nonzero"/></g></g></g><g clip-path="url(#626b3f5007)"><g clip-path="url(#0cfa13f5fe)"><g clip-path="url(#daea291be2)"><path fill="#ffffff" d="M 301.984375 99.457031 C 301.378906 97.574219 299.136719 95.636719 297.042969 96.699219 C 269.394531 110.765625 235.238281 111.75 205.011719 108.167969 C 191.6875 106.585938 178.484375 103.707031 165.851562 99.152344 C 154.964844 95.21875 144.542969 89.980469 134.917969 83.542969 C 129.699219 80.054688 125.796875 76.152344 121.433594 71.761719 C 119.089844 69.402344 116.351562 72.691406 117.175781 75.210938 C 119.113281 81.125 124.730469 85.390625 129.492188 88.992188 C 141.941406 98.417969 157.410156 104.949219 172.308594 109.296875 C 188.800781 114.105469 205.859375 116.972656 223.019531 117.839844 C 242.132812 118.800781 262.378906 118.222656 280.894531 112.914062 C 287.457031 111.03125 293.707031 108.335938 299.765625 105.195312 C 301.839844 104.121094 302.699219 101.675781 301.984375 99.457031 " fill-opacity="1" fill-rule="nonzero"/></g></g></g><g clip-path="url(#6e2be82473)"><g clip-path="url(#781085abaf)"><g clip-path="url(#d322e86fda)"><path fill="#d291af" d="M 215.714844 140.980469 C 207.757812 137.128906 200.8125 147.136719 197.375 152.972656 C 196.15625 155.039062 194.125 159.289062 194.125 159.289062 C 194.125 159.289062 189.617188 149.554688 188.109375 147.449219 C 184.554688 142.480469 180.691406 139.273438 175.695312 138.101562 C 172.574219 137.367188 170.578125 140.003906 169.910156 142.679688 C 168.480469 148.441406 169.816406 155.40625 171.078125 161.105469 C 173.398438 171.601562 178.402344 181.582031 184.199219 190.578125 C 185.675781 192.871094 188.359375 195.476562 191.195312 194.863281 C 194.589844 194.128906 198.191406 190.664062 200.640625 188.375 C 204.441406 184.828125 208.230469 181.011719 211.273438 176.804688 C 215.488281 170.964844 218.691406 164.390625 220.644531 157.453125 C 222.140625 152.132812 221.683594 144.175781 216.089844 141.171875 C 215.964844 141.101562 215.839844 141.039062 215.714844 140.980469 " fill-opacity="1" fill-rule="nonzero"/></g></g></g><g clip-path="url(#ef15bdfccf)"><g clip-path="url(#7bc6482de3)"><g clip-path="url(#73a6b489d0)"><path fill="#ffffff" d="M 212.988281 153.320312 C 212.96875 153.328125 212.953125 153.335938 212.9375 153.34375 C 212.945312 153.34375 212.953125 153.34375 212.964844 153.347656 C 212.992188 153.34375 213.019531 153.335938 213.050781 153.332031 C 213.03125 153.328125 213.011719 153.324219 212.988281 153.320312 " fill-opacity="1" fill-rule="nonzero"/></g></g></g><g fill="#ec3aab" fill-opacity="0.4"><g transform="translate(115.415671, 240.592002)"><g><path d="M 21.5 -14.40625 C 19.09375 -15.425781 16.574219 -15.472656 14.296875 -14.699219 L 14.160156 -16.875 L 10.710938 -18.332031 L -0.445312 8.066406 L 4.796875 10.28125 L 8.199219 2.238281 C 9.230469 3.902344 10.804688 5.285156 12.816406 6.136719 C 18.667969 8.609375 24.847656 6.015625 27.335938 0.125 C 29.8125 -5.730469 27.351562 -11.933594 21.5 -14.40625 Z M 14.496094 0.960938 C 11.441406 -0.328125 10.171875 -3.53125 11.460938 -6.585938 C 12.738281 -9.601562 15.933594 -10.960938 18.988281 -9.667969 C 22.039062 -8.378906 23.296875 -5.140625 22.019531 -2.121094 C 20.730469 0.929688 17.546875 2.253906 14.496094 0.960938 Z M 14.496094 0.960938 "/></g></g></g><g fill="#ec3aab" fill-opacity="0.4"><g transform="translate(140.884442, 251.027097)"><g><path d="M 19.199219 -16.179688 C 16.59375 -16.996094 14.550781 -16.734375 12.539062 -15.402344 L 12.351562 -18.199219 L 8.890625 -19.28125 L 2.605469 0.816406 L 8.039062 2.515625 L 11.296875 -7.90625 C 12.324219 -11.179688 13.945312 -12.183594 16.996094 -11.230469 L 19.378906 -10.484375 L 20.984375 -15.621094 Z M 19.199219 -16.179688 "/></g></g></g><g fill="#ec3aab" fill-opacity="0.4"><g transform="translate(156.861143, 256.21662)"><g><path d="M 12.304688 3.25 C 18.675781 4.601562 24.4375 0.917969 25.757812 -5.296875 C 27.078125 -11.515625 23.296875 -17.179688 16.925781 -18.53125 C 10.554688 -19.882812 4.800781 -16.242188 3.480469 -10.023438 C 2.164062 -3.804688 5.933594 1.898438 12.304688 3.25 Z M 13.421875 -2.015625 C 10.21875 -2.695312 8.414062 -5.46875 9.128906 -8.824219 C 9.832031 -12.144531 12.613281 -13.984375 15.816406 -13.304688 C 19.019531 -12.625 20.816406 -9.8125 20.113281 -6.496094 C 19.398438 -3.140625 16.625 -1.335938 13.421875 -2.015625 Z M 13.421875 -2.015625 "/></g></g></g><g fill="#ec3aab" fill-opacity="0.4"><g transform="translate(182.625644, 261.348739)"><g><path d="M 6.136719 -23.28125 L 11.746094 -22.578125 L 12.402344 -27.800781 L 6.792969 -28.503906 Z M -2.6875 7.328125 L 0.0234375 7.664062 C 4.625 8.242188 8.285156 5.398438 8.855469 0.832031 L 11.4375 -19.789062 L 5.789062 -20.496094 L 3.261719 -0.300781 C 3.007812 1.710938 1.792969 2.621094 -0.21875 2.371094 L -2.035156 2.140625 Z M -2.6875 7.328125 "/></g></g></g><g fill="#ec3aab" fill-opacity="0.4"><g transform="translate(194.929432, 263.123032)"><g><path d="M 23.589844 -9.578125 C 23.84375 -15.65625 19.617188 -20.828125 13.148438 -21.101562 C 6.914062 -21.367188 2.039062 -16.773438 1.769531 -10.460938 C 1.503906 -4.152344 6.011719 0.878906 12.207031 1.140625 C 17.113281 1.347656 21.25 -1.402344 22.964844 -5.933594 L 17.003906 -6.1875 C 16.082031 -4.703125 14.40625 -3.839844 12.421875 -3.921875 C 9.65625 -4.039062 7.851562 -5.714844 7.46875 -8.621094 L 23.402344 -7.945312 C 23.503906 -8.488281 23.566406 -9.03125 23.589844 -9.578125 Z M 12.941406 -16.234375 C 15.511719 -16.125 17.285156 -14.644531 17.996094 -12.039062 L 7.789062 -12.472656 C 8.554688 -14.9375 10.410156 -16.339844 12.941406 -16.234375 Z M 12.941406 -16.234375 "/></g></g></g><g fill="#ec3aab" fill-opacity="0.4"><g transform="translate(220.485954, 264.142135)"><g><path d="M 12.53125 -0.238281 C 18.015625 -0.617188 22.085938 -4.496094 22.691406 -9.851562 L 16.972656 -9.457031 C 16.15625 -7.132812 14.453125 -5.765625 12.160156 -5.609375 C 9.125 -5.398438 6.578125 -7.761719 6.355469 -10.992188 C 6.128906 -14.257812 8.292969 -16.910156 11.363281 -17.121094 C 13.621094 -17.277344 15.613281 -16.164062 16.648438 -14.164062 L 22.289062 -14.554688 C 20.921875 -19.660156 16.480469 -22.832031 11.035156 -22.453125 C 4.65625 -22.015625 0.160156 -16.933594 0.59375 -10.632812 C 1.03125 -4.332031 6.1875 0.199219 12.53125 -0.238281 Z M 12.53125 -0.238281 "/></g></g></g><g fill="#ec3aab" fill-opacity="0.4"><g transform="translate(245.684111, 262.181078)"><g><path d="M 12.03125 -7.109375 C 9.953125 -6.769531 8.609375 -7.734375 8.28125 -9.734375 L 6.957031 -17.816406 L 12.613281 -18.746094 L 11.867188 -23.285156 L 6.132812 -22.34375 L 5.25 -27.730469 L 4.171875 -27.554688 L -2.597656 -17.511719 L -2.394531 -16.28125 L 1.335938 -16.894531 L 2.789062 -8.042969 C 3.539062 -3.464844 6.8125 -1.117188 11.390625 -1.867188 L 15.390625 -2.527344 L 14.570312 -7.527344 Z M 12.03125 -7.109375 "/></g></g></g><g fill="#efdad0" fill-opacity="1"><g transform="translate(113.929747, 238.659829)"><g><path d="M 21.5 -14.40625 C 19.09375 -15.425781 16.574219 -15.472656 14.296875 -14.699219 L 14.160156 -16.875 L 10.710938 -18.332031 L -0.445312 8.066406 L 4.796875 10.28125 L 8.199219 2.238281 C 9.230469 3.902344 10.804688 5.285156 12.816406 6.136719 C 18.667969 8.609375 24.847656 6.015625 27.335938 0.125 C 29.8125 -5.730469 27.351562 -11.933594 21.5 -14.40625 Z M 14.496094 0.960938 C 11.441406 -0.328125 10.171875 -3.53125 11.460938 -6.585938 C 12.738281 -9.601562 15.933594 -10.960938 18.988281 -9.667969 C 22.039062 -8.378906 23.296875 -5.140625 22.019531 -2.121094 C 20.730469 0.929688 17.546875 2.253906 14.496094 0.960938 Z M 14.496094 0.960938 "/></g></g></g><g fill="#efdad0" fill-opacity="1"><g transform="translate(139.398532, 249.094924)"><g><path d="M 19.199219 -16.179688 C 16.59375 -16.996094 14.550781 -16.734375 12.539062 -15.402344 L 12.351562 -18.199219 L 8.890625 -19.28125 L 2.605469 0.816406 L 8.039062 2.515625 L 11.296875 -7.90625 C 12.324219 -11.179688 13.945312 -12.183594 16.996094 -11.230469 L 19.378906 -10.484375 L 20.984375 -15.621094 Z M 19.199219 -16.179688 "/></g></g></g><g fill="#efdad0" fill-opacity="1"><g transform="translate(155.375236, 254.284447)"><g><path d="M 12.304688 3.25 C 18.675781 4.601562 24.4375 0.917969 25.757812 -5.296875 C 27.078125 -11.515625 23.296875 -17.179688 16.925781 -18.53125 C 10.554688 -19.882812 4.800781 -16.242188 3.480469 -10.023438 C 2.164062 -3.804688 5.933594 1.898438 12.304688 3.25 Z M 13.421875 -2.015625 C 10.21875 -2.695312 8.414062 -5.46875 9.128906 -8.824219 C 9.832031 -12.144531 12.613281 -13.984375 15.816406 -13.304688 C 19.019531 -12.625 20.816406 -9.8125 20.113281 -6.496094 C 19.398438 -3.140625 16.625 -1.335938 13.421875 -2.015625 Z M 13.421875 -2.015625 "/></g></g></g><g fill="#efdad0" fill-opacity="1"><g transform="translate(181.139735, 259.416566)"><g><path d="M 6.136719 -23.28125 L 11.746094 -22.578125 L 12.402344 -27.800781 L 6.792969 -28.503906 Z M -2.6875 7.328125 L 0.0234375 7.664062 C 4.625 8.242188 8.285156 5.398438 8.855469 0.832031 L 11.4375 -19.789062 L 5.789062 -20.496094 L 3.261719 -0.300781 C 3.007812 1.710938 1.792969 2.621094 -0.21875 2.371094 L -2.035156 2.140625 Z M -2.6875 7.328125 "/></g></g></g><g fill="#efdad0" fill-opacity="1"><g transform="translate(193.443525, 261.190859)"><g><path d="M 23.589844 -9.578125 C 23.84375 -15.65625 19.617188 -20.828125 13.148438 -21.101562 C 6.914062 -21.367188 2.039062 -16.773438 1.769531 -10.460938 C 1.503906 -4.152344 6.011719 0.878906 12.207031 1.140625 C 17.113281 1.347656 21.25 -1.402344 22.964844 -5.933594 L 17.003906 -6.1875 C 16.082031 -4.703125 14.40625 -3.839844 12.421875 -3.921875 C 9.65625 -4.039062 7.851562 -5.714844 7.46875 -8.621094 L 23.402344 -7.945312 C 23.503906 -8.488281 23.566406 -9.03125 23.589844 -9.578125 Z M 12.941406 -16.234375 C 15.511719 -16.125 17.285156 -14.644531 17.996094 -12.039062 L 7.789062 -12.472656 C 8.554688 -14.9375 10.410156 -16.339844 12.941406 -16.234375 Z M 12.941406 -16.234375 "/></g></g></g><g fill="#efdad0" fill-opacity="1"><g transform="translate(219.00003, 262.209963)"><g><path d="M 12.53125 -0.238281 C 18.015625 -0.617188 22.085938 -4.496094 22.691406 -9.851562 L 16.972656 -9.457031 C 16.15625 -7.132812 14.453125 -5.765625 12.160156 -5.609375 C 9.125 -5.398438 6.578125 -7.761719 6.355469 -10.992188 C 6.128906 -14.257812 8.292969 -16.910156 11.363281 -17.121094 C 13.621094 -17.277344 15.613281 -16.164062 16.648438 -14.164062 L 22.289062 -14.554688 C 20.921875 -19.660156 16.480469 -22.832031 11.035156 -22.453125 C 4.65625 -22.015625 0.160156 -16.933594 0.59375 -10.632812 C 1.03125 -4.332031 6.1875 0.199219 12.53125 -0.238281 Z M 12.53125 -0.238281 "/></g></g></g><g fill="#efdad0" fill-opacity="1"><g transform="translate(244.198219, 260.248905)"><g><path d="M 12.03125 -7.109375 C 9.953125 -6.769531 8.609375 -7.734375 8.28125 -9.734375 L 6.957031 -17.816406 L 12.613281 -18.746094 L 11.867188 -23.285156 L 6.132812 -22.34375 L 5.25 -27.730469 L 4.171875 -27.554688 L -2.597656 -17.511719 L -2.394531 -16.28125 L 1.335938 -16.894531 L 2.789062 -8.042969 C 3.539062 -3.464844 6.8125 -1.117188 11.390625 -1.867188 L 15.390625 -2.527344 L 14.570312 -7.527344 Z M 12.03125 -7.109375 "/></g></g></g><g fill="#ec3aab" fill-opacity="0.4"><g transform="translate(56.9294, 262.756243)"><g><path d="M 33.691406 -6.28125 C 31.324219 -7.558594 28.601562 -7.519531 26.367188 -6.421875 C 26.269531 -8.867188 24.941406 -11 22.574219 -12.277344 C 20.375 -13.464844 17.777344 -13.492188 15.585938 -12.546875 L 15.898438 -15.347656 L 12.398438 -17.234375 L 2.402344 1.296875 L 7.414062 4 L 12.816406 -6.023438 C 14.375 -8.90625 16.601562 -9.832031 18.863281 -8.609375 C 20.648438 -7.644531 20.90625 -5.824219 19.574219 -3.351562 L 13.761719 7.421875 L 18.632812 10.050781 L 24.039062 0.03125 C 25.59375 -2.851562 27.820312 -3.777344 30.054688 -2.574219 C 31.871094 -1.59375 32.128906 0.230469 30.796875 2.699219 L 24.984375 13.476562 L 29.992188 16.179688 L 36.25 4.582031 C 38.601562 0.222656 37.535156 -4.207031 33.691406 -6.28125 Z M 33.691406 -6.28125 "/></g></g></g><g fill="#ec3aab" fill-opacity="0.4"><g transform="translate(90.282106, 280.351813)"><g><path d="M 26.253906 -12.226562 L 24.976562 -10.59375 C 23.863281 -12.757812 22.011719 -14.539062 19.476562 -15.546875 C 13.605469 -17.878906 7.464844 -15.203125 5.117188 -9.292969 C 2.773438 -3.386719 5.386719 2.8125 11.257812 5.144531 C 13.757812 6.136719 16.277344 6.128906 18.535156 5.308594 L 18.300781 7.269531 L 22.429688 8.910156 L 30.203125 -10.65625 Z M 13.679688 0.316406 C 10.597656 -0.910156 9.273438 -4.121094 10.480469 -7.164062 C 11.707031 -10.246094 14.859375 -11.636719 17.941406 -10.410156 C 21.019531 -9.1875 22.359375 -6.011719 21.136719 -2.933594 C 19.914062 0.148438 16.757812 1.539062 13.679688 0.316406 Z M 13.679688 0.316406 "/></g></g></g><g fill="#ec3aab" fill-opacity="0.4"><g transform="translate(116.182646, 290.544132)"><g><path d="M 20.121094 -16.566406 C 17.390625 -17.359375 14.617188 -16.90625 12.5625 -15.554688 L 12.242188 -18.371094 L 8.496094 -19.457031 L 2.621094 0.761719 L 8.085938 2.351562 L 11.167969 -8.246094 C 12.113281 -11.503906 14.425781 -13.023438 17.230469 -12.207031 C 19.589844 -11.523438 20.328125 -9.726562 19.433594 -6.65625 L 16.136719 4.691406 L 21.605469 6.277344 L 25.164062 -5.964844 C 26.652344 -11.09375 24.730469 -15.226562 20.121094 -16.566406 Z M 20.121094 -16.566406 "/></g></g></g><g fill="#ec3aab" fill-opacity="0.4"><g transform="translate(141.079732, 297.781125)"><g><path d="M 23.464844 -16.980469 L 22.519531 -15.132812 C 21.015625 -17.046875 18.859375 -18.449219 16.179688 -18.957031 C 9.972656 -20.132812 4.449219 -16.339844 3.265625 -10.097656 C 2.082031 -3.851562 5.820312 1.738281 12.027344 2.917969 C 14.671875 3.417969 17.144531 2.9375 19.203125 1.699219 L 19.347656 3.671875 L 23.714844 4.5 L 27.640625 -16.1875 Z M 13.492188 -2.28125 C 10.234375 -2.898438 8.324219 -5.800781 8.933594 -9.019531 C 9.554688 -12.277344 12.386719 -14.238281 15.640625 -13.621094 C 18.898438 -13.003906 20.816406 -10.140625 20.199219 -6.882812 C 19.578125 -3.625 16.746094 -1.664062 13.492188 -2.28125 Z M 13.492188 -2.28125 "/></g></g></g><g fill="#ec3aab" fill-opacity="0.4"><g transform="translate(168.460141, 302.911592)"><g><path d="M 21.542969 -19.195312 L 20.421875 -17.183594 C 18.75 -19.015625 16.433594 -20.246094 13.714844 -20.488281 C 7.851562 -21.019531 2.847656 -16.773438 2.316406 -10.910156 C 1.785156 -5.007812 5.949219 0.0273438 11.8125 0.558594 C 14.066406 0.761719 16.1875 0.25 17.960938 -0.765625 L 17.890625 0.0117188 C 17.613281 3.078125 15.078125 4.730469 12.203125 4.46875 C 10.105469 4.28125 7.980469 3.109375 7.492188 1.148438 L 1.859375 0.636719 C 2.398438 5.503906 6.175781 8.78125 11.84375 9.292969 C 18.484375 9.890625 22.925781 6.261719 23.519531 -0.300781 L 25.191406 -18.828125 Z M 12.933594 -4.46875 C 9.824219 -4.75 7.78125 -7.246094 8.0625 -10.351562 C 8.34375 -13.496094 10.804688 -15.585938 13.910156 -15.304688 C 17.019531 -15.023438 19.0625 -12.527344 18.777344 -9.382812 C 18.5 -6.277344 16.039062 -4.1875 12.933594 -4.46875 Z M 12.933594 -4.46875 "/></g></g></g><g fill="#ec3aab" fill-opacity="0.4"><g transform="translate(195.427584, 305.26663)"><g><path d="M 23.128906 -10.632812 C 23.113281 -16.71875 18.652344 -21.695312 12.179688 -21.675781 C 5.941406 -21.65625 1.277344 -16.847656 1.296875 -10.53125 C 1.3125 -4.214844 6.046875 0.605469 12.246094 0.589844 C 17.160156 0.574219 21.167969 -2.363281 22.671875 -6.96875 L 16.707031 -6.949219 C 15.855469 -5.425781 14.21875 -4.488281 12.230469 -4.480469 C 9.460938 -4.472656 7.585938 -6.066406 7.070312 -8.949219 L 23.019531 -8.996094 C 23.09375 -9.542969 23.132812 -10.089844 23.128906 -10.632812 Z M 12.195312 -16.800781 C 14.769531 -16.808594 16.605469 -15.410156 17.429688 -12.839844 L 7.214844 -12.8125 C 7.871094 -15.308594 9.660156 -16.792969 12.195312 -16.800781 Z M 12.195312 -16.800781 "/></g></g></g><g fill="#ec3aab" fill-opacity="0.4"><g transform="translate(221.038942, 305.468232)"><g><path d="M 24.023438 -24.441406 C 21.351562 -24.132812 19.140625 -22.542969 17.941406 -20.363281 C 16.460938 -22.3125 14.148438 -23.300781 11.472656 -22.992188 C 8.996094 -22.707031 6.847656 -21.242188 5.589844 -19.210938 L 4.246094 -21.6875 L 0.292969 -21.230469 L 2.710938 -0.3125 L 8.367188 -0.964844 L 7.058594 -12.277344 C 6.683594 -15.53125 7.980469 -17.566406 10.535156 -17.859375 C 12.550781 -18.09375 13.804688 -16.746094 14.128906 -13.957031 L 15.53125 -1.792969 L 21.03125 -2.429688 L 19.726562 -13.742188 C 19.351562 -16.996094 20.644531 -19.027344 23.164062 -19.320312 C 25.21875 -19.554688 26.472656 -18.210938 26.792969 -15.421875 L 28.199219 -3.257812 L 33.855469 -3.910156 L 32.339844 -17.003906 C 31.773438 -21.921875 28.363281 -24.945312 24.023438 -24.441406 Z M 24.023438 -24.441406 "/></g></g></g><g fill="#ec3aab" fill-opacity="0.4"><g transform="translate(258.403298, 300.749321)"><g><path d="M 20.1875 -15.511719 C 18.816406 -21.4375 13.363281 -25.300781 7.054688 -23.84375 C 0.976562 -22.4375 -2.5 -16.710938 -1.078125 -10.554688 C 0.34375 -4.402344 6.027344 -0.753906 12.070312 -2.148438 C 16.855469 -3.253906 20.109375 -7.007812 20.554688 -11.835938 L 14.742188 -10.492188 C 14.25 -8.816406 12.867188 -7.535156 10.929688 -7.089844 C 8.230469 -6.464844 6.046875 -7.601562 4.902344 -10.296875 L 20.441406 -13.890625 C 20.394531 -14.4375 20.308594 -14.980469 20.1875 -15.511719 Z M 8.152344 -19.09375 C 10.660156 -19.671875 12.761719 -18.71875 14.140625 -16.394531 L 4.1875 -14.09375 C 4.269531 -16.675781 5.683594 -18.523438 8.152344 -19.09375 Z M 8.152344 -19.09375 "/></g></g></g><g fill="#ec3aab" fill-opacity="0.4"><g transform="translate(283.11902, 295.006798)"><g><path d="M 7.234375 -25.039062 C 4.53125 -24.152344 2.5 -22.210938 1.566406 -19.933594 L -0.289062 -22.074219 L -3.992188 -20.855469 L 2.59375 -0.851562 L 8 -2.632812 L 4.550781 -13.113281 C 3.488281 -16.335938 4.535156 -18.898438 7.3125 -19.8125 C 9.644531 -20.582031 11.269531 -19.515625 12.269531 -16.476562 L 15.964844 -5.253906 L 21.371094 -7.035156 L 17.382812 -19.144531 C 15.714844 -24.21875 11.789062 -26.539062 7.234375 -25.039062 Z M 7.234375 -25.039062 "/></g></g></g><g fill="#ec3aab" fill-opacity="0.4"><g transform="translate(307.502496, 286.784596)"><g><path d="M 10.074219 -9.6875 C 8.128906 -8.878906 6.601562 -9.507812 5.820312 -11.378906 L 2.671875 -18.9375 L 7.960938 -21.140625 L 6.195312 -25.390625 L 0.832031 -23.15625 L -1.269531 -28.195312 L -2.277344 -27.773438 L -6.554688 -16.445312 L -6.074219 -15.292969 L -2.582031 -16.75 L 0.863281 -8.46875 C 2.648438 -4.1875 6.371094 -2.652344 10.65625 -4.4375 L 14.398438 -5.996094 L 12.449219 -10.675781 Z M 10.074219 -9.6875 "/></g></g></g><g fill="#efdad0" fill-opacity="1"><g transform="translate(55.327302, 260.919271)"><g><path d="M 33.691406 -6.28125 C 31.324219 -7.558594 28.601562 -7.519531 26.367188 -6.421875 C 26.269531 -8.867188 24.941406 -11 22.574219 -12.277344 C 20.375 -13.464844 17.777344 -13.492188 15.585938 -12.546875 L 15.898438 -15.347656 L 12.398438 -17.234375 L 2.402344 1.296875 L 7.414062 4 L 12.816406 -6.023438 C 14.375 -8.90625 16.601562 -9.832031 18.863281 -8.609375 C 20.648438 -7.644531 20.90625 -5.824219 19.574219 -3.351562 L 13.761719 7.421875 L 18.632812 10.050781 L 24.039062 0.03125 C 25.59375 -2.851562 27.820312 -3.777344 30.054688 -2.574219 C 31.871094 -1.59375 32.128906 0.230469 30.796875 2.699219 L 24.984375 13.476562 L 29.992188 16.179688 L 36.25 4.582031 C 38.601562 0.222656 37.535156 -4.207031 33.691406 -6.28125 Z M 33.691406 -6.28125 "/></g></g></g><g fill="#efdad0" fill-opacity="1"><g transform="translate(88.680006, 278.514841)"><g><path d="M 26.253906 -12.226562 L 24.976562 -10.59375 C 23.863281 -12.757812 22.011719 -14.539062 19.476562 -15.546875 C 13.605469 -17.878906 7.464844 -15.203125 5.117188 -9.292969 C 2.773438 -3.386719 5.386719 2.8125 11.257812 5.144531 C 13.757812 6.136719 16.277344 6.128906 18.535156 5.308594 L 18.300781 7.269531 L 22.429688 8.910156 L 30.203125 -10.65625 Z M 13.679688 0.316406 C 10.597656 -0.910156 9.273438 -4.121094 10.480469 -7.164062 C 11.707031 -10.246094 14.859375 -11.636719 17.941406 -10.410156 C 21.019531 -9.1875 22.359375 -6.011719 21.136719 -2.933594 C 19.914062 0.148438 16.757812 1.539062 13.679688 0.316406 Z M 13.679688 0.316406 "/></g></g></g><g fill="#efdad0" fill-opacity="1"><g transform="translate(114.580531, 288.70716)"><g><path d="M 20.121094 -16.566406 C 17.390625 -17.359375 14.617188 -16.90625 12.5625 -15.554688 L 12.242188 -18.371094 L 8.496094 -19.457031 L 2.621094 0.761719 L 8.085938 2.351562 L 11.167969 -8.246094 C 12.113281 -11.503906 14.425781 -13.023438 17.230469 -12.207031 C 19.589844 -11.523438 20.328125 -9.726562 19.433594 -6.65625 L 16.136719 4.691406 L 21.605469 6.277344 L 25.164062 -5.964844 C 26.652344 -11.09375 24.730469 -15.226562 20.121094 -16.566406 Z M 20.121094 -16.566406 "/></g></g></g><g fill="#efdad0" fill-opacity="1"><g transform="translate(139.47762, 295.944153)"><g><path d="M 23.464844 -16.980469 L 22.519531 -15.132812 C 21.015625 -17.046875 18.859375 -18.449219 16.179688 -18.957031 C 9.972656 -20.132812 4.449219 -16.339844 3.265625 -10.097656 C 2.082031 -3.851562 5.820312 1.738281 12.027344 2.917969 C 14.671875 3.417969 17.144531 2.9375 19.203125 1.699219 L 19.347656 3.671875 L 23.714844 4.5 L 27.640625 -16.1875 Z M 13.492188 -2.28125 C 10.234375 -2.898438 8.324219 -5.800781 8.933594 -9.019531 C 9.554688 -12.277344 12.386719 -14.238281 15.640625 -13.621094 C 18.898438 -13.003906 20.816406 -10.140625 20.199219 -6.882812 C 19.578125 -3.625 16.746094 -1.664062 13.492188 -2.28125 Z M 13.492188 -2.28125 "/></g></g></g><g fill="#efdad0" fill-opacity="1"><g transform="translate(166.858043, 301.074591)"><g><path d="M 21.542969 -19.195312 L 20.421875 -17.183594 C 18.75 -19.015625 16.433594 -20.246094 13.714844 -20.488281 C 7.851562 -21.019531 2.847656 -16.773438 2.316406 -10.910156 C 1.785156 -5.007812 5.949219 0.0273438 11.8125 0.558594 C 14.066406 0.761719 16.1875 0.25 17.960938 -0.765625 L 17.890625 0.0117188 C 17.613281 3.078125 15.078125 4.730469 12.203125 4.46875 C 10.105469 4.28125 7.980469 3.109375 7.492188 1.148438 L 1.859375 0.636719 C 2.398438 5.503906 6.175781 8.78125 11.84375 9.292969 C 18.484375 9.890625 22.925781 6.261719 23.519531 -0.300781 L 25.191406 -18.828125 Z M 12.933594 -4.46875 C 9.824219 -4.75 7.78125 -7.246094 8.0625 -10.351562 C 8.34375 -13.496094 10.804688 -15.585938 13.910156 -15.304688 C 17.019531 -15.023438 19.0625 -12.527344 18.777344 -9.382812 C 18.5 -6.277344 16.039062 -4.1875 12.933594 -4.46875 Z M 12.933594 -4.46875 "/></g></g></g><g fill="#efdad0" fill-opacity="1"><g transform="translate(193.825485, 303.429655)"><g><path d="M 23.128906 -10.632812 C 23.113281 -16.71875 18.652344 -21.695312 12.179688 -21.675781 C 5.941406 -21.65625 1.277344 -16.847656 1.296875 -10.53125 C 1.3125 -4.214844 6.046875 0.605469 12.246094 0.589844 C 17.160156 0.574219 21.167969 -2.363281 22.671875 -6.96875 L 16.707031 -6.949219 C 15.855469 -5.425781 14.21875 -4.488281 12.230469 -4.480469 C 9.460938 -4.472656 7.585938 -6.066406 7.070312 -8.949219 L 23.019531 -8.996094 C 23.09375 -9.542969 23.132812 -10.089844 23.128906 -10.632812 Z M 12.195312 -16.800781 C 14.769531 -16.808594 16.605469 -15.410156 17.429688 -12.839844 L 7.214844 -12.8125 C 7.871094 -15.308594 9.660156 -16.792969 12.195312 -16.800781 Z M 12.195312 -16.800781 "/></g></g></g><g fill="#efdad0" fill-opacity="1"><g transform="translate(219.436841, 303.631261)"><g><path d="M 24.023438 -24.441406 C 21.351562 -24.132812 19.140625 -22.542969 17.941406 -20.363281 C 16.460938 -22.3125 14.148438 -23.300781 11.472656 -22.992188 C 8.996094 -22.707031 6.847656 -21.242188 5.589844 -19.210938 L 4.246094 -21.6875 L 0.292969 -21.230469 L 2.710938 -0.3125 L 8.367188 -0.964844 L 7.058594 -12.277344 C 6.683594 -15.53125 7.980469 -17.566406 10.535156 -17.859375 C 12.550781 -18.09375 13.804688 -16.746094 14.128906 -13.957031 L 15.53125 -1.792969 L 21.03125 -2.429688 L 19.726562 -13.742188 C 19.351562 -16.996094 20.644531 -19.027344 23.164062 -19.320312 C 25.21875 -19.554688 26.472656 -18.210938 26.792969 -15.421875 L 28.199219 -3.257812 L 33.855469 -3.910156 L 32.339844 -17.003906 C 31.773438 -21.921875 28.363281 -24.945312 24.023438 -24.441406 Z M 24.023438 -24.441406 "/></g></g></g><g fill="#efdad0" fill-opacity="1"><g transform="translate(256.8012, 298.91235)"><g><path d="M 20.1875 -15.511719 C 18.816406 -21.4375 13.363281 -25.300781 7.054688 -23.84375 C 0.976562 -22.4375 -2.5 -16.710938 -1.078125 -10.554688 C 0.34375 -4.402344 6.027344 -0.753906 12.070312 -2.148438 C 16.855469 -3.253906 20.109375 -7.007812 20.554688 -11.835938 L 14.742188 -10.492188 C 14.25 -8.816406 12.867188 -7.535156 10.929688 -7.089844 C 8.230469 -6.464844 6.046875 -7.601562 4.902344 -10.296875 L 20.441406 -13.890625 C 20.394531 -14.4375 20.308594 -14.980469 20.1875 -15.511719 Z M 8.152344 -19.09375 C 10.660156 -19.671875 12.761719 -18.71875 14.140625 -16.394531 L 4.1875 -14.09375 C 4.269531 -16.675781 5.683594 -18.523438 8.152344 -19.09375 Z M 8.152344 -19.09375 "/></g></g></g><g fill="#efdad0" fill-opacity="1"><g transform="translate(281.516919, 293.169795)"><g><path d="M 7.234375 -25.039062 C 4.53125 -24.152344 2.5 -22.210938 1.566406 -19.933594 L -0.289062 -22.074219 L -3.992188 -20.855469 L 2.59375 -0.851562 L 8 -2.632812 L 4.550781 -13.113281 C 3.488281 -16.335938 4.535156 -18.898438 7.3125 -19.8125 C 9.644531 -20.582031 11.269531 -19.515625 12.269531 -16.476562 L 15.964844 -5.253906 L 21.371094 -7.035156 L 17.382812 -19.144531 C 15.714844 -24.21875 11.789062 -26.539062 7.234375 -25.039062 Z M 7.234375 -25.039062 "/></g></g></g><g fill="#efdad0" fill-opacity="1"><g transform="translate(305.900398, 284.947624)"><g><path d="M 10.074219 -9.6875 C 8.128906 -8.878906 6.601562 -9.507812 5.820312 -11.378906 L 2.671875 -18.9375 L 7.960938 -21.140625 L 6.195312 -25.390625 L 0.832031 -23.15625 L -1.269531 -28.195312 L -2.277344 -27.773438 L -6.554688 -16.445312 L -6.074219 -15.292969 L -2.582031 -16.75 L 0.863281 -8.46875 C 2.648438 -4.1875 6.371094 -2.652344 10.65625 -4.4375 L 14.398438 -5.996094 L 12.449219 -10.675781 Z M 10.074219 -9.6875 "/></g></g></g></svg>