<svg xmlns="http://www.w3.org/2000/svg" xmlns:xlink="http://www.w3.org/1999/xlink" width="100" zoomAndPan="magnify" viewBox="0 0 375 374.999991" height="100" preserveAspectRatio="xMidYMid meet" version="1.0"><defs><g/><clipPath id="b97e5441fe"><path d="M 236 25.546875 L 271 25.546875 L 271 53 L 236 53 Z M 236 25.546875 " clip-rule="nonzero"/></clipPath><clipPath id="42c58db54c"><path d="M 141.097656 92 L 271 92 L 271 214 L 141.097656 214 Z M 141.097656 92 " clip-rule="nonzero"/></clipPath><clipPath id="492fc91ddd"><path d="M 222 78 L 272.347656 78 L 272.347656 99 L 222 99 Z M 222 78 " clip-rule="nonzero"/></clipPath></defs><path fill="#6f0200" d="M 1.984375 299.8125 L 8.953125 299.066406 C 41.476562 295.601562 64.363281 293.878906 77.617188 293.894531 C 87.507812 293.742188 96.242188 293.921875 103.820312 294.433594 C 104.984375 294.351562 116.875 295.425781 139.492188 297.65625 L 146.308594 298.089844 C 151.761719 298.375 155.609375 297.9375 157.851562 296.777344 C 159.179688 296.277344 159.59375 294.933594 159.089844 292.734375 C 159.578125 292.328125 157.378906 289.285156 152.496094 283.605469 C 149.269531 279.402344 134.613281 266.90625 108.53125 246.125 L 1.984375 299.8125 " fill-opacity="1" fill-rule="nonzero"/><path fill="#f6b7ab" d="M 91.070312 224.1875 L 92.882812 209.421875 C 96.023438 179.378906 101.371094 151.648438 108.921875 126.230469 C 114.164062 109.5 121.609375 95.082031 131.261719 82.980469 C 154.445312 57.03125 188.632812 44.128906 233.828125 44.277344 C 261.910156 44.648438 285.648438 49 305.039062 57.328125 C 322.289062 64.796875 335.871094 74.71875 345.785156 87.097656 C 355.664062 99.488281 362.574219 113.65625 366.523438 129.609375 C 371.34375 148.074219 374.167969 173.824219 374.988281 206.847656 C 359.859375 229.816406 347.578125 244.253906 338.144531 250.164062 C 329.042969 257.070312 313.519531 261.859375 291.578125 264.527344 L 91.070312 224.1875 " fill-opacity="1" fill-rule="nonzero"/><path fill="#db0300" d="M 351.429688 239.6875 L 348.183594 241.160156 C 332.515625 249.285156 314.101562 252.617188 292.945312 251.160156 C 288.710938 251.058594 279.570312 249.890625 265.511719 247.664062 L 246.605469 244.183594 L 187.882812 232.277344 C 184.441406 231.511719 175.671875 230.070312 161.578125 227.957031 C 144.523438 225.347656 121.003906 223.730469 91.023438 223.109375 C 30.332031 270.894531 0.433594 296.515625 1.324219 299.964844 C 3.171875 300.144531 5.136719 299.800781 7.21875 298.929688 C 22.820312 293.050781 33.960938 289.148438 40.640625 287.222656 C 52.675781 283.964844 59.992188 282.292969 62.585938 282.199219 C 69.761719 281.085938 77.121094 280.828125 84.664062 281.421875 C 89.769531 281.851562 94.796875 282.648438 99.746094 283.816406 C 107.300781 285.023438 119.269531 289.722656 135.648438 297.914062 C 146.34375 303.550781 163.066406 314.175781 185.816406 329.785156 C 195.308594 335.5625 201.015625 338.789062 202.9375 339.46875 C 210.5625 343.246094 218.3125 345.648438 226.1875 346.671875 C 242.289062 348.527344 258.339844 342.550781 274.335938 328.734375 C 293.503906 312.972656 319.203125 283.292969 351.429688 239.6875 " fill-opacity="1" fill-rule="nonzero"/><g clip-path="url(#b97e5441fe)"><path fill="#da0300" d="M 238.285156 50.476562 L 265.246094 52.632812 C 266.875 49.148438 267.8125 47.070312 268.050781 46.40625 C 269.324219 43.046875 269.964844 41.074219 269.976562 40.492188 C 270.566406 37.960938 270.464844 35.675781 269.671875 33.644531 C 268.746094 31.570312 267.046875 29.957031 264.570312 28.796875 C 264.230469 28.542969 262.867188 28.027344 260.476562 27.25 C 258.480469 26.6875 256.394531 26.304688 254.21875 26.105469 C 250.582031 25.796875 247.40625 25.980469 244.691406 26.660156 C 241.953125 27.289062 239.894531 28.539062 238.515625 30.414062 C 237.257812 32.28125 236.613281 34.550781 236.582031 37.226562 C 236.453125 37.816406 236.609375 39.941406 237.046875 43.597656 C 237.121094 44.320312 237.53125 46.613281 238.285156 50.476562 " fill-opacity="0.9804" fill-rule="nonzero"/></g><path fill="#da0300" d="M 207.484375 123.085938 L 211.53125 121.949219 C 229.511719 116.710938 242.285156 114.054688 249.847656 113.988281 C 256.863281 113.757812 260.109375 116.277344 259.585938 121.542969 C 259.21875 123.835938 258.105469 126.671875 256.25 130.046875 C 256.046875 131.207031 251.929688 137.246094 243.898438 148.164062 C 242.582031 150.136719 236.339844 157.726562 225.167969 170.933594 C 215.648438 181.921875 205.589844 193.304688 194.988281 205.082031 C 178.445312 173.035156 168.875 153.035156 166.277344 145.082031 C 161.054688 131.476562 158.960938 121.660156 159.992188 115.636719 C 160.257812 113.566406 160.738281 111.738281 161.441406 110.15625 L 162.621094 107.949219 C 163.503906 106.59375 164.535156 105.457031 165.71875 104.535156 C 169.113281 101.804688 173.660156 100.777344 179.359375 101.460938 C 183.644531 102.03125 188.148438 104.175781 192.875 107.898438 C 196.582031 110.785156 201.453125 115.847656 207.484375 123.085938 " fill-opacity="0.9804" fill-rule="nonzero"/><path fill="#4d5215" d="M 213.371094 99.882812 C 213.371094 99.882812 218.277344 87.78125 221.164062 78.628906 C 223.160156 72.308594 225.003906 66.976562 225.535156 67.019531 C 226.832031 67.117188 233.542969 71.320312 236.605469 72.695312 C 239.667969 74.066406 220.671875 93.238281 220.757812 102.398438 C 220.847656 111.558594 213.371094 99.882812 213.371094 99.882812 Z M 213.371094 99.882812 " fill-opacity="1" fill-rule="evenodd"/><g clip-path="url(#42c58db54c)"><path fill="#ef374a" d="M 182.175781 205.15625 C 151.625 206.230469 141.113281 182.152344 141.113281 152.121094 C 141.113281 127.585938 162.59375 97.695312 188.625 93.351562 C 203.667969 90.839844 217.539062 99.414062 217.539062 99.414062 C 217.539062 99.414062 234.628906 94.902344 247.046875 102.789062 C 261.125 111.730469 270.738281 134.132812 270.738281 152.121094 C 270.738281 185.988281 252.238281 216.980469 216.726562 212.671875 C 207.8125 211.589844 201.417969 204.480469 182.175781 205.15625 Z M 182.175781 205.15625 " fill-opacity="1" fill-rule="evenodd"/></g><path fill="#000000" d="M 183.027344 155.75 C 187.316406 156.464844 190.21875 160.53125 189.503906 164.824219 C 188.789062 169.117188 184.726562 172.019531 180.4375 171.304688 C 176.148438 170.589844 173.246094 166.523438 173.960938 162.230469 C 174.675781 157.9375 178.738281 155.035156 183.027344 155.75 Z M 183.027344 155.75 " fill-opacity="1" fill-rule="evenodd"/><path fill="#000000" d="M 228.957031 163.40625 C 233.246094 164.121094 236.148438 168.183594 235.433594 172.480469 C 234.722656 176.773438 230.660156 179.675781 226.371094 178.960938 C 222.082031 178.246094 219.179688 174.179688 219.890625 169.886719 C 220.605469 165.59375 224.667969 162.691406 228.957031 163.40625 Z M 228.957031 163.40625 " fill-opacity="1" fill-rule="evenodd"/><path fill="#000000" d="M 197.25 175.175781 C 196.835938 175.105469 196.410156 175.230469 196.097656 175.511719 C 195.785156 175.792969 195.617188 176.203125 195.644531 176.625 C 195.878906 179.992188 198.382812 182.894531 201.851562 183.472656 C 205.316406 184.050781 208.621094 182.125 209.917969 179.011719 C 210.078125 178.625 210.054688 178.1875 209.851562 177.824219 C 209.648438 177.457031 209.289062 177.203125 208.878906 177.136719 C 208.882812 177.113281 208.878906 177.113281 208.878906 177.113281 C 208.101562 176.984375 207.328125 177.378906 206.972656 178.085938 C 206.160156 179.777344 204.300781 180.792969 202.351562 180.46875 C 200.410156 180.144531 198.976562 178.585938 198.730469 176.726562 C 198.621094 175.949219 198.019531 175.332031 197.246094 175.203125 C 197.25 175.175781 197.25 175.175781 197.25 175.175781 Z M 197.25 175.175781 " fill-opacity="1" fill-rule="evenodd"/><path fill="#f7b9d4" d="M 164.894531 168.714844 C 169.183594 169.429688 172.378906 171.753906 172.019531 173.898438 C 171.664062 176.046875 167.890625 177.210938 163.601562 176.496094 C 159.3125 175.78125 156.121094 173.457031 156.476562 171.308594 C 156.835938 169.164062 160.605469 168 164.894531 168.714844 Z M 164.894531 168.714844 " fill-opacity="1" fill-rule="evenodd"/><path fill="#f7b9d4" d="M 235.699219 183.785156 C 239.988281 184.5 243.179688 186.824219 242.824219 188.96875 C 242.464844 191.117188 238.695312 192.277344 234.40625 191.5625 C 230.117188 190.847656 226.921875 188.527344 227.28125 186.378906 C 227.636719 184.234375 231.410156 183.070312 235.699219 183.785156 Z M 235.699219 183.785156 " fill-opacity="1" fill-rule="evenodd"/><g clip-path="url(#492fc91ddd)"><path fill="#4d5215" d="M 272.351562 89.6875 C 264.855469 81.28125 260.410156 79.476562 236.941406 78.441406 C 231.375 78.195312 222.949219 83.214844 222.753906 87.640625 C 222.558594 92.070312 234.320312 98.164062 239.882812 98.410156 C 263.355469 99.445312 266.316406 95.535156 272.351562 89.6875 Z M 272.351562 89.6875 " fill-opacity="1" fill-rule="evenodd"/></g><g fill="#efdad0" fill-opacity="0.4"><g transform="translate(78.730627, 270.219745)"><g><path d="M 13.621094 -3.125 C 11.539062 -3.429688 10.550781 -4.757812 10.84375 -6.765625 L 12.03125 -14.867188 L 17.703125 -14.035156 L 18.371094 -18.585938 L 12.621094 -19.429688 L 13.414062 -24.832031 L 12.335938 -24.988281 L 2.839844 -17.476562 L 2.65625 -16.242188 L 6.398438 -15.691406 L 5.097656 -6.820312 C 4.425781 -2.226562 6.828125 1 11.417969 1.675781 L 15.433594 2.261719 L 16.167969 -2.753906 Z M 13.621094 -3.125 "/></g></g></g><g fill="#efdad0" fill-opacity="0.4"><g transform="translate(94.619773, 272.368966)"><g><path d="M 24.929688 -5.167969 C 26.277344 -11.101562 23.046875 -16.953125 16.738281 -18.386719 C 10.652344 -19.769531 5.027344 -16.132812 3.625 -9.972656 C 2.226562 -3.8125 5.753906 1.949219 11.800781 3.324219 C 16.589844 4.414062 21.15625 2.449219 23.660156 -1.699219 L 17.839844 -3.019531 C 16.667969 -1.730469 14.863281 -1.179688 12.925781 -1.621094 C 10.226562 -2.234375 8.753906 -4.207031 8.898438 -7.132812 L 24.449219 -3.597656 C 24.648438 -4.113281 24.808594 -4.636719 24.929688 -5.167969 Z M 15.65625 -13.636719 C 18.164062 -13.0625 19.640625 -11.289062 19.871094 -8.597656 L 9.90625 -10.863281 C 11.105469 -13.148438 13.183594 -14.195312 15.65625 -13.636719 Z M 15.65625 -13.636719 "/></g></g></g><g fill="#efdad0" fill-opacity="0.4"><g transform="translate(117.631879, 277.495073)"><g><path d="M 25.507812 -13.714844 L 24.328125 -12.011719 C 23.09375 -14.105469 21.140625 -15.78125 18.550781 -16.640625 C 12.558594 -18.632812 6.582031 -15.605469 4.578125 -9.574219 C 2.574219 -3.542969 5.539062 2.496094 11.535156 4.488281 C 14.085938 5.335938 16.601562 5.1875 18.808594 4.234375 L 18.6875 6.207031 L 22.90625 7.609375 L 29.542969 -12.375 Z M 13.675781 -0.472656 C 10.527344 -1.515625 9.019531 -4.644531 10.054688 -7.753906 C 11.097656 -10.898438 14.167969 -12.46875 17.3125 -11.425781 C 20.457031 -10.378906 21.976562 -7.285156 20.933594 -4.140625 C 19.886719 -0.996094 16.820312 0.574219 13.675781 -0.472656 Z M 13.675781 -0.472656 "/></g></g></g><g fill="#efdad0" fill-opacity="0.4"><g transform="translate(142.290933, 285.703358)"><g><path d="M 11.1875 5.644531 C 16.214844 7.875 21.625 6.351562 24.667969 1.898438 L 19.425781 -0.425781 C 17.617188 1.246094 15.472656 1.660156 13.371094 0.726562 C 10.589844 -0.503906 9.445312 -3.785156 10.757812 -6.746094 C 12.085938 -9.738281 15.234375 -11.070312 18.050781 -9.824219 C 20.117188 -8.90625 21.359375 -6.988281 21.339844 -4.738281 L 26.507812 -2.445312 C 27.683594 -7.59375 25.242188 -12.476562 20.253906 -14.691406 C 14.40625 -17.28125 8.058594 -14.894531 5.496094 -9.121094 C 2.933594 -3.347656 5.378906 3.070312 11.1875 5.644531 Z M 11.1875 5.644531 "/></g></g></g><g fill="#efdad0" fill-opacity="0.4"><g transform="translate(163.786167, 295.179139)"><g><path d="M 23.414062 -11.550781 C 21.203125 -12.789062 18.808594 -13.058594 16.667969 -12.515625 L 21.339844 -20.847656 L 16.375 -23.632812 L 2.382812 1.335938 L 7.347656 4.117188 L 12.742188 -5.507812 C 14.421875 -8.5 17.0625 -9.390625 19.546875 -7.996094 C 21.757812 -6.757812 21.980469 -4.84375 20.4375 -2.089844 L 14.660156 8.214844 L 19.625 11 L 25.878906 -0.15625 C 28.492188 -4.816406 27.566406 -9.222656 23.414062 -11.550781 Z M 23.414062 -11.550781 "/></g></g></g><g fill="#efdad0" fill-opacity="0.4"><g transform="translate(184.83399, 306.941969)"><g><path d="M 25.0625 4.464844 C 28.519531 -0.539062 27.699219 -7.171875 22.371094 -10.851562 C 17.238281 -14.394531 10.664062 -13.109375 7.074219 -7.910156 C 3.484375 -2.710938 4.617188 3.949219 9.71875 7.46875 C 13.761719 10.261719 18.730469 10.136719 22.59375 7.214844 L 17.6875 3.828125 C 16.117188 4.589844 14.238281 4.429688 12.601562 3.300781 C 10.324219 1.726562 9.691406 -0.652344 10.914062 -3.316406 L 24.035156 5.746094 C 24.410156 5.34375 24.753906 4.914062 25.0625 4.464844 Z M 19.601562 -6.839844 C 21.71875 -5.378906 22.429688 -3.179688 21.640625 -0.597656 L 13.234375 -6.402344 C 15.199219 -8.078125 17.515625 -8.28125 19.601562 -6.839844 Z M 19.601562 -6.839844 "/></g></g></g><g fill="#efdad0" fill-opacity="0.4"><g transform="translate(204.304774, 320.552786)"><g><path d="M 23.808594 -7.964844 C 21.6875 -9.683594 19.691406 -10.195312 17.332031 -9.695312 L 18.191406 -12.363281 L 15.371094 -14.648438 L 2.121094 1.71875 L 6.546875 5.300781 L 13.417969 -3.183594 C 15.574219 -5.851562 17.453125 -6.1875 19.9375 -4.175781 L 21.878906 -2.605469 L 25.261719 -6.789062 Z M 23.808594 -7.964844 "/></g></g></g><g fill="#efdad0" fill-opacity="1"><g transform="translate(77.842096, 267.950012)"><g><path d="M 13.621094 -3.125 C 11.539062 -3.429688 10.550781 -4.757812 10.84375 -6.765625 L 12.03125 -14.867188 L 17.703125 -14.035156 L 18.371094 -18.585938 L 12.621094 -19.429688 L 13.414062 -24.832031 L 12.335938 -24.988281 L 2.839844 -17.476562 L 2.65625 -16.242188 L 6.398438 -15.691406 L 5.097656 -6.820312 C 4.425781 -2.226562 6.828125 1 11.417969 1.675781 L 15.433594 2.261719 L 16.167969 -2.753906 Z M 13.621094 -3.125 "/></g></g></g><g fill="#efdad0" fill-opacity="1"><g transform="translate(93.731242, 270.099207)"><g><path d="M 24.929688 -5.167969 C 26.277344 -11.101562 23.046875 -16.953125 16.738281 -18.386719 C 10.652344 -19.769531 5.027344 -16.132812 3.625 -9.972656 C 2.226562 -3.8125 5.753906 1.949219 11.800781 3.324219 C 16.589844 4.414062 21.15625 2.449219 23.660156 -1.699219 L 17.839844 -3.019531 C 16.667969 -1.730469 14.863281 -1.179688 12.925781 -1.621094 C 10.226562 -2.234375 8.753906 -4.207031 8.898438 -7.132812 L 24.449219 -3.597656 C 24.648438 -4.113281 24.808594 -4.636719 24.929688 -5.167969 Z M 15.65625 -13.636719 C 18.164062 -13.0625 19.640625 -11.289062 19.871094 -8.597656 L 9.90625 -10.863281 C 11.105469 -13.148438 13.183594 -14.195312 15.65625 -13.636719 Z M 15.65625 -13.636719 "/></g></g></g><g fill="#efdad0" fill-opacity="1"><g transform="translate(116.743348, 275.225326)"><g><path d="M 25.507812 -13.714844 L 24.328125 -12.011719 C 23.09375 -14.105469 21.140625 -15.78125 18.550781 -16.640625 C 12.558594 -18.632812 6.582031 -15.605469 4.578125 -9.574219 C 2.574219 -3.542969 5.539062 2.496094 11.535156 4.488281 C 14.085938 5.335938 16.601562 5.1875 18.808594 4.234375 L 18.6875 6.207031 L 22.90625 7.609375 L 29.542969 -12.375 Z M 13.675781 -0.472656 C 10.527344 -1.515625 9.019531 -4.644531 10.054688 -7.753906 C 11.097656 -10.898438 14.167969 -12.46875 17.3125 -11.425781 C 20.457031 -10.378906 21.976562 -7.285156 20.933594 -4.140625 C 19.886719 -0.996094 16.820312 0.574219 13.675781 -0.472656 Z M 13.675781 -0.472656 "/></g></g></g><g fill="#efdad0" fill-opacity="1"><g transform="translate(141.402402, 283.433613)"><g><path d="M 11.1875 5.644531 C 16.214844 7.875 21.625 6.351562 24.667969 1.898438 L 19.425781 -0.425781 C 17.617188 1.246094 15.472656 1.660156 13.371094 0.726562 C 10.589844 -0.503906 9.445312 -3.785156 10.757812 -6.746094 C 12.085938 -9.738281 15.234375 -11.070312 18.050781 -9.824219 C 20.117188 -8.90625 21.359375 -6.988281 21.339844 -4.738281 L 26.507812 -2.445312 C 27.683594 -7.59375 25.242188 -12.476562 20.253906 -14.691406 C 14.40625 -17.28125 8.058594 -14.894531 5.496094 -9.121094 C 2.933594 -3.347656 5.378906 3.070312 11.1875 5.644531 Z M 11.1875 5.644531 "/></g></g></g><g fill="#efdad0" fill-opacity="1"><g transform="translate(162.897636, 292.909394)"><g><path d="M 23.414062 -11.550781 C 21.203125 -12.789062 18.808594 -13.058594 16.667969 -12.515625 L 21.339844 -20.847656 L 16.375 -23.632812 L 2.382812 1.335938 L 7.347656 4.117188 L 12.742188 -5.507812 C 14.421875 -8.5 17.0625 -9.390625 19.546875 -7.996094 C 21.757812 -6.757812 21.980469 -4.84375 20.4375 -2.089844 L 14.660156 8.214844 L 19.625 11 L 25.878906 -0.15625 C 28.492188 -4.816406 27.566406 -9.222656 23.414062 -11.550781 Z M 23.414062 -11.550781 "/></g></g></g><g fill="#efdad0" fill-opacity="1"><g transform="translate(183.945445, 304.672222)"><g><path d="M 25.0625 4.464844 C 28.519531 -0.539062 27.699219 -7.171875 22.371094 -10.851562 C 17.238281 -14.394531 10.664062 -13.109375 7.074219 -7.910156 C 3.484375 -2.710938 4.617188 3.949219 9.71875 7.46875 C 13.761719 10.261719 18.730469 10.136719 22.59375 7.214844 L 17.6875 3.828125 C 16.117188 4.589844 14.238281 4.429688 12.601562 3.300781 C 10.324219 1.726562 9.691406 -0.652344 10.914062 -3.316406 L 24.035156 5.746094 C 24.410156 5.34375 24.753906 4.914062 25.0625 4.464844 Z M 19.601562 -6.839844 C 21.71875 -5.378906 22.429688 -3.179688 21.640625 -0.597656 L 13.234375 -6.402344 C 15.199219 -8.078125 17.515625 -8.28125 19.601562 -6.839844 Z M 19.601562 -6.839844 "/></g></g></g><g fill="#efdad0" fill-opacity="1"><g transform="translate(203.416229, 318.283012)"><g><path d="M 23.808594 -7.964844 C 21.6875 -9.683594 19.691406 -10.195312 17.332031 -9.695312 L 18.191406 -12.363281 L 15.371094 -14.648438 L 2.121094 1.71875 L 6.546875 5.300781 L 13.417969 -3.183594 C 15.574219 -5.851562 17.453125 -6.1875 19.9375 -4.175781 L 21.878906 -2.605469 L 25.261719 -6.789062 Z M 23.808594 -7.964844 "/></g></g></g></svg>